<svg id="Grupo_20" data-name="Grupo 20" xmlns="http://www.w3.org/2000/svg" xmlns:xlink="http://www.w3.org/1999/xlink" width="748.438" height="407.281" viewBox="0 0 748.438 407.281">
  <defs>
    <clipPath id="clip-path">
      <rect id="Rectángulo_6" data-name="Rectángulo 6" width="748.438" height="305.944" fill="none"/>
    </clipPath>
    <clipPath id="clip-path-2">
      <rect id="Rectángulo_7" data-name="Rectángulo 7" width="157.354" height="157.354" fill="none"/>
    </clipPath>
  </defs>
  <g id="Grupo_17" data-name="Grupo 17" transform="translate(0)">
    <g id="Grupo_16" data-name="Grupo 16" clip-path="url(#clip-path)">
      <rect id="Rectángulo_5" data-name="Rectángulo 5" width="745.12" height="302.626" rx="47.407" transform="translate(1.659 1.659)" fill="none" stroke="#fff" stroke-width="4" stroke-dasharray="11.981 11.981"/>
    </g>
  </g>
  <g id="Grupo_19" data-name="Grupo 19" transform="translate(295.69 249.927)">
    <g id="Grupo_18" data-name="Grupo 18" clip-path="url(#clip-path-2)">
      <path id="Trazado_55" data-name="Trazado 55" d="M157.354,78.676A78.677,78.677,0,1,1,78.676,0a78.677,78.677,0,0,1,78.677,78.676" fill="#fb9d2c"/>
      <path id="Trazado_56" data-name="Trazado 56" d="M30.214,33.374c-2.549-.609-3.748-2.279-3.318-4.489.474-2.443,2.141-3.616,4.874-3.009,4.824,1.072-2.018-.613,2.758.66,2.263.6,3,2.493,3.3,4.607.383,2.741.847,2.573,1.128,5.323.185,1.81,1.024,2.513,2.824,2.718q31.149,3.53,62.286,7.179,12.881,1.494,25.758,3.027c3.747.444,5.106,2.425,4.184,6.1-4.782,19.1-9.607,38.18-14.323,57.291-.661,2.68-2.106,3.788-4.764,3.786q-33.538-.032-67.074-.024c-2.816,0-4.389-1.448-4.345-3.763s1.6-3.622,4.478-3.625q30.89-.028,61.778-.012h3.212l1.837-7.4H47.241c-4.783,0-5.633-.824-6.365-5.478Q36.5,68.438,32.026,40.626a32.318,32.318,0,0,0-1.21-5.309Zm40.727,60.7c-.739-14.839-1.472-29.545-2.215-44.451l-11.456-1c2.011,15.45,3.963,30.446,5.914,45.446Zm15.285.02c.614-14.157,1.217-28.054,1.828-42.157L76.6,50.767c.624,14.643,1.233,28.942,1.846,43.331Zm15.26.006c1.856-13.221,3.693-26.31,5.559-39.61L95.556,53.066C94.94,66.94,94.34,80.466,93.735,94.1Zm7.479.094c2.2,0,4.123-.066,6.039.023,1.335.062,1.855-.4,2.172-1.75,1.765-7.5,3.662-14.963,5.515-22.439,1.08-4.356,2.162-8.712,3.3-13.315l-11.451-1.449L108.965,94.2M42,46.719C44.141,62.774,46.225,78.428,48.3,94H55.49a6.7,6.7,0,0,0,.042-.951q-2.782-22.18-5.617-44.352a1.847,1.847,0,0,0-1.119-1.3c-2.137-.319-4.3-.446-6.792-.673" transform="translate(-1.872 -1.796)" fill="#1e1c1c"/>
      <path id="Trazado_57" data-name="Trazado 57" d="M105.535,146.248a9.73,9.73,0,0,1-9.976-9.757,9.986,9.986,0,0,1,9.884-9.978,10.174,10.174,0,0,1,10.182,10.017,9.872,9.872,0,0,1-10.09,9.717m.06-12.868a2.861,2.861,0,0,0-2.884,3.015,2.739,2.739,0,0,0,2.873,3.093c1.807.068,2.777-1.085,2.819-2.835.042-1.777-.658-3.1-2.808-3.272" transform="translate(-6.673 -8.834)" fill="#1e1c1c"/>
      <path id="Trazado_58" data-name="Trazado 58" d="M57.967,146.246a9.82,9.82,0,0,1-10.039-9.5,9.848,9.848,0,1,1,19.688-.349,9.723,9.723,0,0,1-9.649,9.85m-.822-6.537c2.647-.462,3.823-1.529,3.695-3.358a2.85,2.85,0,0,0-3.1-2.949c-1.738.043-3.554,1.755-3.017,3.265.451,1.271,1.752,2.24,2.426,3.042" transform="translate(-3.347 -8.835)" fill="#1e1c1c"/>
    </g>
  </g>
</svg>
