<svg xmlns="http://www.w3.org/2000/svg" xmlns:xlink="http://www.w3.org/1999/xlink" width="238.976" height="238.977" viewBox="0 0 238.976 238.977">
  <defs>
    <filter id="Trazado_50" x="0" y="0" width="238.976" height="238.977" filterUnits="userSpaceOnUse">
      <feOffset dx="10" dy="10" input="SourceAlpha"/>
      <feGaussianBlur stdDeviation="10" result="blur"/>
      <feFlood flood-opacity="0.686"/>
      <feComposite operator="in" in2="blur"/>
      <feComposite in="SourceGraphic"/>
    </filter>
    <filter id="Trazado_50-2" x="0" y="0" width="238.976" height="238.977" filterUnits="userSpaceOnUse">
      <feOffset dx="5" dy="5" input="SourceAlpha"/>
      <feGaussianBlur stdDeviation="2.5" result="blur-2"/>
      <feFlood flood-color="#fff" flood-opacity="0.384" result="color"/>
      <feComposite operator="out" in="SourceGraphic" in2="blur-2"/>
      <feComposite operator="in" in="color"/>
      <feComposite operator="in" in2="SourceGraphic"/>
    </filter>
    <filter id="arriba" x="11.5" y="11.5" width="205" height="205.001" filterUnits="userSpaceOnUse">
      <feOffset dx="5" dy="5" input="SourceAlpha"/>
      <feGaussianBlur stdDeviation="2.5" result="blur-3"/>
      <feFlood flood-color="#0b0b0b" flood-opacity="0.537"/>
      <feComposite operator="in" in2="blur-3"/>
      <feComposite in="SourceGraphic"/>
    </filter>
    <filter id="arriba-2" x="11.5" y="11.5" width="205" height="205.001" filterUnits="userSpaceOnUse">
      <feOffset dx="10" dy="10" input="SourceAlpha"/>
      <feGaussianBlur stdDeviation="5" result="blur-4"/>
      <feFlood flood-color="snow" flood-opacity="0.757" result="color-2"/>
      <feComposite operator="out" in="SourceGraphic" in2="blur-4"/>
      <feComposite operator="in" in="color-2"/>
      <feComposite operator="in" in2="SourceGraphic"/>
    </filter>
    <filter id="Trazado_51" x="54.709" y="58.57" width="104.508" height="111.019" filterUnits="userSpaceOnUse">
      <feOffset dy="2" input="SourceAlpha"/>
      <feGaussianBlur stdDeviation="1.5" result="blur-5"/>
      <feFlood flood-opacity="0.463"/>
      <feComposite operator="in" in2="blur-5"/>
      <feComposite in="SourceGraphic"/>
    </filter>
    <filter id="Trazado_51-2" x="54.709" y="58.57" width="104.508" height="111.019" filterUnits="userSpaceOnUse">
      <feOffset dx="5" dy="3" input="SourceAlpha"/>
      <feGaussianBlur stdDeviation="3" result="blur-6"/>
      <feFlood flood-color="#fff" flood-opacity="0.161" result="color-3"/>
      <feComposite operator="out" in="SourceGraphic" in2="blur-6"/>
      <feComposite operator="in" in="color-3"/>
      <feComposite operator="in" in2="SourceGraphic"/>
    </filter>
    <filter id="Trazado_52" x="101.896" y="81.918" width="31.72" height="36.096" filterUnits="userSpaceOnUse">
      <feOffset dy="2" input="SourceAlpha"/>
      <feGaussianBlur stdDeviation="1.5" result="blur-7"/>
      <feFlood flood-opacity="0.463"/>
      <feComposite operator="in" in2="blur-7"/>
      <feComposite in="SourceGraphic"/>
    </filter>
    <filter id="Trazado_52-2" x="101.896" y="81.918" width="31.72" height="36.096" filterUnits="userSpaceOnUse">
      <feOffset dx="5" dy="3" input="SourceAlpha"/>
      <feGaussianBlur stdDeviation="3" result="blur-8"/>
      <feFlood flood-color="#fff" flood-opacity="0.161" result="color-4"/>
      <feComposite operator="out" in="SourceGraphic" in2="blur-8"/>
      <feComposite operator="in" in="color-4"/>
      <feComposite operator="in" in2="SourceGraphic"/>
    </filter>
    <filter id="Trazado_53" x="107.498" y="67.564" width="41.42" height="48.632" filterUnits="userSpaceOnUse">
      <feOffset dy="2" input="SourceAlpha"/>
      <feGaussianBlur stdDeviation="1.5" result="blur-9"/>
      <feFlood flood-opacity="0.463"/>
      <feComposite operator="in" in2="blur-9"/>
      <feComposite in="SourceGraphic"/>
    </filter>
    <filter id="Trazado_53-2" x="107.498" y="67.564" width="41.42" height="48.632" filterUnits="userSpaceOnUse">
      <feOffset dx="5" dy="3" input="SourceAlpha"/>
      <feGaussianBlur stdDeviation="3" result="blur-10"/>
      <feFlood flood-color="#fff" flood-opacity="0.161" result="color-5"/>
      <feComposite operator="out" in="SourceGraphic" in2="blur-10"/>
      <feComposite operator="in" in="color-5"/>
      <feComposite operator="in" in2="SourceGraphic"/>
    </filter>
    <filter id="Trazado_54" x="113.08" y="53.232" width="51.177" height="61.146" filterUnits="userSpaceOnUse">
      <feOffset dy="2" input="SourceAlpha"/>
      <feGaussianBlur stdDeviation="1.5" result="blur-11"/>
      <feFlood flood-opacity="0.463"/>
      <feComposite operator="in" in2="blur-11"/>
      <feComposite in="SourceGraphic"/>
    </filter>
    <filter id="Trazado_54-2" x="113.08" y="53.232" width="51.177" height="61.146" filterUnits="userSpaceOnUse">
      <feOffset dx="5" dy="3" input="SourceAlpha"/>
      <feGaussianBlur stdDeviation="3" result="blur-12"/>
      <feFlood flood-color="#fff" flood-opacity="0.161" result="color-6"/>
      <feComposite operator="out" in="SourceGraphic" in2="blur-12"/>
      <feComposite operator="in" in="color-6"/>
      <feComposite operator="in" in2="SourceGraphic"/>
    </filter>
  </defs>
  <g id="Grupo_107" data-name="Grupo 107" transform="translate(20 19.928)">
    <g data-type="innerShadowGroup">
      <g transform="matrix(1, 0, 0, 1, -20, -19.93)" filter="url(#Trazado_50)">
        <path id="Trazado_50-3" data-name="Trazado 50" d="M178.976,89.463A89.488,89.488,0,1,1,89.463,0a89.49,89.49,0,0,1,89.514,89.464" transform="translate(20 20)" fill="#1d0"/>
      </g>
      <g transform="matrix(1, 0, 0, 1, -20, -19.93)" filter="url(#Trazado_50-2)">
        <path id="Trazado_50-4" data-name="Trazado 50" d="M178.976,89.463A89.488,89.488,0,1,1,89.463,0a89.49,89.49,0,0,1,89.514,89.464" transform="translate(20 20)" fill="#fff"/>
      </g>
    </g>
    <g data-type="innerShadowGroup">
      <g transform="matrix(1, 0, 0, 1, -20, -19.93)" filter="url(#arriba)">
        <path id="arriba-3" data-name="arriba" d="M160,79.977A80,80,0,1,1,79.977,0,80,80,0,0,1,160,79.977" transform="translate(29 29)" fill="#00e900"/>
      </g>
      <g transform="matrix(1, 0, 0, 1, -20, -19.93)" filter="url(#arriba-2)">
        <path id="arriba-4" data-name="arriba" d="M160,79.977A80,80,0,1,1,79.977,0,80,80,0,0,1,160,79.977" transform="translate(29 29)" fill="#fff"/>
      </g>
    </g>
    <g data-type="innerShadowGroup">
      <g transform="matrix(1, 0, 0, 1, -20, -19.93)" filter="url(#Trazado_51)">
        <path id="Trazado_51-3" data-name="Trazado 51" d="M129.824,127.836s7.734-13.82-16.865-21.552c0,0-9.95-3.867-17.961,5.808S57.681,85.02,58.508,77.557s6.654-6.818,10.223-10.781c2.157-2.394,4.42-7.463.548-14.647S60.43,32.785,48.548,38.868,30.591,61.259,40.269,80.6s29.584,46.145,56.394,55.81,33.161-8.576,33.161-8.576" transform="translate(23.74 23.85)" fill="#1e1c1c"/>
      </g>
      <g transform="matrix(1, 0, 0, 1, -20, -19.93)" filter="url(#Trazado_51-2)">
        <path id="Trazado_51-4" data-name="Trazado 51" d="M129.824,127.836s7.734-13.82-16.865-21.552c0,0-9.95-3.867-17.961,5.808S57.681,85.02,58.508,77.557s6.654-6.818,10.223-10.781c2.157-2.394,4.42-7.463.548-14.647S60.43,32.785,48.548,38.868,30.591,61.259,40.269,80.6s29.584,46.145,56.394,55.81,33.161-8.576,33.161-8.576" transform="translate(23.74 23.85)" fill="#fff"/>
      </g>
    </g>
    <g data-type="innerShadowGroup">
      <g transform="matrix(1, 0, 0, 1, -20, -19.93)" filter="url(#Trazado_52)">
        <path id="Trazado_52-3" data-name="Trazado 52" d="M99.75,85.435l-5.4-.683a15.169,15.169,0,0,0-1.523-14.7l-.808-1.041a15.053,15.053,0,0,0-13.861-5.138l.693-5.475a20.332,20.332,0,0,1,17.3,7.413,2.606,2.606,0,0,1,.429.469,2.961,2.961,0,0,1,.378.574,20.135,20.135,0,0,1,2.8,18.587" transform="translate(28.24 26.08)" fill="#1e1c1c"/>
      </g>
      <g transform="matrix(1, 0, 0, 1, -20, -19.93)" filter="url(#Trazado_52-2)">
        <path id="Trazado_52-4" data-name="Trazado 52" d="M99.75,85.435l-5.4-.683a15.169,15.169,0,0,0-1.523-14.7l-.808-1.041a15.053,15.053,0,0,0-13.861-5.138l.693-5.475a20.332,20.332,0,0,1,17.3,7.413,2.606,2.606,0,0,1,.429.469,2.961,2.961,0,0,1,.378.574,20.135,20.135,0,0,1,2.8,18.587" transform="translate(28.24 26.08)" fill="#fff"/>
      </g>
    </g>
    <g data-type="innerShadowGroup">
      <g transform="matrix(1, 0, 0, 1, -20, -19.93)" filter="url(#Trazado_53)">
        <path id="Trazado_53-3" data-name="Trazado 53" d="M114.558,84.986l-5.254-.664a26.023,26.023,0,0,0-4.05-22.957,3,3,0,0,0-.378-.574,2.531,2.531,0,0,0-.43-.468,26.017,26.017,0,0,0-21.223-9.641l.674-5.328a31.353,31.353,0,0,1,24.718,11.737,2.531,2.531,0,0,1,.43.468,2.969,2.969,0,0,1,.378.575,31.14,31.14,0,0,1,5.136,26.852" transform="translate(28.78 24.71)" fill="#1e1c1c"/>
      </g>
      <g transform="matrix(1, 0, 0, 1, -20, -19.93)" filter="url(#Trazado_53-2)">
        <path id="Trazado_53-4" data-name="Trazado 53" d="M114.558,84.986l-5.254-.664a26.023,26.023,0,0,0-4.05-22.957,3,3,0,0,0-.378-.574,2.531,2.531,0,0,0-.43-.468,26.017,26.017,0,0,0-21.223-9.641l.674-5.328a31.353,31.353,0,0,1,24.718,11.737,2.531,2.531,0,0,1,.43.468,2.969,2.969,0,0,1,.378.575,31.14,31.14,0,0,1,5.136,26.852" transform="translate(28.78 24.71)" fill="#fff"/>
      </g>
    </g>
    <g data-type="innerShadowGroup">
      <g transform="matrix(1, 0, 0, 1, -20, -19.93)" filter="url(#Trazado_54)">
        <path id="Trazado_54-3" data-name="Trazado 54" d="M129.368,84.535l-5.254-.664a37.068,37.068,0,0,0-6.387-31.222,3.018,3.018,0,0,0-.379-.574,2.606,2.606,0,0,0-.429-.469A36.988,36.988,0,0,0,88.272,37.643l.664-5.254a42.373,42.373,0,0,1,32.192,15.954l.808,1.041a42.635,42.635,0,0,1,7.432,35.151" transform="translate(29.31 23.34)" fill="#1e1c1c"/>
      </g>
      <g transform="matrix(1, 0, 0, 1, -20, -19.93)" filter="url(#Trazado_54-2)">
        <path id="Trazado_54-4" data-name="Trazado 54" d="M129.368,84.535l-5.254-.664a37.068,37.068,0,0,0-6.387-31.222,3.018,3.018,0,0,0-.379-.574,2.606,2.606,0,0,0-.429-.469A36.988,36.988,0,0,0,88.272,37.643l.664-5.254a42.373,42.373,0,0,1,32.192,15.954l.808,1.041a42.635,42.635,0,0,1,7.432,35.151" transform="translate(29.31 23.34)" fill="#fff"/>
      </g>
    </g>
  </g>
</svg>
