<svg id="Componente_8_1" data-name="Componente 8 – 1" xmlns="http://www.w3.org/2000/svg" xmlns:xlink="http://www.w3.org/1999/xlink" width="178.976" height="178.976" viewBox="0 0 178.976 178.976">
  <defs>
    <clipPath id="clip-path">
      <rect id="Rectángulo_4" data-name="Rectángulo 4" width="178.976" height="178.976" fill="none"/>
    </clipPath>
  </defs>
  <g id="Grupo_11" data-name="Grupo 11" clip-path="url(#clip-path)">
    <path id="Trazado_50" data-name="Trazado 50" d="M178.976,89.463A89.488,89.488,0,1,1,89.463,0a89.49,89.49,0,0,1,89.514,89.464" transform="translate(0 0)" fill="#fb9d2c"/>
    <path id="Trazado_51" data-name="Trazado 51" d="M129.824,127.836s7.734-13.82-16.865-21.552c0,0-9.95-3.867-17.961,5.808S57.681,85.02,58.508,77.557s6.654-6.818,10.223-10.781c2.157-2.394,4.42-7.463.548-14.647S60.43,32.785,48.548,38.868,30.591,61.259,40.269,80.6s29.584,46.145,56.394,55.81,33.161-8.576,33.161-8.576" transform="translate(3.74 3.924)" fill="#1e1c1c"/>
    <path id="Trazado_52" data-name="Trazado 52" d="M99.75,85.435l-5.4-.683a15.169,15.169,0,0,0-1.523-14.7l-.808-1.041a15.053,15.053,0,0,0-13.861-5.138l.693-5.475a20.332,20.332,0,0,1,17.3,7.413,2.606,2.606,0,0,1,.429.469,2.961,2.961,0,0,1,.378.574,20.135,20.135,0,0,1,2.8,18.587" transform="translate(8.241 6.152)" fill="#1e1c1c"/>
    <path id="Trazado_53" data-name="Trazado 53" d="M114.558,84.986l-5.254-.664a26.023,26.023,0,0,0-4.05-22.957,3,3,0,0,0-.378-.574,2.531,2.531,0,0,0-.43-.468,26.017,26.017,0,0,0-21.223-9.641l.674-5.328a31.353,31.353,0,0,1,24.718,11.737,2.531,2.531,0,0,1,.43.468,2.969,2.969,0,0,1,.378.575,31.14,31.14,0,0,1,5.136,26.852" transform="translate(8.776 4.782)" fill="#1e1c1c"/>
    <path id="Trazado_54" data-name="Trazado 54" d="M129.368,84.535l-5.254-.664a37.068,37.068,0,0,0-6.387-31.222,3.018,3.018,0,0,0-.379-.574,2.606,2.606,0,0,0-.429-.469A36.988,36.988,0,0,0,88.272,37.643l.664-5.254a42.373,42.373,0,0,1,32.192,15.954l.808,1.041a42.635,42.635,0,0,1,7.432,35.151" transform="translate(9.308 3.415)" fill="#1e1c1c"/>
  </g>
</svg>
