<svg xmlns="http://www.w3.org/2000/svg" xmlns:xlink="http://www.w3.org/1999/xlink" width="807.753" height="527.941" viewBox="0 0 807.753 527.941">
  <defs>
    <clipPath id="clip-path">
      <rect id="Rectángulo_32" data-name="Rectángulo 32" width="117.908" height="10" fill="none"/>
    </clipPath>
    <linearGradient id="linear-gradient" y1="69.948" x2="0.008" y2="69.948" gradientUnits="objectBoundingBox">
      <stop offset="0" stop-color="#00a7e7"/>
      <stop offset="0.231" stop-color="#007ec6"/>
      <stop offset="0.284" stop-color="#0074be"/>
      <stop offset="0.614" stop-color="#0074be"/>
      <stop offset="0.867" stop-color="#005288"/>
      <stop offset="0.9" stop-color="#004e81"/>
      <stop offset="1" stop-color="#004e81"/>
    </linearGradient>
    <clipPath id="clip-path-2">
      <path id="Rectángulo_34" data-name="Rectángulo 34" d="M14.546,0H513.395a14.546,14.546,0,0,1,14.546,14.546V513.394a14.547,14.547,0,0,1-14.547,14.547H14.547A14.547,14.547,0,0,1,0,513.394V14.546A14.546,14.546,0,0,1,14.546,0Z" transform="translate(117.908)" fill="none"/>
    </clipPath>
    <linearGradient id="linear-gradient-2" x1="-0.223" y1="1" x2="-0.221" y2="1" xlink:href="#linear-gradient"/>
  </defs>
  <g id="Grupo_111" data-name="Grupo 111" transform="translate(-476.096 -277)">
    <g id="Grupo_106" data-name="Grupo 106">
      <g id="Grupo_104" data-name="Grupo 104">
        <g id="Grupo_51" data-name="Grupo 51" transform="translate(476.096 459.048)">
          <g id="Grupo_109" data-name="Grupo 109">
            <path id="Trazado_63" data-name="Trazado 63" d="M161.9,80.929A80.952,80.952,0,1,1,80.929,0,80.954,80.954,0,0,1,161.9,80.929" fill="#12dd02"/>
            <path id="Trazado_64" data-name="Trazado 64" d="M120.824,119.192s7-12.5-15.256-19.5c0,0-9-3.5-16.248,5.254S55.562,80.46,56.31,73.709s6.019-6.168,9.248-9.753c1.951-2.166,4-6.751.5-13.25s-8.005-17.5-18.754-12S31.056,58.966,39.811,76.464s26.762,41.743,51.015,50.486,30-7.758,30-7.758" fill="#1e1c1c"/>
            <path id="Trazado_65" data-name="Trazado 65" d="M97.69,82.85,92.8,82.232a13.722,13.722,0,0,0-1.378-13.3l-.731-.942A13.617,13.617,0,0,0,78.155,63.34l.627-4.953a18.393,18.393,0,0,1,15.646,6.706,2.358,2.358,0,0,1,.388.424,2.679,2.679,0,0,1,.342.519A18.215,18.215,0,0,1,97.69,82.85" fill="#1e1c1c"/>
            <path id="Trazado_66" data-name="Trazado 66" d="M111.569,81.206l-4.753-.6a23.541,23.541,0,0,0-3.664-20.767,2.709,2.709,0,0,0-.342-.519,2.289,2.289,0,0,0-.389-.423,23.535,23.535,0,0,0-19.2-8.721l.61-4.82a28.362,28.362,0,0,1,22.36,10.617,2.289,2.289,0,0,1,.389.423,2.686,2.686,0,0,1,.342.52,28.17,28.17,0,0,1,4.646,24.291" fill="#1e1c1c"/>
            <path id="Trazado_67" data-name="Trazado 67" d="M125.448,79.561l-4.753-.6a33.532,33.532,0,0,0-5.778-28.244,2.73,2.73,0,0,0-.343-.519,2.358,2.358,0,0,0-.388-.424A33.46,33.46,0,0,0,88.272,37.142l.6-4.753a38.331,38.331,0,0,1,29.121,14.432l.731.942a38.568,38.568,0,0,1,6.723,31.8" fill="#1e1c1c"/>
          </g>
        </g>
        <g id="Grupo_60" data-name="Grupo 60" transform="translate(638 277)">
          <g id="Grupo_53" data-name="Grupo 53">
            <g id="Grupo_52" data-name="Grupo 52" transform="translate(0 262.07)" clip-path="url(#clip-path)">
              <rect id="Rectángulo_31" data-name="Rectángulo 31" width="117.908" height="10" fill="url(#linear-gradient)"/>
            </g>
          </g>
          <g id="Grupo_55" data-name="Grupo 55">
            <g id="Grupo_54" data-name="Grupo 54" clip-path="url(#clip-path-2)">
              <rect id="Rectángulo_33" data-name="Rectángulo 33" width="527.941" height="527.941" transform="translate(117.908 0)" fill="url(#linear-gradient-2)"/>
            </g>
          </g>
        </g>
      </g>
      <g id="Capa_1-2" transform="translate(785 304)">
        <path id="Trazado_176" data-name="Trazado 176" d="M0,0H471V471H0ZM42.625,171.169q.011,7.418.029,14.835H28.892v56.2H42.632c0-3.711.118-7.127-.037-10.53-.11-2.381.705-3.27,3.13-3.16,3.718.162,7.451.044,11.463.044v-14.02H71.326V228.7H100V242.6H57.585v14.519H86.014v14h42.691q.088,7.473.162,14.931H99.99v13.711q-6.845.32-13.7.632v13.572c4.761.25,9.207.492,13.652.727V328.2h4.967c11.382,0,22.771.1,34.153-.059,3.071-.044,3.946.933,3.924,3.961-.081,11.632.081,23.263.176,34.888.007,1.286.14,2.572.22,3.968,3.49,0,6.569.22,9.6-.059,3.512-.323,4.6.874,4.541,4.445-.184,10.331-.029,10.28,10.331,9.89,2.322-.088,3.292-.764,3.182-3.211-.169-3.6-.044-7.223-.044-11.235H199.4V357.35h-4.2c-11.507,0-23.014-.125-34.52.081-3.336.059-4.144-1.073-4.093-4.2.191-11.632.14-23.263.206-34.888.007-1.279.206-2.564.353-4.21h27.929V300.176H171.1v-13.99H157.252v13.954c-3.968,0-7.5.132-11.015-.044-2.52-.125-3.542.669-3.4,3.307.191,3.615.044,7.245.044,11.4-14.7,0-28.863,0-43.022-.007q.011-7.583.029-15.159H128.1c.242-4.747.463-9.2.691-13.66,8.288-.118,16.57-.331,24.858-.287,2.579.015,3.461-.794,3.343-3.343-.169-3.608-.044-7.223-.044-11.264h14.24V257.162h14.674V285.4h13.895v-28.48h28.73V242.466h13.968V228.483h14.865v42.691H271.3v57.042c4.188,0,7.708.118,11.213-.037,2.579-.118,3.483.9,3.387,3.409-.132,3.483-.037,6.973-.037,10.9h14.1c.022,1.1.037,2.2.073,3.3.118,3.4-1.014,7.987.742,9.854,1.69,1.808,6.378,1.043,9.736.97,3.005-.066,4.041.918,4.012,3.99-.11,11.507.015,23.021.081,34.528.007,1.411.184,2.814.3,4.453,3.961,0,7.5.073,11.037-.029,2.021-.059,2.888.661,2.814,2.748-.1,3.057-.154,6.128.037,9.178.162,2.616-.867,3.373-3.387,3.329-7.1-.132-14.211-.25-21.3.044-3.674.147-4.82-.83-4.717-4.637.272-10.735-.118-10.956-10.912-9.56a3.428,3.428,0,0,0-2.315,2.322q-.254,11.011.037,22.036a3.664,3.664,0,0,0,2.469,2.52,49.148,49.148,0,0,0,8.061.132c2.447-.081,3.593.808,3.439,3.424-.169,2.807.022,5.628-.051,8.443-.051,1.822.558,2.682,2.52,2.66q11.2-.1,22.4,0c1.9.015,2.66-.735,2.631-2.586-.044-2.814.073-5.636,0-8.45-.066-2.513,1.073-3.578,3.542-3.49,1.955.073,3.916,0,5.878,0q5.085-.007,5.092-4.916c.015-11.264.132-22.529-.022-33.793-.037-2.954.97-3.836,3.769-3.792,7.465.118,14.938.088,22.4.022,2.381-.022,3.218.911,3.108,3.284-.162,3.615-.044,7.238-.044,10.941h27.7V386.058c-3.7,0-7.127-.132-10.537.044-2.623.14-3.88-.588-3.667-3.454a63.463,63.463,0,0,0,.022-8.443c-.162-2.66,1-3.387,3.468-3.277,3.52.154,7.047.037,11.154.037V342.632h14.835c0,6.5-.015,12.727,0,18.943q.029,10.081-9.868,10.147a6.13,6.13,0,0,1-.735,0c-3.138-.441-4.137,1.021-3.814,3.99a25.52,25.52,0,0,1,0,5.5c-.316,2.969.683,4.144,3.828,4.049q9.909-.309,19.832,0c3.27.1,4.2-1.058,4.174-4.232-.11-11.264.022-22.529.1-33.793.007-1.543.213-3.079.353-5.026h13.829v-13.16c-1.433-.073-2.748-.206-4.056-.206-6.856-.022-13.719-.154-20.567.051-3.123.1-3.931-1.036-3.887-4.019.162-11.632.088-23.263.1-34.9v-4.35c3.983,0,7.517-.169,11.022.051,2.836.184,3.512-.933,3.483-3.593-.1-11.757-.022-23.513,0-35.263,0-1.308.11-2.616.184-4.357h13.785V214.588H413.789V200.171c-9.993,0-19.509,0-29.009-.015a13.214,13.214,0,0,0,.47-2.462q.088-18.958.081-37.915a13.346,13.346,0,0,0-.6-2.741H399.38V143.482H385.61c-.272,4.7-.529,9.163-.786,13.623H356.8v-13.55H342.742v27.826h14.27v28.671h27.863c.294,4.7.58,9.4.889,14.431h14.064v28.106H413.76v28.569H399.424V257.117H385.11V228.666H370.87v-13.8H328.554v13.748H313.667V214.852H299.823v13.968H285.877v13.652h42.691c-.022,3.3-.059,6.6-.066,9.9q-.015,4.916-4.938,4.923H300.117v13.9h13.777c.081,1.609.184,2.8.2,3.99.1,10.919.088,10.86,11.191,10.515,2.226-.066,3.035-.757,2.954-2.983-.132-3.733-.037-7.473-.037-11.646h14.167v-28.62c3.784.022,7.568.176,11.345.022,2.491-.1,3.534.639,3.395,3.277-.191,3.615-.051,7.245-.051,11.279h14.02V271.24l.073-.073H357.115c0,4.122-.191,7.429.059,10.7.235,3.145-.654,4.467-4.027,4.174s-6.753-.066-10.544-.066V300.25h-14.02c0,3.623-.228,6.811.059,9.956.316,3.461-.727,4.879-4.372,4.534-3.226-.309-6.5-.066-9.986-.066v4.519c.022,6.723-.044,13.454.11,20.177.066,2.719-.867,3.711-3.6,3.52-3.652-.25-7.318-.2-10.985-.272V314.673c-4.188,0-7.627-.191-11.029.059-3.02.22-3.725-.977-3.689-3.792.154-11.632.118-23.271.125-34.9,0-1.418-.132-2.844-.228-4.725H271.13q-.022-21.415-.037-42.824h14.034V199.98H271.086V185.924h28.671V171.169h14.2v28.444H342.2V185.806H328.282V157.149H313.9V143.218H285.789V128.676H299.75v-13.9l-.1.118h14.461V128.4H328.15V99.931H313.733V71.341l-.118.125h14.5V29H242.422v14.38H228.3V57.35H213.838V71.1h-13.7V43.154H213.86v-14.2H185.453V85.588c-5.136.272-9.846.522-14.549.764q.187-16.114.36-32.228c.037-3.512,0-7.025,0-10.934h-14.2V29h-14.24V57.5H156.8V71.51h-13.88V85.934c2.337,0,4.4-.029,6.459,0q10.79.165,21.573.353L171.257,100h-13.9v14.755H142.586V143.4H99.85V157.01H85.625V143.541H57.38V171.3H42.515V143.5H28.877V171.2H42.618Zm385.867,14.7v13.851H442.38V185.975h-14q.022-7.407.037-14.821H442.13V143.519H414.149v13.763h14.372v13.976H400.078v14.608H428.5ZM128.228,128.573V28.958H28.892v99.615h99.336Zm313.924-.1V28.965H342.691v99.513ZM29.046,343.058c-.081,1.095-.206,1.925-.206,2.755.029,30.971.118,61.943.029,92.914-.007,3.262,1.411,3.483,3.961,3.476,30.237-.051,60.466-.088,90.7.044,3.395.015,4.357-.948,4.365-4.306q.044-45.355.448-90.7c.037-3.571-.992-4.49-4.512-4.467-30.229.14-60.466.073-90.7.088-1.323,0-2.638.132-4.085.206ZM257.316,329.1c0,8.318-.132,16.378.066,24.432.081,3.123-.977,4.071-3.975,3.872-3.365-.228-6.753-.051-10.39-.051,0,2.785.007,5.085,0,7.385-.044,7.8.867,6.885-6.738,6.98-2.41.029-4.82,0-7.532,0v4.438q.022,16.9.051,33.786,0,4.813-4.725,4.828c-9.765.022-9.685.022-9.383,9.751.073,2.41.926,3.211,3.262,3.182,6.973-.088,13.954-.1,20.927.007,2.5.037,3.454-.757,3.4-3.373-.14-7.1.081-14.2-.081-21.294-.066-2.785.889-3.571,3.586-3.512,6.973.162,13.954.066,20.927.044,1.293,0,2.586-.118,3.916-.184V386.058c-3.8,0-7.341-.132-10.86.044-2.631.132-3.483-.955-3.365-3.431.132-2.807.154-5.636.029-8.443-.118-2.594.977-3.424,3.483-3.307,3.608.169,7.223.044,10.875.044V329.1H257.316Zm-57.776,70.363h13.873V371.745c-3.681,0-7.1.066-10.515-.022-2.322-.066-2.888,1.051-2.814,3.167.125,3.608.037,7.23.037,11.294h-28.4c-.073,1.536-.162,2.616-.169,3.7-.073,11.213-.066,11.147-11.507,10.684-2.66-.11-3.733-1.051-3.615-3.733.154-3.483.037-6.98.037-10.765-3.894,0-7.179.1-10.456-.037-2.116-.088-2.792.8-2.77,2.792.081,7.341.132,14.681.081,22.022-.015,2.293,1.036,2.976,3.138,2.924a54.516,54.516,0,0,1,8.421.147,3.815,3.815,0,0,1,2.5,2.564,54.749,54.749,0,0,1,.132,7.693c0,5.077-.007,5-5.041,5.121-10.647.242-8.876-2.16-9.111,9.787-.051,2.4.852,3.182,3.226,3.138,6.848-.125,13.7-.2,20.552.029,3.16.1,3.916-1.029,3.85-3.99-.176-7.928-.059-15.864-.059-24.1,1.778-.154,3.2-.367,4.637-.375,6.606-.037,13.219-.154,19.817.044,3.123.1,4.5-.735,4.225-4.085-.265-3.145-.059-6.327-.059-10.265Zm28.694-43V342.206H242.2V328.833c-3.667,0-7.194-.132-10.7.044-2.608.132-3.431-.882-3.314-3.4.169-3.5.044-7.017.044-10.508H214.412c0,3.336-.22,6.407.059,9.427.331,3.6-1.043,4.578-4.548,4.519-11.624-.2-23.249-.132-34.873.015-1.2.015-3.336,1.11-3.409,1.866-.353,3.718-.162,7.488-.162,11.558h4.431c11.624,0,23.256.1,34.88-.066,2.976-.044,3.88.977,3.733,3.784-.169,3.387-.037,6.782-.037,10.4h13.748Zm-185.218-41.6c0,3.858-.154,7.5.118,11.125a3.406,3.406,0,0,0,2.476,2.124c3.894.235,7.818.1,11.727.1H70.915V314.857h-27.9ZM442.1,386.316H428.676c0,8.538-.066,16.827.11,25.108.015.786,1.477,2.116,2.366,2.2a40.685,40.685,0,0,0,8.406,0c.911-.1,2.41-1.389,2.432-2.168.176-8.288.11-16.577.11-25.152ZM370.8,414.2h.015v-3.659c.015-10.662.015-10.61-10.552-10.045-2.16.118-3.013.794-2.954,3.035.14,4.754.059,9.508.066,14.262.022,10.735.015,10.691,10.7,9.9,2.021-.147,2.814-.867,2.755-2.888C370.731,421.277,370.8,417.742,370.8,414.2Zm15.21.867c0,8.516-.059,16.687.1,24.858a3.043,3.043,0,0,0,2.035,2.138c3.5.228,7.025.1,10.669.1V414.781c-3.7,0-7.105-.007-10.515.007a22.77,22.77,0,0,0-2.285.279Zm41.552,13.5h.015v-4.034c0-10.184,0-10.118-10.067-9.809-2.263.066-3,.83-2.954,3.005.1,5.011.029,10.023.029,15.034q0,9.648,9.685,9.413a6.136,6.136,0,0,1,.735,0c1.947.2,2.594-.794,2.564-2.608-.051-3.667-.015-7.333-.015-11ZM214.419,285.627c4.21,0,7.98.1,11.727-.081a2.786,2.786,0,0,0,2.013-1.778c.191-3.968.1-7.943.1-12.006H214.411v13.865ZM56.99,278.654q.015-7.208-7.017-7.208T42.9,278.581q-.044,7.135,7.186,7.047,6.892,0,6.907-6.98Zm143.3,21.735v13.564h13.285V300.389Zm56.109-.742v-13.4H243.024v13.4ZM71.635,299.53H85.089V286.222H71.635V299.53Zm-29.384.088V286.267H29.031v13.351H42.25ZM286.259,357.5v13.2h12.954V357.5Zm-1.286,14.409c-1.492-.073-2.572-.162-3.652-.169-10.948-.073-11.161.125-9.787,11.088a3.467,3.467,0,0,0,2.4,2.256,37.892,37.892,0,0,0,8.413-.007,3.686,3.686,0,0,0,2.506-2.476C285.157,379.21,284.973,375.779,284.973,371.906ZM406.706,413.76c8.009-.081,6.731.72,6.738-6.459,0-7.443,1.4-6.731-6.812-6.745-7.884-.015-6.584-.58-6.576,6.635s-1.264,6.51,6.65,6.576Zm-149.258,1.029c0,3.9-.14,7.311.1,10.7a3.191,3.191,0,0,0,2.19,2.087c10.361,1.492,11.793.132,11.11-10.177-.007-.125.051-.294-.015-.36-.705-.757-1.381-2.094-2.138-2.146-3.52-.228-7.069-.1-11.25-.1Zm-64.7,27.393c7.4-.11,6.775,1.124,6.76-6.084-.015-7.546.948-6.8-6.87-6.8-7.605,0-6.444-.58-6.51,6.363-.059,6.518-.015,6.518,6.613,6.518Zm56.909,0c7.333-.125,6.635,1.087,6.613-5.871-.022-7.884,1.11-6.958-7.032-7.017-5.952-.044-5.952,0-5.959,5.974v.367C243.333,443.372,242.745,442.049,249.659,442.182Zm106.567-6.474c-.1-6.716.963-6.444-5.731-6.415-7.679.044-7.3-.977-7.282,6.025.007,7.965-.536,6.789,5.989,6.841,7.025.059,7.025.015,7.025-6.459Z" fill="#fff"/>
        <path id="Trazado_177" data-name="Trazado 177" d="M171.272,99.975l-.309-13.711-.059.066,14.556-.772V28.921h28.407v14.2H200.142V71.069h13.7V57.321h14.461V43.353h14.123V28.973H328.12V71.436h-14.5V43.492h-13.88V71.15H285.884V85.566h13.748V71.017q7.043.143,14.086.294V99.9h14.417v28.466H314.1V114.862H299.647V100.35h-13.91v14.4h14v13.9H285.774V143.2h28.113v13.932h14.38v28.657h13.917v13.807H313.946V171.147h-14.2l.11.132V157.385H213.9v14h-13.88v28.561H213.86l-.118-.11v14.879h14.718v13.895l.11-.11h-43.1V214.654H171.154V199.789h-13.8V171.037H171.36V185.7H185.2V171.14H171.272q-.011-6.955-.029-13.917l-.11.11h28.458V143.071H185.431V128.544h-14.3l.1.11V114.6l-.1.1H185.2V99.88H171.14l.1.081Zm28.767,14.835H214.2V128.4h14.328V99.843h14.167V128.4h14.461V114.8c4.9,0,9.391,0,13.888-.015v13.7H285.2V114.906H270.917q.154-16.147.3-32.294c.029-3.637,0-7.274,0-11.294h13.91V43.588h-28.15v27.9H214.353V85.926H228.63V99.939H213.809V86.1h-27.9V100.02h14.255c0,5.217,0,10.052-.007,14.872H185.88v13.572h14.174V114.8Z"/>
        <path id="Trazado_178" data-name="Trazado 178" d="M384.78,200.157H413.8v14.417H442.16v27.885H428.375c-.073,1.741-.176,3.049-.184,4.357-.029,11.757-.11,23.513,0,35.263.022,2.667-.647,3.777-3.483,3.593-3.5-.22-7.032-.051-11.022-.051v4.35c-.015,11.632.051,23.263-.1,34.9-.044,2.976.764,4.107,3.887,4.019,6.848-.206,13.711-.073,20.567-.051,1.315,0,2.623.132,4.056.206V342.2H428.265c-.14,1.947-.345,3.483-.353,5.026-.073,11.264-.213,22.529-.1,33.793.029,3.174-.9,4.335-4.174,4.232q-9.909-.32-19.832,0c-3.145.1-4.144-1.08-3.828-4.049a26.5,26.5,0,0,0,0-5.5c-.323-2.969.676-4.438,3.814-3.99a4.9,4.9,0,0,0,.735,0q9.9-.059,9.868-10.147c-.015-6.216,0-12.44,0-18.943H399.556v28.333c-4.108,0-7.642.118-11.154-.037-2.462-.11-3.63.617-3.468,3.277a63.474,63.474,0,0,1-.022,8.443c-.213,2.866,1.036,3.593,3.667,3.454,3.409-.176,6.834-.044,10.537-.044V399.4h-27.7c0-3.7-.118-7.333.044-10.941.1-2.373-.735-3.307-3.108-3.284-7.465.066-14.938.1-22.4-.022-2.792-.044-3.806.838-3.769,3.791.154,11.264.037,22.529.022,33.793q0,4.9-5.092,4.916c-1.962,0-3.916.066-5.878,0-2.469-.088-3.608.977-3.542,3.49.073,2.814-.044,5.636,0,8.45.029,1.852-.727,2.6-2.631,2.586q-11.2-.1-22.4,0c-1.969.015-2.572-.838-2.52-2.66.073-2.814-.118-5.643.051-8.443.162-2.616-.985-3.5-3.439-3.424a48.346,48.346,0,0,1-8.061-.132,3.664,3.664,0,0,1-2.469-2.52q-.32-11.011-.037-22.036a3.414,3.414,0,0,1,2.315-2.322c10.794-1.4,11.184-1.168,10.912,9.56-.1,3.806,1.051,4.791,4.717,4.637,7.091-.287,14.2-.169,21.3-.044,2.513.044,3.549-.705,3.387-3.329-.191-3.049-.14-6.121-.037-9.178.073-2.087-.794-2.807-2.814-2.748-3.534.1-7.076.029-11.037.029-.118-1.631-.294-3.042-.3-4.453-.066-11.507-.191-23.021-.081-34.528.029-3.064-1-4.049-4.012-3.99-3.358.073-8.046.83-9.736-.97-1.756-1.874-.617-6.459-.742-9.854-.037-1.1-.051-2.2-.081-3.3l-.125.125c3.659.073,7.333.022,10.978.272,2.733.191,3.667-.8,3.6-3.52-.162-6.723-.088-13.454-.11-20.177v-4.519c3.483,0,6.76-.242,9.986.066,3.652.345,4.688-1.073,4.372-4.534-.287-3.145-.059-6.334-.059-9.956h14.02V285.958c3.792,0,7.186-.228,10.544.066s4.269-1.029,4.027-4.174c-.25-3.27-.059-6.576-.059-10.7h14.034V299.86H356.9v14.549h42.816V285.62H385.581V271.226H371.1V257.015h-14.02c0-4.041-.147-7.671.051-11.279.14-2.645-.9-3.38-3.395-3.277-3.777.154-7.561,0-11.345-.022l.118.147V228.512H328.451l.132.088V214.852H370.9v13.8h14.24V257.1h14.314v14.042h14.336V242.576H399.858V214.47H385.794c-.309-5.033-.6-9.729-.889-14.431l-.11.118ZM371.127,328.23H330.273c-2.535,0-2.116,1.859-2.131,3.38-.1,12-.066,24.006-.309,36-.066,3.277,1.073,4.2,4.225,4.159,11.757-.147,23.513-.044,35.27-.073a34.293,34.293,0,0,0,3.8-.4Z"/>
        <path id="Trazado_179" data-name="Trazado 179" d="M128.228,128.581H28.892V28.958h99.336v99.615ZM43.786,44.109v69.563h69.371V44.109Z"/>
        <path id="Trazado_180" data-name="Trazado 180" d="M442.152,128.478H342.691V28.965h99.461ZM357.96,44.095v69.57h69.364V44.1H357.96Z"/>
        <path id="Trazado_181" data-name="Trazado 181" d="M29.046,343.058c1.448-.073,2.77-.206,4.085-.206,30.237-.015,60.466.051,90.7-.088,3.52-.015,4.541.9,4.512,4.467q-.419,45.355-.448,90.7c0,3.358-.97,4.321-4.365,4.306-30.229-.132-60.466-.1-90.7-.044-2.55,0-3.975-.213-3.961-3.476.088-30.971,0-61.943-.029-92.914,0-.83.118-1.661.206-2.755Zm85.045,49.775h-.169c0-10.53-.081-21.059.051-31.589.037-2.983-.9-4.093-3.99-4.078q-31.4.154-62.8,0c-2.917-.015-4.085.742-4.071,3.9q.132,31.589-.088,63.177c-.015,2.755.625,3.858,3.652,3.836q31.765-.187,63.537,0c3.13.015,3.968-1.087,3.931-4.034-.132-10.4-.051-20.817-.051-31.221Z"/>
        <path id="Trazado_182" data-name="Trazado 182" d="M57.387,171.272v-27.76H85.632V156.98H99.858V143.372h42.735l-.088-.11q.011,34.807.015,69.607a8.078,8.078,0,0,1-.47,1.683H113.841l.1.1v-14.74H128.4V185.74H114.15c0-1.888.066-3.329-.015-4.769-.176-3.373-.419-6.745-.632-10.118,4.923.228,9.831.448,14.843.676V157.377h-13.91c-.309,4.673-.6,9.1-.882,13.535-4.46.2-8.928.4-13.8.617v13.983H71.223V171.177H57.269l.11.088Z"/>
        <path id="Trazado_183" data-name="Trazado 183" d="M99.843,314.806h43.029c0-4.159.14-7.789-.044-11.4-.14-2.638.874-3.431,3.4-3.307,3.52.169,7.047.044,11.014.044V286.186H171.1v13.99h13.968V314.13H157.135c-.14,1.653-.345,2.932-.353,4.21-.066,11.632-.015,23.263-.206,34.888-.051,3.123.757,4.262,4.093,4.2,11.507-.206,23.014-.081,34.52-.081h4.2v13.439H170.986c0,4.012-.125,7.634.044,11.235.118,2.447-.852,3.123-3.182,3.211-10.361.382-10.507.441-10.331-9.89.066-3.571-1.029-4.769-4.541-4.445-3.027.279-6.106.059-9.6.059-.081-1.4-.213-2.682-.22-3.968-.088-11.632-.257-23.263-.176-34.888.022-3.02-.852-4-3.924-3.961-11.382.162-22.771.066-34.153.059H99.931V314.688l-.1.118Z"/>
        <path id="Trazado_184" data-name="Trazado 184" d="M257.323,329.1H270.8v41.861c-3.652,0-7.267.125-10.875-.044-2.506-.118-3.6.72-3.483,3.307.125,2.807.1,5.636-.029,8.443-.118,2.476.735,3.564,3.365,3.431,3.52-.176,7.061-.044,10.86-.044V399.38c-1.33.066-2.623.184-3.916.184-6.973.022-13.954.118-20.927-.044-2.7-.059-3.652.727-3.586,3.512.162,7.1-.059,14.2.081,21.294.051,2.616-.9,3.417-3.4,3.373-6.973-.11-13.954-.1-20.927-.007-2.329.029-3.182-.772-3.262-3.182-.309-9.729-.382-9.729,9.383-9.751q4.725-.007,4.725-4.828-.022-16.9-.051-33.786v-4.438c2.711,0,5.121.022,7.532,0,7.605-.1,6.7.823,6.738-6.98.015-2.3,0-4.6,0-7.385,3.637,0,7.025-.176,10.39.051,3,.2,4.056-.749,3.975-3.872-.206-8.053-.066-16.114-.066-24.432Z"/>
        <path id="Trazado_185" data-name="Trazado 185" d="M199.547,399.454c0,3.938-.206,7.12.059,10.265.287,3.351-1.095,4.181-4.225,4.085-6.6-.2-13.212-.081-19.817-.044-1.433.007-2.858.228-4.637.375,0,8.237-.118,16.173.059,24.1.066,2.961-.691,4.1-3.85,3.99-6.841-.228-13.7-.147-20.552-.029-2.373.044-3.277-.735-3.226-3.138.235-11.948-1.536-9.545,9.111-9.787,5.033-.118,5.033-.044,5.041-5.121a54.751,54.751,0,0,0-.132-7.693,3.786,3.786,0,0,0-2.5-2.564,54.549,54.549,0,0,0-8.421-.147c-2.1.051-3.152-.632-3.138-2.924.044-7.341,0-14.681-.081-22.022-.022-1.991.654-2.88,2.77-2.792,3.277.132,6.562.037,10.456.037,0,3.784.118,7.282-.037,10.765-.118,2.689.955,3.63,3.615,3.733,11.441.463,11.433.522,11.507-10.684,0-1.08.1-2.16.169-3.7h28.4c0-4.063.1-7.686-.037-11.294-.073-2.109.492-3.226,2.814-3.167,3.417.1,6.834.022,10.515.022v27.716H199.539Z"/>
        <path id="Trazado_186" data-name="Trazado 186" d="M257.294,228.468H242.429l.125.147V199.841H213.772l.118.11v-14.24h14.835V171.617h13.917V186h28.576l-.125-.1v14.049h14.042v28.51H271.1l.118.147V214.654H257.154v13.968l.14-.147Z"/>
        <path id="Trazado_187" data-name="Trazado 187" d="M384.89,200.046H357.027V171.375h-14.27V143.548h14.057V157.1h28.025l-.11-.081a13.276,13.276,0,0,1,.617,2.755q.022,18.958-.081,37.915a12.837,12.837,0,0,1-.478,2.469Z"/>
        <path id="Trazado_188" data-name="Trazado 188" d="M228.461,242.451V256.9H199.73v28.48H185.836V257.147H171.162l.11.14q-.055-14.384-.1-28.767h14.358v14.057h43.066l-.14-.125Z"/>
        <path id="Trazado_189" data-name="Trazado 189" d="M71.319,214.536H57.181v14.02c-4.019,0-7.745.118-11.463-.044-2.425-.11-3.24.779-3.13,3.16.154,3.409.037,6.826.037,10.53H28.885V186H42.647l-.088-.118v14.189H71.216v14.578l.1-.125Z"/>
        <path id="Trazado_190" data-name="Trazado 190" d="M228.233,356.454H214.485c0-3.615-.132-7.017.037-10.4.14-2.807-.757-3.828-3.733-3.784-11.624.169-23.249.066-34.88.066h-4.431c0-4.071-.191-7.84.162-11.558.073-.749,2.212-1.852,3.409-1.866,11.624-.14,23.256-.206,34.873-.015,3.5.059,4.879-.918,4.548-4.519-.279-3.02-.059-6.091-.059-9.427h13.821c0,3.49.125,7.01-.044,10.508-.118,2.52.705,3.527,3.314,3.4,3.5-.176,7.025-.044,10.7-.044v13.373H228.233v14.255Z"/>
        <path id="Trazado_191" data-name="Trazado 191" d="M128.867,286.053l-.169-14.938-.147.118H142.9V228.512h14.431v28.767h13.946l-.11-.14v13.924h-14.24c0,4.041-.125,7.657.044,11.264.118,2.557-.764,3.358-3.343,3.343-8.281-.044-16.57.176-24.858.287l.1.088Z"/>
        <path id="Trazado_192" data-name="Trazado 192" d="M170.956,86.264c-7.194-.118-14.38-.25-21.573-.353-2.065-.029-4.122,0-6.459,0V71.488H156.8V57.483H142.836V28.98h14.24V43.169h14.2c0,3.909.029,7.421,0,10.934q-.165,16.114-.367,32.235l.059-.059Z"/>
        <path id="Trazado_193" data-name="Trazado 193" d="M128.7,271.115H86.007v-14H57.578V242.6H100l-.11-.14v14.894h28.664v13.88Z"/>
        <path id="Trazado_194" data-name="Trazado 194" d="M100,242.605V228.711H71.319V214.544l-.1.125H85.845V200.362h14.2v14.3h13.9l-.1-.1v14.306h14.387v13.6H99.887l.11.14Z"/>
        <path id="Trazado_195" data-name="Trazado 195" d="M271.145,271.292H285c.1,1.888.228,3.307.228,4.725-.007,11.632.029,23.271-.125,34.9-.037,2.814.669,4.019,3.689,3.792,3.4-.25,6.834-.059,11.029-.059V342.6l.125-.125h-14.1c0-3.924-.1-7.421.037-10.9.1-2.513-.808-3.527-3.387-3.409-3.5.162-7.032.037-11.213.037V271.152l-.132.132Z"/>
        <path id="Trazado_196" data-name="Trazado 196" d="M342.375,242.429v28.62H328.208c0,4.174-.1,7.914.037,11.646.081,2.226-.72,2.917-2.954,2.983-11.1.345-11.1.4-11.191-10.515-.007-1.19-.118-2.381-.2-3.99H300.125v-13.9h23.447q4.938,0,4.938-4.923c.007-3.3.044-6.6.066-9.9l-.147.125h14.064l-.118-.147Z"/>
        <path id="Trazado_197" data-name="Trazado 197" d="M142.6,143.372V114.723H157.37l-.147-.125v14.057h14.057l-.1-.11v28.789l.11-.11H157.1V143.262H142.527l.088.11Z"/>
        <path id="Trazado_198" data-name="Trazado 198" d="M328.583,242.451H285.892V228.8h13.946V214.83h13.843v13.763h14.887l-.132-.088v14.071l.147-.125Z"/>
        <path id="Trazado_199" data-name="Trazado 199" d="M271.1,228.468q.022,21.415.044,42.824l.132-.132H257.3V228.468l-.14.147h14.064l-.118-.147Z"/>
        <path id="Trazado_200" data-name="Trazado 200" d="M428.514,171.257V157.282H414.142V143.519h27.981v27.635H428.412l.1.1Z"/>
        <path id="Trazado_201" data-name="Trazado 201" d="M299.772,171.154v14.755H271.1l.125.1V171.287h28.657l-.11-.132Z"/>
        <path id="Trazado_202" data-name="Trazado 202" d="M428.412,171.162q-.022,7.407-.037,14.821l.118-.118H400.063V171.257h28.451l-.1-.1Z"/>
        <path id="Trazado_203" data-name="Trazado 203" d="M99.975,299.757v-13.7H128.86a1.281,1.281,0,0,1-.1-.088c-.22,4.468-.448,8.92-.683,13.667H99.865l.11.118Z"/>
        <path id="Trazado_204" data-name="Trazado 204" d="M43.022,314.85h27.9V328.2H57.343c-3.909,0-7.833.132-11.727-.1a3.376,3.376,0,0,1-2.476-2.124c-.272-3.622-.118-7.274-.118-11.125Z"/>
        <path id="Trazado_205" data-name="Trazado 205" d="M442.108,386.308c0,8.575.066,16.871-.11,25.152-.015.772-1.521,2.072-2.432,2.168a41.2,41.2,0,0,1-8.406,0c-.889-.1-2.351-1.418-2.366-2.2-.176-8.281-.11-16.569-.11-25.108h13.425Z"/>
        <path id="Trazado_206" data-name="Trazado 206" d="M42.625,171.169H28.892V143.475H42.53v27.8l.1-.1Z"/>
        <path id="Trazado_207" data-name="Trazado 207" d="M370.8,414.193c0,3.534-.073,7.076.029,10.61.059,2.021-.735,2.741-2.755,2.888-10.684.786-10.676.83-10.7-9.9-.007-4.754.073-9.516-.066-14.262-.066-2.234.786-2.917,2.954-3.035,10.574-.566,10.566-.617,10.552,10.045v3.659Z"/>
        <path id="Trazado_208" data-name="Trazado 208" d="M386.014,415.06c1.11-.14,1.7-.272,2.285-.279,3.409-.022,6.819-.007,10.515-.007V442.16c-3.652,0-7.172.125-10.669-.1a3.015,3.015,0,0,1-2.035-2.138c-.147-8.171-.1-16.349-.1-24.858Z"/>
        <path id="Trazado_209" data-name="Trazado 209" d="M427.567,428.559c0,3.667-.037,7.333.015,11,.022,1.808-.625,2.807-2.564,2.608-.242-.022-.492,0-.735,0q-9.685.243-9.685-9.413c0-5.011.066-10.023-.029-15.034-.044-2.175.691-2.939,2.954-3.005,10.067-.309,10.067-.375,10.067,9.809v4.034h-.015Z"/>
        <path id="Trazado_210" data-name="Trazado 210" d="M42.522,171.272H57.387l-.11-.088v14.71H42.566l.088.118q-.011-7.418-.029-14.835l-.1.1Z"/>
        <path id="Trazado_211" data-name="Trazado 211" d="M214.434,285.62V271.754h13.843c0,4.056.1,8.039-.1,12.006-.029.654-1.286,1.741-2.013,1.778-3.755.184-7.517.081-11.727.081Z"/>
        <path id="Trazado_212" data-name="Trazado 212" d="M57,278.647q-.015,6.981-6.907,6.98-7.172,0-7.186-7.047t7.076-7.135q7.091-.088,7.017,7.208Z"/>
        <path id="Trazado_213" data-name="Trazado 213" d="M384.831,157.1c.257-4.46.514-8.92.786-13.623h13.77v13.557H384.728a1.08,1.08,0,0,0,.1.073Z"/>
        <path id="Trazado_214" data-name="Trazado 214" d="M157.37,114.73V99.975h13.9l-.1-.081v14.821l.1-.1H157.23l.147.125Z"/>
        <path id="Trazado_215" data-name="Trazado 215" d="M99.873,299.632q-.011,7.583-.029,15.166s.1-.118.1-.11c-4.453-.235-8.9-.47-13.66-.72V300.4q6.867-.32,13.7-.632l-.11-.125Z"/>
        <path id="Trazado_216" data-name="Trazado 216" d="M200.3,300.375h13.285v13.564H200.3Z"/>
        <path id="Trazado_217" data-name="Trazado 217" d="M256.412,299.632H243.039v-13.4h13.373Z"/>
        <path id="Trazado_218" data-name="Trazado 218" d="M71.657,299.515V286.208H85.111v13.307Z"/>
        <path id="Trazado_219" data-name="Trazado 219" d="M42.272,299.6H29.054V286.252H42.272Z"/>
        <path id="Trazado_220" data-name="Trazado 220" d="M286.274,357.482h12.954v13.2H286.274Z"/>
        <path id="Trazado_221" data-name="Trazado 221" d="M242.429,228.468v13.983H228.461l.14.125V228.5l-.11.11h14.064l-.125-.147Z"/>
        <path id="Trazado_222" data-name="Trazado 222" d="M428.375,185.983h14v13.741H428.485V185.872l-.118.11Z"/>
        <path id="Trazado_223" data-name="Trazado 223" d="M284.988,371.892c0,3.872.184,7.3-.118,10.691a3.672,3.672,0,0,1-2.506,2.476,37.457,37.457,0,0,1-8.413.007,3.467,3.467,0,0,1-2.4-2.256c-1.374-10.963-1.161-11.161,9.787-11.088C282.416,371.723,283.489,371.818,284.988,371.892Z"/>
        <path id="Trazado_224" data-name="Trazado 224" d="M406.728,413.745c-7.914-.066-6.642.632-6.65-6.576s-1.308-6.642,6.576-6.635c8.208.015,6.819-.705,6.812,6.745,0,7.186,1.271,6.378-6.738,6.459Z"/>
        <path id="Trazado_225" data-name="Trazado 225" d="M257.463,414.774c4.181,0,7.723-.125,11.25.1.757.051,1.44,1.389,2.138,2.146.059.066,0,.235.015.36.683,10.309-.749,11.661-11.11,10.177a3.205,3.205,0,0,1-2.19-2.087c-.242-3.38-.1-6.789-.1-10.7Z"/>
        <path id="Trazado_226" data-name="Trazado 226" d="M192.765,442.167c-6.628,0-6.679,0-6.613-6.518.066-6.944-1.095-6.363,6.51-6.363,7.818,0,6.856-.749,6.87,6.8.015,7.208.639,5.974-6.76,6.084Z"/>
        <path id="Trazado_227" data-name="Trazado 227" d="M249.674,442.167c-6.914-.132-6.327,1.19-6.378-6.547v-.367c0-5.981,0-6.011,5.959-5.974,8.149.059,7.01-.867,7.032,7.017C256.309,443.254,257.007,442.035,249.674,442.167Z"/>
        <path id="Trazado_228" data-name="Trazado 228" d="M356.241,435.693c0,6.474,0,6.518-7.025,6.459-6.525-.051-5.981,1.117-5.989-6.841-.007-7-.389-5.989,7.282-6.025,6.694-.037,5.628-.309,5.731,6.415Z"/>
        <path id="Trazado_229" data-name="Trazado 229" d="M142.512,143.269h14.571V157.23h14.189q.011,6.955.029,13.917l.1-.11H157.392v28.752h13.8v14.865l.081-.1H157.23V228.6l.11-.088H142.909v42.721h-14.35v-13.88H99.895V242.458h28.341v-13.6H113.848V214.551h28.209a7.843,7.843,0,0,0,.47-1.683q.011-34.807-.015-69.607Z" fill="#fff"/>
        <path id="Trazado_230" data-name="Trazado 230" d="M228.615,99.946V85.934H214.338V71.5h42.625V43.6h28.15V71.326H271.2c0,4.027.022,7.657,0,11.294q-.132,16.147-.3,32.294l.118-.1H257.147V128.4H242.686V99.851H228.52l.1.1Z" fill="#fff"/>
        <path id="Trazado_231" data-name="Trazado 231" d="M299.882,171.287H271.225V186H242.649V171.617H228.733v14.093H213.9v14.24H200.061V171.39h13.88v-14H299.89v13.895Z" fill="#fff"/>
        <path id="Trazado_232" data-name="Trazado 232" d="M228.512,99.843V128.4H214.184V114.811H200.024l.118.1V100.027H185.887V86.11h27.9V99.946h14.821l-.1-.1Z" fill="#fff"/>
        <path id="Trazado_233" data-name="Trazado 233" d="M228.608,228.5v14.071H185.542V228.512H171.184l.088.081V214.558l-.081.1H185.5V228.5h43.1Z" fill="#fff"/>
        <path id="Trazado_234" data-name="Trazado 234" d="M242.554,228.615H228.49V214.72H213.772V199.841h28.782v28.774Z" fill="#fff"/>
        <path id="Trazado_235" data-name="Trazado 235" d="M171.169,157.34V128.551h14.3v14.527h14.159V157.34H171.169Z" fill="#fff"/>
        <path id="Trazado_236" data-name="Trazado 236" d="M313.733,71.319q-7.043-.143-14.086-.294l.1.118V43.492h13.88V71.436l.118-.125Z" fill="#fff"/>
        <path id="Trazado_237" data-name="Trazado 237" d="M171.3,171.14h13.932V185.7H171.39V171.037Z" fill="#fff"/>
        <path id="Trazado_238" data-name="Trazado 238" d="M299.765,114.752h-14v-14.4h13.91v14.512l.1-.11Z" fill="#fff"/>
        <path id="Trazado_239" data-name="Trazado 239" d="M171.169,114.708V99.887h14.064v14.821H171.162Z" fill="#fff"/>
        <path id="Trazado_240" data-name="Trazado 240" d="M299.647,71.025V85.574H285.9V71.157h13.858l-.1-.125Z" fill="#fff"/>
        <path id="Trazado_241" data-name="Trazado 241" d="M270.9,114.914h14.284v13.579H271.027V114.8l-.125.11Z" fill="#fff"/>
        <path id="Trazado_242" data-name="Trazado 242" d="M200.032,114.811v13.667H185.858V114.906h14.284l-.11-.1Z" fill="#fff"/>
        <path id="Trazado_243" data-name="Trazado 243" d="M157.216,114.605h14.049v14.057H157.208V114.605Z" fill="#fff"/>
        <path id="Trazado_244" data-name="Trazado 244" d="M371.127,328.23V371.3c-1.249.132-2.528.389-3.8.4-11.757.029-23.513-.066-35.27.073-3.152.037-4.291-.882-4.225-4.159.242-12,.213-24.006.309-36,.015-1.521-.411-3.387,2.131-3.38C343.734,328.238,357.188,328.23,371.127,328.23Zm-14.879,15.085c-12.5-2.2-14.1-.889-13.454,10.61.015.242-.1.581.029.72.625.705,1.279,1.91,1.977,1.947,3.74.191,7.495.088,11.448.088Z" fill="#fff"/>
        <path id="Trazado_245" data-name="Trazado 245" d="M371.083,271.225h14.483V285.62H399.7v28.789H356.887V299.86h14.277V271.152l-.073.073Z" fill="#fff"/>
        <path id="Trazado_246" data-name="Trazado 246" d="M328.436,242.576V228.5h14.057v14.071H328.429Z" fill="#fff"/>
        <path id="Trazado_247" data-name="Trazado 247" d="M43.786,44.109h69.371v69.563H43.786ZM57.35,57.424V99.836H99.682V57.424H57.35Z" fill="#fff"/>
        <path id="Trazado_248" data-name="Trazado 248" d="M357.967,44.1h69.364v69.57H357.967ZM371.3,99.843h42.39V57.5H371.3Z" fill="#fff"/>
        <path id="Trazado_249" data-name="Trazado 249" d="M114.1,392.833c0,10.4-.081,20.817.051,31.221.037,2.954-.8,4.056-3.931,4.034q-31.765-.176-63.537,0c-3.027.015-3.667-1.08-3.652-3.836q.176-31.589.088-63.177c-.015-3.16,1.154-3.916,4.071-3.9q31.4.132,62.8,0c3.086-.015,4.027,1.095,3.99,4.078-.125,10.53-.051,21.059-.051,31.589h.169Zm-56.535-20.9c0,13.278.044,26.129-.044,38.981-.015,2.4,1.087,2.851,3.123,2.844,11.874-.044,23.756-.066,35.63.022,2.513.015,3.417-.794,3.4-3.387-.1-11.757-.1-23.513.066-35.27.044-2.947-1.227-3.446-3.711-3.431-11.757.066-23.513.022-35.27.037-.955,0-1.91.125-3.2.213Z" fill="#fff"/>
        <path id="Trazado_250" data-name="Trazado 250" d="M42.566,185.894h14.71v-14.71H71.23V185.52H99.762V171.537c4.872-.22,9.332-.419,13.8-.617l-.059-.066c.213,3.373.463,6.745.639,10.125.073,1.433.015,2.873.015,4.769H128.4v14.167H113.951v14.74h-13.9v-14.3h-14.2v14.306H71.23V200.083H42.574V185.894Z" fill="#fff"/>
        <path id="Trazado_251" data-name="Trazado 251" d="M113.562,170.927c.287-4.431.58-8.862.882-13.535h13.91v14.152c-5.011-.228-9.927-.448-14.843-.676C113.5,170.868,113.562,170.927,113.562,170.927Z" fill="#fff"/>
        <path id="Trazado_252" data-name="Trazado 252" d="M271.218,228.615H257.154V214.647h14.064v13.961Z" fill="#fff"/>
        <path id="Trazado_253" data-name="Trazado 253" d="M171.279,257.286H157.333V228.52l-.11.088q7.021,0,14.042-.007l-.088-.081q.055,14.383.1,28.767Z" fill="#fff"/>
        <path id="Trazado_254" data-name="Trazado 254" d="M171.265,228.6q-7.021,0-14.042.007V214.566h14.042V228.6Z"/>
        <path id="Trazado_255" data-name="Trazado 255" d="M356.248,343.316v13.366c-3.953,0-7.708.1-11.448-.088-.7-.037-1.352-1.242-1.977-1.947-.125-.14-.015-.478-.029-.72C342.147,342.434,343.749,341.126,356.248,343.316Z"/>
        <path id="Trazado_256" data-name="Trazado 256" d="M57.358,57.424H99.689V99.836H57.358V57.424Z"/>
        <path id="Trazado_257" data-name="Trazado 257" d="M371.3,99.836V57.49h42.39V99.836Z"/>
        <path id="Trazado_258" data-name="Trazado 258" d="M57.563,371.936c1.293-.088,2.248-.213,3.2-.213,11.757-.015,23.513.037,35.27-.037,2.491-.015,3.755.485,3.711,3.431-.169,11.757-.162,23.513-.066,35.27.022,2.594-.882,3.409-3.4,3.387-11.874-.088-23.756-.066-35.63-.022-2.035.007-3.145-.441-3.123-2.844.088-12.851.044-25.7.044-38.981Z"/>
      </g>
    </g>
  </g>
</svg>
