<svg xmlns="http://www.w3.org/2000/svg" width="112" height="141" viewBox="0 0 112 141">
  <g id="Grupo_101" data-name="Grupo 101" transform="translate(-1099 -399)">
    <path id="Trazado_92" data-name="Trazado 92" d="M0,0H112V141H0Z" transform="translate(1099 399)" opacity="0.6"/>
    <path id="Trazado_259" data-name="Trazado 259" d="M21.94,19.88v1.76a6.342,6.342,0,0,1-.5,2.5,6.916,6.916,0,0,1-1.38,2.1A6.653,6.653,0,0,1,18,27.7a6.031,6.031,0,0,1-2.54.54,9.134,9.134,0,0,1-2.36-.32,5.583,5.583,0,0,1-2.16-1.12,6.193,6.193,0,0,1-1.58-2.06,7.293,7.293,0,0,1-.62-3.22V5.84a6.936,6.936,0,0,1,.48-2.6,6.119,6.119,0,0,1,1.36-2.08,6.322,6.322,0,0,1,2.1-1.38,7.056,7.056,0,0,1,2.7-.5,6.187,6.187,0,0,1,4.68,1.88,6.679,6.679,0,0,1,1.38,2.18,7.362,7.362,0,0,1,.5,2.74v1.6H17.86V6.32a3.3,3.3,0,0,0-.68-2.08,2.2,2.2,0,0,0-1.84-.88,2.073,2.073,0,0,0-2.02.94,5.038,5.038,0,0,0-.5,2.38V21.24a3.771,3.771,0,0,0,.54,2.08,2.127,2.127,0,0,0,1.94.84,2.963,2.963,0,0,0,.86-.14,2.566,2.566,0,0,0,.86-.46,2.441,2.441,0,0,0,.6-.88,3.565,3.565,0,0,0,.24-1.4v-1.4ZM25.02,6.24a7.277,7.277,0,0,1,.6-3.04A6.424,6.424,0,0,1,27.22,1,6.764,6.764,0,0,1,29.4-.28,7.261,7.261,0,0,1,36.54,1,6.7,6.7,0,0,1,38.1,3.2a7.277,7.277,0,0,1,.6,3.04V21.28a7.21,7.21,0,0,1-.6,3.08,6.354,6.354,0,0,1-1.56,2.12,6.859,6.859,0,0,1-2.22,1.32,7.1,7.1,0,0,1-4.92,0,6.418,6.418,0,0,1-2.18-1.32,6.107,6.107,0,0,1-1.6-2.12,7.21,7.21,0,0,1-.6-3.08ZM29.1,21.28a2.712,2.712,0,0,0,.82,2.18,3.038,3.038,0,0,0,3.88,0,2.712,2.712,0,0,0,.82-2.18V6.24a2.712,2.712,0,0,0-.82-2.18,3.038,3.038,0,0,0-3.88,0,2.712,2.712,0,0,0-.82,2.18ZM44.5,28V3.36H39.78V-.48H53.3V3.36H48.58V28Zm10.72,0V-.48H59.3V28Zm6.72,0V24.4L69.62,3.36H62.34V-.48H74.06V2.76l-7.84,21.4h7.84V28Zm22.88-9.96-2-10.32h-.08l-2,10.32ZM74.74,28,81.1-.48h3.4L90.86,28H86.78l-1.2-6.12H80.02L78.82,28ZM11.02,55.04l-2-10.32H8.94l-2,10.32ZM.94,65,7.3,36.52h3.4L17.06,65H12.98l-1.2-6.12H6.22L5.02,65ZM22.9,58.28a2.712,2.712,0,0,0,.82,2.18,2.892,2.892,0,0,0,1.94.7,2,2,0,0,0,.88-.16L24.7,59.52l2.08-2.48,1.64,1.32V43.24a2.712,2.712,0,0,0-.82-2.18,3.038,3.038,0,0,0-3.88,0,2.712,2.712,0,0,0-.82,2.18ZM18.82,43.24a7.277,7.277,0,0,1,.6-3.04,6.424,6.424,0,0,1,1.6-2.2,6.764,6.764,0,0,1,2.18-1.28A7.261,7.261,0,0,1,30.34,38a6.7,6.7,0,0,1,1.56,2.2,7.277,7.277,0,0,1,.6,3.04V58.28a6.637,6.637,0,0,1-.6,2.92l2.52,2.04-2.08,2.48-2.4-1.96a6.629,6.629,0,0,1-4.28,1.48,7.205,7.205,0,0,1-2.46-.44,6.418,6.418,0,0,1-2.18-1.32,6.107,6.107,0,0,1-1.6-2.12,7.21,7.21,0,0,1-.6-3.08ZM49.3,36.52V58.6a6.447,6.447,0,0,1-1.92,4.68,6.788,6.788,0,0,1-2.12,1.44,6.369,6.369,0,0,1-2.56.52,6.228,6.228,0,0,1-2.54-.52,6.946,6.946,0,0,1-3.54-3.54,6.327,6.327,0,0,1-.52-2.58V36.52h4.08V58.2a3.055,3.055,0,0,0,.72,2.24,2.61,2.61,0,0,0,3.6,0,3.055,3.055,0,0,0,.72-2.24V36.52ZM53.26,65V36.52h4.08V65ZM52.7,35.24l3.6-5.64h4.32l-5.28,5.64ZM71.42,65V40.36H66.7V36.52H80.22v3.84H75.5V65Zm23.8-28.48V58.6a6.447,6.447,0,0,1-1.92,4.68,6.788,6.788,0,0,1-2.12,1.44,6.369,6.369,0,0,1-2.56.52,6.228,6.228,0,0,1-2.54-.52,6.946,6.946,0,0,1-3.54-3.54,6.327,6.327,0,0,1-.52-2.58V36.52H86.1V58.2a3.055,3.055,0,0,0,.72,2.24,2.61,2.61,0,0,0,3.6,0,3.055,3.055,0,0,0,.72-2.24V36.52Z" transform="translate(1105 414)" fill="#fcf7f7" stroke="#fcf7f7" stroke-width="1"/>
    <path id="Trazado_260" data-name="Trazado 260" d="M6.37,39V-.16h8.415a12.51,12.51,0,0,1,4.07.6,7.808,7.808,0,0,1,3.19,2.145,8.388,8.388,0,0,1,1.98,3.6,22.529,22.529,0,0,1,.55,5.582,27.691,27.691,0,0,1-.3,4.455,9.314,9.314,0,0,1-1.292,3.41,8.189,8.189,0,0,1-3.08,3,10.366,10.366,0,0,1-5.06,1.073H11.98V39ZM11.98,5.12V18.43h2.695a5.733,5.733,0,0,0,2.64-.495A3.115,3.115,0,0,0,18.69,16.56a5.026,5.026,0,0,0,.523-2.035q.082-1.21.082-2.695,0-1.375-.055-2.612a5.652,5.652,0,0,0-.5-2.172,3.123,3.123,0,0,0-1.32-1.43,5.24,5.24,0,0,0-2.53-.5ZM28.755,39V-.16h5.61V33.39h11.11V39Zm31.68-13.695-2.75-14.19h-.11l-2.75,14.19ZM46.575,39,55.32-.16H60L68.74,39H63.13l-1.65-8.415H53.835L52.185,39Zm24.7,0V-.16h5.39l8.47,23.6h.11V-.16h5.61V39H85.57L76.99,15.46h-.11V39Z" transform="translate(1106 485)" fill="#fcf7f7" stroke="#fcf7f7" stroke-width="1"/>
  </g>
</svg>
