<svg id="Icon_ionic-ios-arrow-dropleft-circle" data-name="Icon ionic-ios-arrow-dropleft-circle" xmlns="http://www.w3.org/2000/svg" width="70" height="70" viewBox="0 0 70 70">
  <path id="Icon_ionic-ios-arrow-dropleft-circle-2" data-name="Icon ionic-ios-arrow-dropleft-circle" d="M38.375,3.375a35,35,0,1,0,35,35A34.995,34.995,0,0,0,38.375,3.375Zm7.3,48.647a3.26,3.26,0,0,1,0,4.594,3.208,3.208,0,0,1-2.288.942,3.264,3.264,0,0,1-2.305-.959L25.267,40.731a3.244,3.244,0,0,1,.1-4.476l16.053-16.1a3.248,3.248,0,0,1,4.594,4.594L32.233,38.375Z" transform="translate(-3.375 -3.375)" fill="#1d0"/>
</svg>
