<svg xmlns="http://www.w3.org/2000/svg" width="39.85" height="55.79" viewBox="0 0 39.85 55.79">
  <path id="Icon_material-touch-app" data-name="Icon material-touch-app" d="M18.416,26.391V16.455a6.642,6.642,0,0,1,13.283,0v9.936a11.955,11.955,0,1,0-13.283,0Zm26.142,12.3-12.061-6a3.741,3.741,0,0,0-1.435-.292H29.042V16.455a3.985,3.985,0,0,0-7.97,0V44.988L11.96,43.075a4.643,4.643,0,0,0-.638-.08,2.972,2.972,0,0,0-2.1.877L7.125,46,20.249,59.121a4,4,0,0,0,2.816,1.169H41.1a3.87,3.87,0,0,0,3.826-3.4l1.993-14a3.818,3.818,0,0,0-2.364-4.2Z" transform="translate(-7.125 -4.5)" fill="#faf5f5"/>
</svg>
