<?xml version="1.0" encoding="utf-8"?>
<!-- Generator: Adobe Illustrator 27.3.1, SVG Export Plug-In . SVG Version: 6.00 Build 0)  -->
<svg version="1.1" id="Capa_1" xmlns="http://www.w3.org/2000/svg" width="271" height="113" xmlns:xlink="http://www.w3.org/1999/xlink" x="0px" y="0px"
	 viewBox="0 0 5402.6 2303.1" style="enable-background:new 0 0 5402.6 2303.1;" xml:space="preserve">
<style type="text/css">
	.st0{fill:#FFFFFF;}
</style>
<path class="st0" d="M2682.6,1044.6c1-10.6,6.3-20.2,7-30.9c3.1-0.5,3.5-2.6,3-5.2c1-5.6,2.1-11.2,3.1-16.8c3-0.5,3.4-2.6,3-5.1
	c1-10.6,6.3-20.2,7-30.9c3.1-0.5,3.4-2.6,3-5.2c1-5.6,2.1-11.2,3.1-16.8c2.2-0.5,4.2-1,2-3.8c0.1-1.4,0.1-2.8,0.2-4.2
	c4.6-2.5,4.5-7,4.7-11.3c2.1-8.5,2-17.6,6.3-25.5c3.2-5.9,2.4-12.7,4.3-19c6-20,9.6-40.8,16.4-60.6c6.6-19,8.9-39.1,15.9-57.8
	c7.1-18.9,9.8-38.7,15.7-57.8c1.4-4.7,3-9.2,5.3-13.5c3.3-6.2,3.4-13.4,4.4-20c1.2-7.7,6-13.8,6.8-21.3c0.3-3,2.3-3.7,4.9-3.7
	c2.3,0,4.7,0,7,0c100.6,0,201.2,0,301.8,0c20,0,40,0.2,59.7,4.4c18.9,4,37.3,9.3,53,21.2c18.9,14.3,28.8,33.7,30.8,57.1
	c3.1,36.8-5.8,71.4-20.6,104.6c-13,29.3-32.1,54.2-57.5,74.1c-8.9,6.9-18.7,12.4-28.1,18.1c0.2,1.2,0.1,2.1,0.4,2.4
	c16.9,15,22,35,23.6,56.3c1.6,21.8-0.9,43.3-6.2,64.4c-7,27.4-13.2,54.8-17.4,82.8c-0.7,4.5-2.1,6.3-6.8,6.3
	c-40.3-0.3-80.6-0.3-120.9-0.5c-0.5-1.3-1.3-2.3-2.7-2.7c1.5-20.2,3.6-40.4,6.4-60.4c1.2-8.3,5.6-15.9,7-24.3
	c2.9-17.2,4.9-34.3,0.7-51.5c-3-12.4-9.3-23-20.2-29.8c-13.3-8.3-28-12.8-43.7-14.1c-17.6-1.4-35.3-1.2-52.9-1.2
	c-25,0-49.9,0-74.9,0c-7.7,0-8.1,0.6-10.1,7.9c-10.3,37.6-20.6,75.2-30.9,112.8c-5.1,18.5-10,36.9-15.2,55.4
	c-2.3,8.4-2.5,8.4-11.4,8.4c-32.6,0-65.3,0-97.9-0.2c-3.5,0-7.3,0.9-10.9-1.5c-0.4-6,3.3-11.4,3-17.4c3-0.5,3.4-2.6,3-5.1
	c1-10.6,6.2-20.2,7-30.9c3.1-0.5,3.5-2.6,3-5.2c1-5.6,2.1-11.2,3.1-16.8C2682.7,1049.1,2683.1,1047.1,2682.6,1044.6L2682.6,1044.6z
	 M2860.9,835.8c3.5,0,6.8,0,10.1,0c23.6,0,47.3,0,70.9,0c30,0,59.9,0,89.9,0c16.6,0,32.4-3.6,46.3-13.2c14.9-10.4,23-24.6,23.3-42.9
	c0.2-10.7-4.9-18.5-14.1-23.5c-8.1-4.3-16.8-6.2-25.9-6.2c-57.2,0-114.5,0-171.8-0.1c-5.2,0-7.5,1.5-8.9,6.8
	c-6.2,23.8-13,47.5-19.4,71.2C2860.6,829.8,2859.7,832.1,2860.9,835.8L2860.9,835.8z"/>
<path class="st0" d="M4781,810c1.7-0.8,1.9-2.1,1.4-3.7c0.4-0.9,0.8-1.7,1.1-2.6c2.7-1,2.8-3.6,3.4-5.7c3.4-12.4,10-23.5,14.3-35.6
	c8.1-23,22-42.7,36-62.2c7.5-10.4,15.5-21.2,27-28.2c2.1-0.6,3.7-1.9,4.8-3.8c14.9-10.3,30.7-18.8,48.1-24.1
	c21.9-6.6,44.3-8.8,67-8.8c94.3,0,188.6,0,282.8,0c2,0,4-0.4,6.5,1.2c0,8.7-4.1,16.8-6.2,25.2c-6.8,26.3-14.2,52.3-21.5,78.5
	c-1.8,6.4-6,9.6-12.6,9.6c-83,0-165.9,0-248.9,0c-11.9,0-23.8-0.3-35.2,3.7c-7.7,2.6-14.8,6.4-18.7,13.6
	c-9.6,17.5-14.8,36.5-19.1,56.9h309.4c0.5,1.7,1.1,2.7,0.9,3.4c-9.1,32.8-18.4,65.7-27.2,98.6c-1.1,4.3-3,5.4-6.8,5.2
	c-2.3-0.1-4.7,0-7,0c-95.3,0-190.6,0-285.8,0c-2,0-4,0-6,0c-8.1,0.1-8.3,0.1-10.1,7.6c-3.3,13.5-6.5,27.1-9.4,40.7
	c-0.9,4.2-1.1,8.6-1.1,12.9c0,11.5,4.7,17.2,16.2,19.1c6.2,1,12.6,1.7,18.9,1.8c20.3,0.3,40.6,0.2,61,0.2c64.6,0,129.3,0,193.9,0
	c3.6,0,7.3,0,11.4,0c-1.1,10.9-4.7,20.4-7.4,30.1c-6.7,24.9-13.5,49.9-20.5,74.8c-2.3,8.1-2.6,8.1-10.7,8.2c-12,0.1-24,0.2-36,0.2
	c-84,0-167.9,0.1-251.9-0.1c-17.3,0-34.6-1.1-51.6-4.9c-6.8-1.5-13.5-3.3-20.1-5.2c-8.6-2.5-14.5-10-21.4-15.6
	c-15.8-12.9-18.3-31-19.5-49.6c-1.5-24.5,2.1-48.5,6.6-72.4c4-20.9,6.9-42.1,14-62.2c3.5-10.1,4.7-20.7,8.6-30.7
	c2.6-6.8,2.9-14.5,5.1-21.7c1.1-3.7,1.8-7.4,3.4-11c5.8-13.3,8.3-27.6,12.4-41.4C4780.6,811.4,4780.8,810.6,4781,810L4781,810z"/>
<path class="st0" d="M1227.4,675.8c1.9,0.3,3.1-1,4.4-2c34.6-26.9,74-38.7,117.6-38.6c105.9,0.2,211.9,0.1,317.8,0.1
	c2.6,0,5.3-0.6,7.8,1c1.1,3.8-0.8,7.2-1.7,10.6c-8.2,30.1-16.7,60-24.7,90.2c-1.6,6-4.8,6.7-10,6.7c-49.3-0.2-98.6-0.1-147.9-0.1
	c-50.6,0-101.3-0.1-151.9,0c-30.2,0.1-52.6,21.6-53.9,51.6c-0.8,17.3,8.7,27.8,26.1,28.5c9.3,0.4,18.7,0.1,28,0.1
	c55,0,109.9-0.1,164.9,0.1c22.6,0.1,44,5,63.3,17.8c22.6,15,36.1,35.9,42,61.8c10,43.8-2.4,83.6-23.2,121.5
	c-16.3,29.8-39.4,53.5-67.6,72.2c-14.1,9.4-29.5,16.2-45.6,21.6c-18.1,6.1-36.8,7.7-55.7,7.7c-105.3,0.1-210.5,0.2-315.8,0.2
	c-4.9,0-11.7,2.1-14.2-1.5c-3-4.2-0.3-11.5,1.6-15.9c3.3-7.7,6.1-15.6,7.3-23.5c1.7-11.4,6.3-21.9,8.6-33.1
	c2.2-10.3,6.5-20.6,9.1-31.2c0.7-2.7,2.5-3.8,5.1-3.8c2.7,0,5.3,0,8,0c99.9,0,199.9-0.1,299.8,0.1c11.3,0,22.2-1.7,31.4-8.2
	c11.3-8,21.9-17,26.9-30.8c10.2-27.8-8-48.1-32.8-47.8c-54.6,0.8-109.3,0.2-163.9,0.3c-23.3,0-46.6-0.1-69.1-7.8
	c-11.1-3.8-20.8-9.8-29.9-17c-7.6-6-14.5-13.2-19.3-21.3c-6.1-10.3-12.9-20.7-13.8-33.7c-1-13.9-2.8-27.7-1.2-41.8
	c4.2-36.1,18.2-68,39.2-97.2c7.6-10.5,16.6-19.7,25.8-28.7c2.1-2,5.2-3.2,5.6-6.6C1226.1,676.8,1226.7,676.3,1227.4,675.8
	L1227.4,675.8z"/>
<path class="st0" d="M2182.5,843.6c3.2-1.5,3.1-5,4.1-7.6c5.6-13.6,9.8-27.9,16.6-40.8c12.2-23.1,26-45.4,43-65.4
	c5.6-6.6,9.8-14.2,16.3-20c14.5-13,29.9-24.8,46.2-35.5c35.2-23.1,74.4-35.4,115.4-42.4c35.6-6.1,71.5-7.2,107.5-5.7
	c28.3,1.2,56.4,4.8,83.4,13.8c25.1,8.4,48.3,20.4,66,40.9c17.8,20.6,26.6,45,29.9,71.7c4.1,33.8-0.4,66.9-7.6,100
	c-7.2,32.9-16.9,64.9-30.3,95.7c-20.1,46.4-47.7,87.5-87.1,120c-37,30.5-79.5,49.5-126.1,59c-58.3,11.9-116.8,12.5-175.7,3.1
	c-13-2.1-25.2-6.4-37.5-10c-15.9-4.6-29.2-15.5-43.3-24.4c-12.8-8-20-20.2-27.6-31.7c-9.4-14.2-14.2-31.1-16.6-48.2
	c-0.6-4.6-3.3-9-3.2-13.3c0.7-32.8,1.6-65.7,10.1-97.7c3.1-11.9,6.3-23.8,9.4-35.7c2-7.8,4-15.5,5.9-23.3
	C2181.7,845.3,2182.1,844.5,2182.5,843.6L2182.5,843.6z M2393.6,1029.8c11.6,0.2,24.2-0.5,36.8-2.1c40.1-5.3,72.4-23.3,95-57.5
	c5.9-8.9,11.1-18.2,15.6-27.9c12.9-27.9,21.5-57.2,28.3-87.1c4.3-19.2,7-38.6,5.9-58.4c-1.6-29.9-16.4-48.8-45.1-57.8
	c-1.6-0.5-3.2-1-4.8-1.3c-37.4-7.8-74.7-7.5-111.6,3.2c-23.9,7-43.8,20.6-60,39.5c-9.8,11.5-17.7,24.1-24.4,37.6
	c-14.2,28.8-23.1,59.5-30.2,90.7c-4.4,19.5-7.2,39.2-6.2,59.4c1.5,29.3,16.1,47.7,44.2,55.7C2355.3,1029,2373.8,1030,2393.6,1029.8
	L2393.6,1029.8z"/>
<path class="st0" d="M1896.2,635.5c46.6,0,93.2,0,139.9,0c26.8,0,53,3.7,78.2,12.8c13.4,4.8,26.1,11.4,36.9,21.1
	c21.9,19.5,30.4,44.6,30.8,73.1c0.5,31.8-7.3,62-19,91.3c-8.4,21.2-19.8,40.6-34.7,57.9c-27.4,31.9-62.3,51.4-102.5,62
	c-26.2,6.9-52.9,10.1-80,10.1c-58.6,0-117.2,0-175.9,0c-10.1,0-10.3,0-13.1,10.1c-9.2,33.2-18.3,66.4-27.5,99.6
	c-4.2,15.3-8.6,30.6-12.6,46c-1.4,5.3-4,7.3-9.7,7.2c-34.6-0.2-69.3,0-103.9,0.1c-6.8,0-9.6-2.7-6.6-8.5c5.5-10.7,7.4-22.4,9.8-33.6
	c3.3-15,8.4-29.5,11.9-44.4c3.2-13.2,8.4-26.4,11.5-39.9c3.1-13.4,8.8-26,10.1-39.9c0.4-4.3,3.9-8.8,5-13.6
	c1.7-7.7,3.4-15.6,5.3-23.2c1.8-7.2,4.1-14.3,5.8-21.6c1.3-5.5,4.6-10.8,5.6-16.7c2.4-13.9,8.8-26.7,10.2-40.9
	c0.4-4.4,4-8.8,5.1-13.7c1.7-7.8,3.3-15.6,5.3-23.2c1.9-7.2,4.2-14.2,5.8-21.6c1.1-5.1,4.1-10.2,5.5-15.7c1.9-7,2.7-14.5,4.8-21.2
	c2.1-6.9,4.3-13.5,5.6-20.7c0.9-4.8,3.6-9.7,5.4-14.6c2.4-6.6,1.3-13.8,4.2-20.2c6.1-13.5,7.6-28.3,12.8-42c1-2.7,1.3-5.8,1.6-8.8
	c0.7-7,1.2-7.7,8.4-7.8c5.3-0.1,10.7,0.2,16,0.2c48,0,95.9,0,143.9,0C1896.2,635.3,1896.2,635.4,1896.2,635.5L1896.2,635.5z
	 M1791.1,854.7c2.9,1.4,5.9,0.8,8.9,0.8c55.6,0,111.2-0.4,166.9,0.2c31.1,0.3,62.6-23,69.8-57.6c4.8-22.9-6.9-41-29.6-46.8
	c-5.2-1.3-10.5-1.6-15.8-1.6c-37.3,0-74.6,0-111.9,0c-18,0-36,0.1-53.9-0.1c-5,0-7.3,1.2-8.8,6.8c-7.7,29.6-16,59.1-24.2,88.6
	C1791.6,848.2,1790.2,851.3,1791.1,854.7L1791.1,854.7z"/>
<path class="st0" d="M4395.4,672.3c9.1-6.1,18.1-12.5,28.4-16.5c18.5-7.2,37.5-12.6,57.1-16c21.7-3.7,43.7-4.6,65.7-4.6
	c83.9,0,167.9,0,251.8,0c3,0,5.9,0.2,8.6,0.4c1.9,3.2,0.1,5.7-0.7,8c-2.4,6.3-2.6,13.2-4.7,19.5c-2.2,6.4-5.6,12.5-4.4,19.7
	c-7.1,13.7-8.9,29-13.5,43.5c-1.4,4.3-2.8,8.6-3.1,13.3c-0.6,7-3.6,9.5-10.2,9.7c-2,0-4,0-6,0c-85.9,0-171.9,0-257.8,0
	c-11.3,0-22.6-0.2-33.8,2.2c-18.6,3.9-28.7,16.2-34.9,33.2c-3.6,9.9-7.5,19.7-10.2,29.9c-0.8,2.9-2.2,5.6-0.9,9.5h329
	c-0.8,10.2-4.6,18.6-6.9,27.4c-6.4,24-13,47.8-19.5,71.8c-2.3,8.4-2.2,8.5-11.4,8.5c-103.6,0-207.2,0-310.8,0
	c-12.4,0-12,0.1-15.3,12.3c-6.5,24.3-13.5,48.5-20.2,72.7c-5.9,21.3-11.6,42.7-17.5,64.1c-3.7,13.4-7.7,26.7-11,40.2
	c-1.3,5.6-4.7,5.5-8.9,5.5c-21,0-42,0.2-63,0.2c-13.3,0-26.6,0-40,0c-3.2,0-6.6,0.4-9.7-0.7c2.1-11,6.1-21.1,9-31.4
	c3.8-13.4,8.7-26.6,10.3-40.5c0.7-5.7,4.6-10.2,5.3-15.4c1.6-12.4,7.5-23.6,9.1-36.1c0.8-6.1,2.5-13,5.9-19.1
	c4-7.1,3.2-15.9,5.7-23.7c3.8-11.6,4.6-24,10.7-35c3.7-6.6,2.9-14.7,5.1-21.9c3.8-12.2,5.2-25.1,11.1-36.8c2.8-5.6,2-12.3,3.9-18.3
	c6.3-20,12.6-40.1,19.5-59.9c4.8-13.9,8.9-28.3,16.1-41c7.3-12.9,14.1-26.3,23.8-38.1c7.3-9,16.9-15.7,23.1-25.6
	c2.3-3.7,7.9-3.5,10.3-7.4C4392.6,675.5,4394.2,674.2,4395.4,672.3L4395.4,672.3z"/>
<path class="st0" d="M3758.6,637.8c-4.1,21.2-11.4,41.6-16.7,62.5c-2.8,11.2-6.1,22.3-9.2,33.5c-2.3,8.1-2.3,8.2-10.7,8.2
	c-50.6,0-101.3,0-151.9,0c-12.8,0-12.8,0-16.3,12.5c-10.2,36.6-20.6,73.2-30.7,109.8c-11.5,41.8-22.7,83.6-34.2,125.4
	c-9.7,35.4-19.8,70.6-29.5,106c-2.2,8-4.7,15.9-6.4,24c-1.3,6.2-4.1,7.2-9.5,7.2c-26.6-0.2-53.3-0.1-79.9-0.1c-9.3,0-18.6,0-28,0
	c-3.6,0-5-0.4-3.7-5.2c2.5-9,4.4-18.1,8.7-26.6c2.7-5.4,2.2-11.6,3.5-17.3c2.1-9.4,5.8-18.2,7.3-27.8c0.8-5,4.4-9.5,5.4-14.5
	c2.9-14,8.8-27.2,10.3-41.5c0.6-6.1,4.8-10.6,5.9-16.4c2.5-14.1,8.7-27.3,10.1-41.5c0.6-6.1,4.8-10.6,5.8-16.4
	c2.5-14.1,8.3-27.3,10.3-41.5c0.6-4.1,3.4-8.2,3.8-11.7c1.4-12.9,8.1-24.1,10.4-36.7c2.6-14.8,5.6-29.5,12.1-43.3
	c3-6.4,2.9-13.5,4.6-20.2c1.9-7.7,4.3-15.3,6.6-23.4c-3.8-1.3-7.4-0.7-10.9-0.7c-50,0-99.9,0-149.9,0c-11.9,0-12.9-1.1-8.8-12.3
	c2.2-6.1,4.4-12,4.9-18.7c0.4-4.6,3-9.2,5.2-13.5c2.9-5.8,1.8-12.2,3.5-18.3c2.1-7.6,6.3-14.3,7.8-22c1-5.1,0.2-10.5,3.1-15.2
	c3.4-0.6,3.4-3.2,3.3-5.7c2.6-0.1,5.3-0.4,8-0.4c148.9,0,297.8,0,446.8,0c2.3,0,4.6,0.2,7,0.3C3757.3,636.6,3758,637.2,3758.6,637.8
	L3758.6,637.8z"/>
<path class="st0" d="M3897.9,636.3c-3.8,20-10.5,39.1-15.7,58.7c-5.6,21.5-12.2,42.7-17.7,64.2c-2.4,9.4-5.4,18.5-8,27.8
	c-2.6,9.2-5.4,18.5-7.5,27.8c-3,13.6-7.9,26.7-11.1,40.2c-3.2,13.5-8.2,26.7-11.3,40.2c-4.1,18.2-10.3,35.9-13.1,54.4
	c-1.4,8.9-2.3,17.8-1.7,26.8c1.4,21.8,12.6,35.7,33.9,41.4c17.1,4.6,34.7,5.9,52.4,5.9c53.3,0,106.6,0,159.9,0
	c3.6,0,7.3-0.6,11.8,0.9c-3,10.8-6,21.6-8.9,32.4c-5.7,20.7-11.5,41.4-17,62.2c-1.4,5.4-3.7,7.5-9.6,7.4
	c-69.3-0.6-138.6,1.1-207.8-1c-20.9-0.6-41.7-3-61.8-10.3c-14.7-5.3-28.5-12.2-40.5-21.9c-5.9-4.7-11.5-10.5-15.6-17.4
	c-5.4-9.3-12.9-17.6-15.6-28.2c-4-15.7-6-31.8-5.6-48c0.4-18,3-35.7,6.6-53.4c4.8-23,11.6-45.5,16.8-68.4c6.9-9,4.5-21,10-30.4
	c2.9-5,2.4-10.9,3.3-16.3c1.8-11.3,10.1-20.8,8.7-32.8c8.3-12.9,5.1-29.3,13.1-42.5c1.9-3.1,0.4-8,1.9-11.5
	c7.9-18.3,8.6-38.5,15.6-56.8c4.4-11.3,5.9-23.2,10.8-34.2c1.5-3.3,2.8-7.2,2.5-10.6c-0.6-6,2-7.6,7.3-7.6
	c37,0.1,73.9,0.1,110.9,0.2C3895.9,635.4,3896.8,636,3897.9,636.3L3897.9,636.3z"/>
<path class="st0" d="M4062.4,1125.9c3.5-12.7,3-25.4,9.8-36.2c0.7-1.1,0.7-2.6,1-3.8c2.6-13.4,8.2-26,9.7-39.6
	c0.7-6.4,4.9-11.3,6-17.3c2.6-14,8.6-27.2,10.2-41.5c0.4-3.7,1.8-7.3,3.8-10.8c4.3-7.5,3.5-16.5,6.1-24.6c3.8-11.6,4.7-24,10.7-34.9
	c3.6-6.7,3-14.6,5.2-21.9c3.7-12.3,5.6-25,11-36.9c3-6.7,3.3-14.6,5.2-21.8c3.2-12.1,5.3-24.4,10.7-35.9c3.1-6.7,3.6-14.5,5.4-21.8
	c3-12.1,5.4-24.3,10.5-35.9c3.1-7,3.6-15.1,5.3-22.8c0.9-4.1,3.5-8.2,3.8-11.7c1.4-12.9,8.7-24,10.2-36.7c0.9-7.3,2.1-14.5,6-21.1
	c1.3-2.2,2.2-5.1,2.1-7.6c-0.2-5.8,2.6-7.7,7.8-7.7c37,0.1,73.9,0.1,110.9,0.2c0.6,0,1.2,0.5,2.6,1c-2.7,10.3-5.5,20.8-8.3,31.3
	c-6,22.1-12.2,44.1-18.3,66.2c-3.3,11.9-6.5,23.7-9.8,35.6c-4.8,17.2-10,34.3-14.5,51.7c-5.3,20.8-12,41.3-17.1,62.2
	c-5.5,22.5-12.6,44.7-18.6,67.1c-7.7,29.1-15.8,58-23.8,87c-7.7,27.7-15.7,55.4-23.1,83.2c-1.2,4.4-3,5.9-7.4,5.9
	c-36-0.1-71.9,0-107.9,0C4066.3,1126.6,4064.9,1126.3,4062.4,1125.9L4062.4,1125.9z"/>
<path class="st0" d="M2211.8,2055.6c3-4,6-7.9,8.1-12.4c1.9-4,5.1-7.1,8.5-9.7c26.8-20.8,56.6-27.5,89.4-17.8
	c22.5,6.6,35.2,22.8,40.9,44.9c2.7,10.6,4,21.5,4,32.6c0,52.6,0,105.3,0,157.9c0,1.7-0.1,3.3,0,5c0.1,3.2-1.1,4.9-4.6,4.9
	c-18-0.1-36-0.1-54,0c-3.4,0-4.9-1.5-4.7-4.8c0.1-2.3,0-4.7,0-7c0-45.6,0-91.3,0-136.9c0-10.2,0.3-20.3-3.5-30.3
	c-2.7-7.2-11.7-16-19.5-17.1c-13.9-2-25.4,3.5-35.4,12.4c-11.2,10-17.9,23-22.1,37.3c-3.1,10.9-4.1,22.2-4,33.6
	c0.1,33.6,0,67.3,0,100.9c0,2.3-0.1,4.7,0,7c0.1,3.2-1.1,4.9-4.6,4.9c-17.6-0.1-35.3,0-53,0c-2.8,0-4.4-1.2-4.4-4.1
	c0-2.7-0.1-5.3-0.1-8c0-47-0.2-93.9,0.2-140.9c0.1-11.1-3.1-21.2-6.2-31.5c-1.5-4.9-5.2-8-10.8-9.2c-23.9-5.4-42.9,3.9-55.9,27.5
	c-8.4,15.2-11.7,31.5-11.7,48.7c0.1,35.3,0,70.6,0,105.9c0,2.3-0.1,4.7,0,7c0.1,3.5-1.8,4.6-5,4.6c-6.7-0.1-13.3,0-20,0
	c-10.7,0-21.3-0.2-32,0.1c-4.7,0.1-6.8-1.5-6.3-6.3c0.2-1.6,0-3.3,0-5c0-73.9,0-147.9,0-221.8c0-11.5-1.4-10.8,10.6-10.8
	c14,0,28-0.1,42,0c7,0.1,7.1,0.2,6.9,7.4c-0.2,7.6-0.9,15.3-1.3,22.9c-0.6,3.4-1.3,6.9-2,10.7c3.9-1.1,4.5-4.1,5.4-6.8
	c2.9-4,6.6-7.5,8.7-12c2.1-4.6,7-5.9,10.6-8.7c25.6-19.6,54-23.7,84.4-14.5c13.1,4,23.6,12.2,30.4,24.4c2.7,4.9,5.2,9.9,7.8,14.9
	c0.2,0.9,0.3,2.4,0.7,2.5C2211.4,2058.2,2211.4,2056.7,2211.8,2055.6L2211.8,2055.6z"/>
<path class="st0" d="M2505.3,2043.4c5.5-4.6,9-10.8,15-15.3c17.6-13.4,37.6-17.3,58.6-16c48.3,2.9,70.1,34.4,78.3,68.5
	c7.4,30.8,7.4,61.3-0.3,91.8c-7.8,30.8-24.4,55.9-51.4,73.4c-18.2,11.9-38.5,17.7-59.9,19.1c-18.3,1.2-36.6,1.1-54.8-1.3
	c-1-0.1-2-0.3-3-0.2c-15.6,1.3-29.6-6.1-44.5-8.1c-3.2-0.4-3.7-2.1-3.7-4.7c0-2.3,0-4.7,0-7c0-109.6,0-219.1,0-328.6
	c0-13.3-1.4-12.1,12.5-12.1c14.6,0,29.3,0.1,43.9-0.1c5.1-0.1,7,1.5,6.9,6.8c-0.3,37.3-0.2,74.6-0.4,111.9
	c-0.1,7.3-0.9,14.6-1.4,21.9c-1.1,2.6-2.1,5.2-1.1,8.3C2502.7,2049.3,2504.4,2046.6,2505.3,2043.4L2505.3,2043.4z M2502.9,2165.7
	c0,14.4-0.1,26.3,0,38.3c0.1,7.4,0.2,7.6,7.5,9.1c7.8,1.7,15.8,2.3,23.8,2.3c29.4-0.1,48.4-13.8,57-41.9c5.7-18.7,6.7-37.9,4.8-57.3
	c-1.1-11-2.9-21.8-7.9-31.7c-6.6-13.1-17.1-19.8-31.9-20c-12.8-0.2-23.3,4.7-31.9,13.9c-10.8,11.6-16.1,25.8-19.3,41
	C2501.5,2135.4,2503.5,2151.8,2502.9,2165.7L2502.9,2165.7z"/>
<path class="st0" d="M4314.5,2227.2c-18.2,27.9-44.5,39.9-77.2,38.8c-8.6-0.3-17-0.4-25.6-2.9c-22.1-6.6-36.1-21.4-46.7-41.1
	c-8.8-16.5-10.3-34.5-12.1-52.4c-1.5-15.2-1.2-30.6,1.2-45.8c1.6-10.2,1.8-20.5,6.7-30c6.6-13.1,12.1-26.5,21.6-38.2
	c22.6-28,52.6-39.7,87.1-42.4c11.6-0.9,23.3-0.3,35,0.4c7.5,0.4,7.6,0.2,7.6-7.5c0.1-30.3,0-60.6,0-91c0-2.3,0.1-4.7,0-7
	c-0.2-3.9,1.5-5.3,5.3-5.2c17.3,0.1,34.6,0.1,52,0c3.8,0,5.5,1.5,5.2,5.3c-0.1,2.3,0,4.7,0,7c0,111.3,0,222.6,0,333.8
	c0,13.4,1.3,11.9-11.5,12c-13,0.1-26,0.1-39,0c-7.8,0-7.8-0.1-7.8-7.5c0-8.7,0.4-17.3,1.7-25.9c0.3-1.7,2-4.1-0.7-4.8
	c-1.4-0.4-2.2,2.1-2.7,3.6C4314.5,2226.6,4314.5,2226.9,4314.5,2227.2L4314.5,2227.2z M4312.1,2110c0-14.2,0-26.2,0-38.2
	c0-3.1,0-5.8-4.2-6.6c-14.5-2.8-29.2-4.5-43.6-1.4c-23,4.9-35.5,20.9-41.5,42.6c-5.5,20.2-5.6,40.8-3.2,61.4c1,9,3.1,17.7,7.2,25.8
	c6.6,13,17.1,19.9,31.9,20.1c14.9,0.2,26.2-6.5,35-17.9c9.6-12.4,14.2-26.9,16.8-42.2C4313,2138.4,4311.6,2123.1,4312.1,2110
	L4312.1,2110z"/>
<path class="st0" d="M2990.4,2231c-11.7,15.1-26.5,26-44.9,31.2c-18.7,5.3-38,5.1-56.3-0.1c-20.2-5.8-35.2-19.9-39.5-41.1
	c-2.2-10.8-1.8-22.4-0.1-33.8c3.1-21.7,15.5-36.9,32.8-48.9c24.2-16.8,51.9-22.3,80.5-25.1c7.3-0.7,14.6-1.1,21.9-1.4
	c2.9-0.1,4.4-1.1,4.3-4.1c-0.2-9.5,0.6-18.8-4.4-28c-5.9-11-14.6-17-26.5-18.2c-17.6-1.8-34.8-1.1-52.1,4.5
	c-12,3.9-24.1,7.6-36.5,13c-1.6-15.7-3-30.6-4.9-45.3c-0.7-5.8,1.6-8.3,6.9-9.9c15.6-4.6,31.5-8.2,47.7-10.2
	c20.6-2.7,41.2-3.3,61.8-0.3c13.8,2,27,5.9,39.4,12.8c14.9,8.3,23.3,21.5,27.8,37.3c2.9,10.2,4.2,20.8,4.3,31.5
	c0.2,53-0.7,105.9,0.8,158.9c0.2,6.9,0,7.1-6.2,7.2c-15.7,0.1-31.3-0.1-47,0.1c-4.2,0-6-1.2-5.8-5.7c0.4-8,0.3-16,0.5-24
	c0.9-2.8,1.9-5.5,0.9-8.9C2992.9,2225.2,2991.2,2227.9,2990.4,2231L2990.4,2231z M2937.7,2217.3c3.4-0.1,7.3-0.4,11.2-1.4
	c25.9-6.6,41-34.5,40.3-58c-0.1-4.1-2.1-4.9-5.6-4.9c-16.4,0-32.6,1.6-48.2,6.8c-5.1,1.7-9.9,4-14.2,7.2
	c-10.5,7.8-15,20.7-11.3,32.7C2913.3,2210.9,2923.1,2217.2,2937.7,2217.3z"/>
<path class="st0" d="M3512.5,2109.2c0-8.8,0.9-17.4-2.8-26.2c-4.1-9.9-10-16.8-20.3-19.8c-14.4-4.2-29.1-3.6-43.6-1.4
	c-15.8,2.4-31.1,6.7-45.3,14.2c-2,1.1-4,2.2-7.4,2.1c-1.6-15.7-3.1-31.4-4.8-47.2c-0.6-5.2,3.3-6,6.6-7.1
	c15.2-4.8,30.8-8.2,46.6-10.2c24.9-3.3,49.8-3.6,74.5,1.6c10.5,2.2,20.4,5.9,29.5,11.6c18.1,11.2,26,28.6,28.9,48.9
	c1.2,8.6,1.6,17.2,1.6,25.9c0.1,50.3-0.6,100.5,0.7,150.8c0.2,8.4,0.1,8.4-7.8,8.5c-14.3,0.1-28.6,0.1-42.9,0
	c-7.8,0-7.9-0.1-7.9-7.6c-0.1-7.3,0.1-14.6,0.2-21.9c0.7-2.7,1.4-5.5,0.9-8.6c-2.9,2.4-4.2,5.3-5.3,8.3
	c-11.4,14.4-25.4,25.1-43.2,30.6c-19.4,6-39.1,5.3-58.1,0.4c-7.8-2-15.8-7-22.3-13.4c-7.4-7.3-13.6-14.9-16-25.1
	c-1.8-7.4-1.6-15-2-22.5c-0.8-14.5,2.8-27.9,10.4-40.1c2-3.3,5.1-5.9,7.7-8.8c11.8-13.2,26.3-22.2,43.1-28.1
	c22.1-7.9,45.1-10.2,68.2-11.7c3-0.2,6-0.5,8.9-0.7C3512.2,2111.5,3512.7,2110.7,3512.5,2109.2L3512.5,2109.2z M3498,2153.3
	c-7-0.3-15,1.1-22.8,2.4c-11.2,1.9-22.1,4.9-31.4,12c-9.9,7.7-14,20.5-10.4,32.2c3.3,10.6,13.2,17.1,26.4,17.4
	c4.3,0.1,8.6-0.2,12.8-1.5c23.4-7.2,34.8-24.5,39.4-47.2C3515.1,2153.6,3514.1,2152.7,3498,2153.3L3498,2153.3z"/>
<path class="st0" d="M1868.5,2225.4c-5.6,5.6-8.7,12.3-14.5,17.9c-11.6,11.3-26.1,18.6-41.1,21.1c-18.5,3.1-37.8,2.5-55.8-5.6
	c-12.9-5.8-21.8-15.1-27.9-27.9c-5.7-11.9-5.4-24.4-5.7-37c-0.5-17.9,8.8-31.9,19.3-44.1c9.7-11.2,23.1-19.1,37.4-24.2
	c23.7-8.5,48.1-12.7,73.2-13.4c10.4-0.3,10.4-0.7,10.3-11.5c0-4,0-8-0.6-11.9c-1.9-12.6-9.3-19.9-21.3-24.2
	c-20.4-7.3-40.1-3.7-60.1,1.1c-12.5,3-24.4,7.3-35.8,12.7c-2.7-1.9-2.2-4.4-2.4-6.6c-1.4-12.9-2.5-25.8-4.1-38.7
	c-0.6-4.9,1.2-7.5,5.7-8.8c36.8-10.7,74.1-16.1,112.4-10.7c9.1,1.3,18.2,3.6,26.8,6.9c24.5,9.3,36.8,28.1,41.1,53.1
	c1.5,8.6,1.8,17.2,1.8,25.9c0.1,45.3,0.2,90.6,0.3,135.8c0,6.6,0.4,13.3,1,19.9c0.4,4.5-1.5,5.8-5.7,5.8c-16-0.1-32-0.1-47.9,0
	c-4.2,0-6.1-1.4-5.9-5.7c0.6-9.9,0.9-19.9,1.4-29.9c0-0.8,0-1.6,0-2.4C1869.2,2223.7,1868.4,2224.4,1868.5,2225.4L1868.5,2225.4z
	 M1848.6,2153.2c-11.5,0.6-24.3,2.1-36.8,6.1c-6.7,2.1-13,5.1-18.3,9.8c-9.1,8-12.4,20.7-8.3,31.8c3.7,10.1,12.5,15.8,25,16.4
	c10.7,0.5,20.4-2.4,29.1-8.6c14-10.1,22.1-24.1,24-41C1865.3,2149.2,1863.9,2153.4,1848.6,2153.2L1848.6,2153.2z"/>
<path class="st0" d="M4580.1,2229.1c-12.9,18.6-31.3,29.1-52.4,35.4c-4,1.2-8.5,0.7-12.9,0.8c-12.5,0.3-24.9,0.2-37.3-2.6
	c-10.2-2.3-17.4-9.2-24.1-15.9c-7.1-7.2-13.6-15.4-15.4-26.6c-0.7-4.4-0.5-8.9-0.7-13.1c-0.6-14.8-0.1-29.5,8.1-42.9
	c7.7-12.5,17.8-22.2,30.5-29.6c24.8-14.3,51.8-19.9,79.9-21.8c2.3-0.1,4.7-0.3,7-0.4c10.8-0.7,15.7-6.5,14.9-17.3
	c-0.6-8-4.5-14.9-7.7-22c-0.6-1.4-2.1-3-3.5-3.4c-9.2-3.1-17.4-8.8-27.8-9.2c-22.7-0.9-44.1,3.5-65.1,11.9
	c-15.9,6.4-15.7,9.7-17.4-10.4c-0.8-9.9-1.8-19.9-3.1-29.8c-0.5-4.1,0.6-6,4.6-7.3c33-10.6,66.6-15.5,101.3-12.8
	c10.9,0.9,21.7,2.8,32.1,6c32.3,9.9,45.1,30.6,48.8,62.2c0.8,6.6,0.6,13.3,0.6,20c0.1,41.3,0.1,82.6,0.3,123.9c0,10,0.7,20,1.2,29.9
	c0.2,4.3-0.5,6.9-5.8,6.8c-16-0.3-32-0.3-48,0c-5.3,0.1-6.1-2.5-5.9-6.8c0.5-8.3,0.8-16.6,1.2-24.9c0.7-2.1,1.4-4.3-0.5-6.3
	C4581.9,2224.9,4580.4,2226.7,4580.1,2229.1L4580.1,2229.1z M4526.7,2217.3c3.3-0.2,6.9-0.5,10.5-1.4c25.9-6.6,40.6-33.4,40.6-57.9
	c0-4-1.9-5.1-5.5-5.1c-16.4,0-32.6,1.6-48.3,6.7c-5.1,1.6-9.9,4-14.2,7.2c-11.1,8.2-15.4,21-11.2,33.6
	C4502,2211.2,4512.2,2217.4,4526.7,2217.3L4526.7,2217.3z"/>
<path class="st0" d="M1189.4,2151.2c-0.6,6.7,0.2,13.2,1.4,19.8c4.4,23,20.1,40.3,46.6,43.8c23.7,3.2,47,1.8,69.5-7.4
	c6-2.4,12.5-3.6,19.4-5.5c3.2,10.4,2.9,21.4,4.8,32c0.5,2.9,0.6,6,0.9,8.9c0.8,7.2,0.6,7.2-6.4,10c-17.3,7-35.7,9.4-54,11.5
	c-25.3,2.9-51,2.5-75.3-4.5c-30.5-8.9-51.3-29.9-62.6-60c-10.2-27.1-9.1-55.1-7.6-83.2c0.7-12.3,4.3-24,8.2-35.1
	c3.4-9.7,9.2-18.9,15.5-27.5c20.2-27.7,48.4-40.2,81.7-42.3c20.8-1.4,40.8,2.2,59.8,11.6c20.1,10.1,33.3,26.1,41.5,46.5
	c9.2,23.1,10,47.3,8,71.6c-0.6,7.6-0.9,7.6-9.6,7.6c-43,0-85.9,0-128.9,0c-3.7,0-7.3,0.2-11,0.4
	C1190.1,2149.2,1189.3,2149.7,1189.4,2151.2L1189.4,2151.2z M1233.5,2105.8c13.3,0,26.7,0,40,0c3.2,0,5.6-0.2,5.9-4.6
	c1.2-17.6-10.8-35.9-27.4-41.2c-21.9-7-44.4,2.1-55,22.7c-2.4,4.7-4.3,9.7-6.3,14.6c-2.4,6.1-0.9,8.5,5.9,8.5
	C1208.8,2105.9,1221.1,2105.8,1233.5,2105.8L1233.5,2105.8z"/>
<path class="st0" d="M977.6,1985c-3.3-0.2-6.6-0.5-9.9-0.5c-21.3-0.1-42.6,0-63.9,0c-9.7,0-9.8-0.1-9.8-9.8c0-13,0.2-26-0.1-39
	c-0.1-4.8,1.7-6.7,6.4-6.2c2.3,0.2,4.7,0,7,0c69.6,0,139.2,0,208.8,0c1.7,0,3.3,0,5,0c8.3,0.1,8.4,0.1,8.4,8.1c0.1,13,0.1,26,0,39
	c-0.1,7.7-0.2,7.9-7.7,7.9c-21.3,0.1-42.6,0-63.9,0.1c-16.5,0.1-14.1-1.8-14.1,14.5c-0.1,83.6,0,167.2,0,250.8
	c0,12.5,0.9,11.1-11.3,11.2c-15.3,0.1-30.6-0.2-46,0.1c-5.3,0.1-7.2-1.9-6.7-7c0.2-2.3,0-4.7,0-7c0-82.6,0-165.2,0-247.8
	c0-4-0.2-8-0.3-12C979.6,1985.9,979.2,1985,977.6,1985L977.6,1985z"/>
<path class="st0" d="M3864.3,2173.2c1.4-4.4,3.3-8.8,2.6-13.6c-0.3-2.2,0.8-3.7,1.6-5.6c6.7-15.6,10.1-32.5,16.6-48.1
	c5.5-13.3,8.4-27.4,14.1-40.5c5.7-13.2,8.9-27.1,13.3-40.6c2.5-7.6,2.4-7.8,10-7.8c18-0.1,36,0,54,0c1.9,0,4-0.3,6.4,1.5
	c-3.2,8.8-6.5,17.7-9.8,26.6c-16.3,43.8-32.6,87.7-49,131.5c-9.8,26.3-19.9,52.5-29.6,78.9c-1.5,4.2-3.6,5.6-7.9,5.6
	c-18-0.2-36-0.2-54,0c-4.6,0.1-6.5-2.2-7.5-6c-3.4-12.5-8.9-24.3-13-36.5c-2.6-7.6-5.1-15.6-8.2-22.9c-4.5-10.4-8.3-21.2-11.9-31.8
	c-4.5-13.2-11.3-25.4-15.2-38.8c-6.3-21.4-16.3-41.5-22.9-62.7c-4.7-15.2-12.4-29.2-16.2-45.4c21.8,0,43.4,0,65.1,0
	c3.6,0,4.9,1.7,6.1,5.1c7.6,21.9,15.4,43.7,23.3,65.5c10.2,28.3,19.7,56.9,28.6,85.7c0.1,1.8-0.7,4.7,1.8,4.7
	C3865.1,2177.9,3864.3,2175,3864.3,2173.2L3864.3,2173.2z"/>
<path class="st0" d="M1673.2,2073.1c-4.5-0.7-7.8-1.3-11.3-2.2c-20.4-5.3-40.8-9.9-61.4,1.3c-12.2,6.6-20.3,16.2-24.8,28.5
	c-7.9,22.1-8.8,45-3.3,67.8c7.6,31,28.2,43.6,59.8,42c12.9-0.7,25.7-2.5,37.6-8.4c3.4-1.7,5.5-0.8,5.9,3.5
	c1.2,14.3,2.4,28.5,3.9,42.7c0.5,4.5-1.1,6.5-5.4,7.9c-26.1,8.1-52.7,10.9-79.8,8.1c-4.6-0.5-9.2-1.1-13.9-1.4
	c-2-0.1-3.8,0.4-5.5-1.3c-2.2-2.2-5.4-2.7-8.3-3.2c-9.4-1.6-16.6-6.7-24.2-12.3c-19.8-14.8-32-34.6-36.2-58.1
	c-3.6-20.1-4.8-40.9-2.2-61.5c1.1-8.4,1.2-17.1,3.4-25.2c11.8-42.6,42-77.8,92.1-86.1c24.3-4,48.4-3.1,72.3,2.3
	c7.3,1.6,7.6,1.9,6.8,8.3C1677.2,2041.2,1675.2,2056.6,1673.2,2073.1L1673.2,2073.1z"/>
<path class="st0" d="M3310.4,2082.3c0,55,0,109.9,0,164.9c0,2,0,4,0,6c-0.2,7.5-0.2,7.6-7.9,7.7c-16,0.1-32,0.1-48,0
	c-7.3,0-7.3-0.2-7.5-7c-0.1-1.7,0-3.3,0-5c0-111.3,0-222.6,0-333.8c0-13.4-1.8-12.2,12.3-12.2c13-0.1,26,0,39,0
	c13.5,0,12-0.9,12,11.6C3310.5,1970.3,3310.4,2026.3,3310.4,2082.3L3310.4,2082.3z"/>
<path class="st0" d="M2786.8,2139.3c0,36.6,0,73.3,0,109.9c0,2.3-0.1,4.7,0,7c0.1,3.5-1.6,4.7-4.9,4.7c-6.7-0.1-13.3,0-20,0
	c-10.7,0-21.3-0.2-32,0.1c-5.4,0.2-7.2-2-6.7-7c0.1-1.3,0-2.7,0-4c0-74,0-147.9,0-221.9c0-12.1-1.4-11.1,11.4-11.1
	c14.7,0,29.3-0.1,44,0c8,0,8.1,0.1,8.1,8.3C2786.8,2063.3,2786.8,2101.3,2786.8,2139.3L2786.8,2139.3z"/>
<path class="st0" d="M5033.5,1186.9c26.3,14.3,36.3,37.4,34.7,66.1c-1.7,29.9-24.7,54-47.8,62.6c-13,4.8-25.7,1.6-38.4,3.7
	c-9-4.6-19.1-6.4-27.5-13.2c-7-5.7-12.5-12.3-18.4-18.8c-2.6-2.8-4.9-6-5.5-10.1c-0.3-2.6-1.5-5.1-2.4-7.6
	c-3.4-9.2-2.8-18.8-3.5-28.4c-1.1-14.8,7.1-25.4,13.9-36.5c5.7-9.3,14.5-16.2,24.3-20.9c18.7-9.1,38-12.4,57.8-3
	c2.9,1.4,6.2,2,9.3,3C5030.4,1185.6,5032.1,1186.1,5033.5,1186.9L5033.5,1186.9z M4996.4,1302.4c31.2,0.2,55.2-23.5,54.9-54.9
	c-0.3-33.2-23.8-55.2-54.2-55.7c-30.8-0.5-54.7,23.7-54.8,55C4942.1,1278.4,4965.2,1302.2,4996.4,1302.4z"/>
<path class="st0" d="M4736.2,2265.2c-1.2-0.2-2.5-0.4-3.7-0.7c-0.6-0.5-1.3-1-1.9-1.5c-1.9-1.4-3.8-2.6-5.6-4.1
	c-11-8.8-17.4-19.1-17.1-34.4c0.3-19,11.1-28.8,26.1-35.6c14.6-6.7,32-2.8,42.9,9.1c20.3,22.4,11.8,52.8-10.8,64.7
	c-8.3,4.4-17.8,4.8-27.1,3.1C4737.9,2265.7,4737,2265.5,4736.2,2265.2L4736.2,2265.2z"/>
<path class="st0" d="M4058.9,1985.6c-25.1,1.5-37.5-19.1-37.8-39.3c-0.3-26.1,21.9-37.3,39.6-36.5c26.3,1.1,38.7,19.1,38.5,38.2
	C4099,1971.5,4078.6,1986.8,4058.9,1985.6L4058.9,1985.6z"/>
<path class="st0" d="M2752.5,1985.6c-21.6,0.8-38-18.5-36.4-39.7c0.8-10.6,4.3-18.9,12-25.7c7.9-7.1,17.1-11.3,27.9-10.6
	c23.4,1.6,38.9,18,38.4,38.9C2793.9,1968.5,2776.6,1987.7,2752.5,1985.6L2752.5,1985.6z"/>
<path class="st0" d="M5261.8,414.2c-31.1-14.4-62.6-27.9-94.6-40.3c-20.4-7.9-40.7-16.2-61.2-23.9c-71.4-26.7-143.9-50-216.9-71.6
	c-51.7-15.3-103.7-29.2-156-42.4c-37.2-9.4-74.7-17.9-112.1-26.6c-48.9-11.3-97.9-21.6-147.1-31.5c-52.8-10.7-105.9-20.3-159-29.4
	c-47.6-8.1-95.2-16-143-22.8c-40.2-5.7-80.4-11.7-120.6-17.1c-33-4.5-66-8.5-99.1-12.4c-32.4-3.8-64.8-7.4-97.3-10.8
	c-36.8-3.9-73.5-7.7-110.3-11.2c-33.5-3.2-67-5.9-100.5-8.7c-39.5-3.2-79-6.4-118.5-9.2c-37.5-2.6-75.1-4.5-112.7-6.8
	c-66.8-4.2-133.7-6.9-200.6-9.4c-35.3-1.3-70.6-2.5-105.9-3.2c-61.6-1.2-123.2-2.4-184.8-2.8c-65.6-0.4-131.3-0.4-196.9,0.6
	c-69.9,1-139.9,2.4-209.8,5.2c-2,1.8-4,1.7-6,0.1c-31.3,1.3-62.6,2.6-94,3.9c-1.9,1.8-3.9,1.7-6,0.2c-12,0.6-24,1.2-36,1.8
	c-1.9,1.8-3.9,1.7-6,0.2c-11.3,0.6-22.7,1.2-34,1.8c-1.3,1.5-2.6,1.5-4,0.2c-10.7,0.6-21.3,1.2-32,1.9c-1.3,1.5-2.6,1.5-4,0.2
	c-40,2.6-80,5.2-120,7.8c-1.3,1.5-2.6,1.5-4,0.2c-19.6,1.4-39.2,2.7-58.8,4.3c-63.4,5.4-126.7,10.7-190,17.1
	c-57.3,5.8-114.6,12-171.7,19c-66.4,8.1-132.7,17.1-198.9,27c-67.2,10-134.2,20.9-201,33c-93.3,16.9-186.2,35.8-278.6,57.4
	c-146.9,34.4-292,74.7-434,126.2C534.3,379,434.8,421.1,340,474.1c-65.3,36.5-127.5,77.5-182.7,128.4c-34,31.3-64.1,65.9-87.2,106.2
	c-19.5,33.9-32.6,70-36.1,109.1c-4.1,45.9,4.8,89.4,24.7,130.9c20.1,42,48.4,77.9,80.9,110.8c59.7,60.4,130.6,105.4,203.2,147.8
	c11.1,6.5,22.5,13.2,34.7,18.3c17.1,7.2,33.6,16.2,50.1,24.8c6.4,3.3,12,9,18.9,10.2c11.6,2.1,20.5,9.8,31.4,13.6
	c8,2.8,17.2,4.4,23.6,11.2c17.2,3.4,31.6,14.1,48.4,18.7c13,3.5,23.7,12.9,37.5,14.7c1.3,0.2,2.6,0.7,3.7,1.4
	c9.7,6.3,20.9,8.8,31.5,12.9c6.2,2.4,13.9,1.4,18.8,7.1c0.9,0.4,1.8,0.8,2.6,1.2c6.2,1.6,12.5,2.8,18.4,5c6.4,2.4,13.6,2.9,18.9,7.9
	c0.9,0.4,1.7,0.8,2.6,1.1c23.5,6.4,46.1,15.7,69.8,21.6c8.2,2,15.7,6.9,23.9,8.3c11.5,1.9,22,6.6,33.1,9.4c10,2.6,19.8,6.3,29.6,9.8
	c17.8,6.4,37,8.5,54.8,15.4c13.8,5.3,28.7,6.3,42.7,11.2c10.2,3.5,21,5.2,31.6,7.2c5.2,0.9,9.6,3.8,14.7,5.1
	c11.2,2.9,22.5,5.1,33.9,7.2c14.8,2.8,28.7,8.5,43.4,11.6c4.8,1,10.1,0.6,14.4,2.4c6.7,2.8,13.6,3.4,20.5,4.9
	c7.9,1.8,16.3,2.3,23.8,5.2c7.9,3.1,17.1,1.1,24.2,6.5c13.5-1.2,25.8,4.6,38.6,7.1c48.7,9.5,97.2,19.4,146,28.4
	c52.7,9.7,105.5,18.9,158.4,27c37.5,5.7,75,11.6,112.5,17c36.2,5.2,72.5,10.1,108.9,14.7c36,4.6,72,8.7,108.1,12.8
	c40.7,4.6,81.4,9.1,122.1,13.1c40.4,4,80.9,7.4,121.4,10.8c47.5,3.9,94.9,7.8,142.4,11.1c38.5,2.7,77.1,4.5,115.7,6.9
	c65.8,4.1,131.7,6.6,197.6,9.1c41.6,1.6,83.2,2.7,124.9,3.4c66.6,1.2,133.2,2.2,199.9,2.5c84.6,0.3,169.2-0.8,253.8-3
	c40.6-1.1,81.3-1.9,121.9-3.4c66.9-2.4,133.8-5.5,200.6-9.3c25.3-1.4,50.6-2.8,75.8-4.6c41.9-2.9,83.7-6,125.5-9.2
	c27.6-2.1,55.1-4.3,82.6-6.8c39.1-3.6,78.2-7.4,117.3-11.3c27.2-2.7,54.3-5.6,81.4-8.7c31.4-3.6,62.8-7.3,94.2-11.3
	c19.5-2.5,39.1-4.2,58.3-8c6.1,0.7,12-1.3,18-2.1c0-1.1,0-2.3,0-3.4c-6,0.7-12,1.3-17.9,2c-17.6,1.4-35.1,2.8-52.7,4.2
	c-45.8,3.7-91.6,7.7-137.4,11.1c-35.9,2.6-71.8,4.4-107.7,6.8c-63.8,4.1-127.7,6.7-191.6,9.1c-40.9,1.6-81.9,2.7-122.9,3.4
	c-89.6,1.6-179.2,2.4-268.8,1.6c-80.6-0.7-161.2-2.6-241.8-4.9c-21.3-0.6-42.6-1.4-63.9-2.5c-57.5-3-115.1-6-172.6-9.3
	c-33.2-1.9-66.5-4.1-99.7-6.7c-43.5-3.4-86.9-7.2-130.4-11.1c-37.5-3.4-74.9-6.7-112.4-10.8c-48.3-5.3-96.6-11.3-144.8-17.1
	c-46.5-5.6-93-11.9-139.3-18.9c-62.8-9.6-125.6-19.8-188.2-31c-91.9-16.5-183.4-35.3-274.2-56.8c-51-12.1-101.7-25.2-152.1-39.6
	c-104.6-29.7-207.9-63.1-308.5-104.3c-28.6-11.7-56.9-23.9-84.8-37.1c-28.5-13.5-56.7-27.6-84.3-42.9c-41.1-22.7-81-47.3-118.6-75.5
	c-42.3-31.7-81.2-66.9-112.9-109.6c-22.8-30.8-40.4-64.2-48.9-101.7c-12.2-54.1-3.3-105.9,21.8-154.9c10.6-20.7,24-39.9,38.8-58
	c37-45.3,81.8-81.9,129.7-114.9c62.4-43,129.8-77,198.4-108.7c38.5-17.8,77.9-33.5,117.6-48.5c23-8.7,46-17.1,69.2-25.2
	c35.5-12.4,71.3-23.7,107.3-34.8c35.8-11.1,71.9-20.8,107.9-31c14.2-4,28.6-7.5,42.9-11.3c54.7-14.5,109.9-26.9,165.2-39.1
	c18.1-4,36.4-7.5,54.6-11c15.5-3,31-6.8,46.6-10c65.2-13.1,130.8-24.6,196.5-35.1c26.3-4.2,52.7-7.9,78.9-12.2
	c26-4.3,52.3-6.9,78.4-11.1c15.8-2.6,31.6-4.4,47.5-6.3c54.2-6.6,108.4-13.1,162.7-18.9c52-5.5,104-10.5,156.1-14.9
	c53.1-4.5,106.2-8.6,159.4-11.9c61.5-3.9,123-7.3,184.6-10c58.9-2.6,117.8-4.3,176.8-5.9c43-1.1,85.9-1.6,128.9-2.1
	c100.9-1.2,201.9,0.1,302.8,2.5c75.9,1.9,151.8,4.7,227.7,8.5c51.2,2.6,102.4,5.5,153.6,9c61.8,4.3,123.6,9,185.2,15.1
	c43.1,4.3,86.2,8.4,129.2,12.8c15.2,1.5,30.4,3.5,45.6,5.4c15.2,1.8,30.4,3.6,45.6,5.5c15.5,1.9,31,4.2,46.6,5.7
	c15,1.4,29.8,4.1,44.7,6.1c42.6,5.6,85,12.1,127.5,18.6c89.2,13.6,177.9,29.5,266.2,47.9c6.7,1.4,13.3,3.3,19.9,5.3
	c6.3,1.9,13.6,1.9,20.5,2.9c4.1,0.6,6.9,3.9,11.1,3.8c16.1-0.4,30.8,6.4,46.2,9.4c11.6,2.2,23.6,3.9,34.9,8.4
	c7.9,3.1,16.8,2.4,24.9,5.4c2.8-0.8,3.1,1.8,4.2,3.2c2-0.1,4.1-0.7,5.9-0.2c23.7,7.2,48,12.1,72.1,17.5c4.3,1,7.6,3.6,11.7,4.6
	c14.5,3.6,28.8,8.3,43.3,11.9c18.5,4.5,36.5,10.4,55.1,14.7c14.5,3.4,29,7.8,43,13.2c7.6,2.9,15.8,4.1,23.4,7
	c23.4,8.7,46.8,17,70.9,23.7c4.9,1.4,10.4,2.2,14.2,6.3c0.9,0.4,1.7,0.8,2.6,1.2c6.5,2.2,14.1,1.3,19.4,6.7c0.9,0.4,1.8,0.8,2.6,1.2
	c14.1,2.8,27.1,9,40.6,13.7c1.8,0.6,4,0.8,4.7,3.2c0.8,0.4,1.5,0.8,2.3,1.2c12.6,4.2,24.4,10.5,37.5,13.2c0.1-1,0.1-2,0.2-3
	C5321.5,441.5,5291.5,428.1,5261.8,414.2L5261.8,414.2z"/>
<path class="st0" d="M2718.5,914.5c-0.2,4.3-0.1,8.8-4.7,11.3C2714.1,921.5,2713.9,917,2718.5,914.5z"/>
<path class="st0" d="M3294.9,636.3c0,2.6,0,5.1-3.3,5.7C3289.8,638.5,3292.2,637.3,3294.9,636.3z"/>
<path class="st0" d="M4152,1553.7c-3.7,1.2-7.5,1.6-11.5,1.8c-6.7,0.4-13.4,0.9-19.9,3.2c-16.8,1.3-33.6,2.6-50.3,5.1
	c0,1.1,0,2.3,0,3.4c3.3,0.5,6.5-0.2,9.8-0.7c13.3-1.9,26.7-3.6,40-5.4c3.9,0.2,7.6,0.1,11.6-0.7c6.7-1.4,13.4-3.4,20.4-3.1
	c1.3,0,3.1,0,3.3-1.4C4155.8,1553.4,4153.6,1553.8,4152,1553.7L4152,1553.7z"/>
<path class="st0" d="M3014.6,1123.6c1.4,0.4,2.2,1.4,2.7,2.7c-1.5,0.6-3.1,1.3-4-0.7C3012.9,1124.7,3013.6,1123.9,3014.6,1123.6z"/>
<path class="st0" d="M2666.6,1102.6c0.5,2.5,0.1,4.6-3,5.1C2662.2,1104.6,2664.6,1103.7,2666.6,1102.6z"/>
<path class="st0" d="M2676.6,1066.5c0.5,2.6,0.1,4.7-3,5.2C2672.2,1068.6,2674.5,1067.6,2676.6,1066.5z"/>
<path class="st0" d="M2682.6,1044.6c0.5,2.5,0.1,4.6-2.9,5.1C2678.3,1046.6,2680.6,1045.7,2682.6,1044.6z"/>
<path class="st0" d="M2692.6,1008.5c0.5,2.6,0.1,4.7-3,5.2C2688.2,1010.7,2690.5,1009.7,2692.6,1008.5z"/>
<path class="st0" d="M2698.6,986.6c0.5,2.5,0.1,4.6-3,5.1C2694.2,988.6,2696.6,987.8,2698.6,986.6z"/>
<path class="st0" d="M2708.6,950.5c0.5,2.6,0.1,4.6-3,5.2C2704.2,952.7,2706.6,951.7,2708.6,950.5z"/>
<path class="st0" d="M2713.6,930c2.3,2.8,0.2,3.3-2,3.8C2710.9,931.8,2711,930.2,2713.6,930z"/>
<g>
	<path class="st0" d="M5349.7,461c4.1,2.9,8.7,4.5,13.5,5.5c0.5-0.4,0.9-0.8,1.3-1.3c-4.4-3.4-9-6.3-14.6-7.2
		C5349.9,459.1,5349.8,460,5349.7,461L5349.7,461z"/>
	<path class="st0" d="M5364.5,465.3c-0.4,0.4-0.9,0.9-1.3,1.3c0.6,1.4,0.9,3.4,3.2,2.9c0.5-0.1,1.2-0.7,1.3-1.2
		C5368,465.9,5366,465.9,5364.5,465.3L5364.5,465.3z"/>
</g>
<path class="st0" d="M1189.4,2151.2c-0.1-1.5,0.6-2,2-1.8C1190.8,2150.1,1190.1,2150.6,1189.4,2151.2z"/>
<path class="st0" d="M3758.6,637.8c-0.7-0.6-1.4-1.2-2.1-1.7C3757.9,635.9,3758.8,636.2,3758.6,637.8z"/>
<path class="st0" d="M1227.4,675.8c-0.7,0.5-1.3,1-2,1.5C1226,676.8,1226.7,676.3,1227.4,675.8z"/>
<path class="st0" d="M4091.6,2250.1c0-65.5,0-131.1,0-196.6c0-10-0.3-20-0.2-29.9c0.1-4.4-0.9-6.7-6-6.6
	c-18.3,0.3-36.6,0.3-54.9,0.4c-1.5-0.1-2,0.6-1.7,2c-0.1,34.6-0.2,69.2-0.2,103.8c0,41.9,0,83.8,0,125.8c0,13.6-1.4,11.9,12.5,12
	c13.3,0.1,26.6,0.1,39.9,0C4091.8,2260.8,4091.6,2262.5,4091.6,2250.1L4091.6,2250.1z"/>
<path class="st0" d="M4781,810c-0.2,0.7-0.5,1.4-0.7,2.1C4780.6,811.4,4780.8,810.7,4781,810z"/>
<path class="st0" d="M2182.5,843.6c-0.4,0.8-0.8,1.7-1.1,2.6C2181.1,845.1,2181.5,844.2,2182.5,843.6z"/>
<path class="st0" d="M681.5,1354.2c0.9,0.4,1.7,0.8,2.6,1.1C683,1355.6,682.1,1355.2,681.5,1354.2z"/>
<path class="st0" d="M641.6,1340.1c0.9,0.4,1.8,0.8,2.6,1.2C643,1341.6,642.1,1341.2,641.6,1340.1z"/>
<path class="st0" d="M5029.1,1285.4c-6.5,0-11.3-0.1-16.1,0c-3.3,0.1-4.5-2.2-5.7-4.7c-2.8-6-5.7-12-8.5-18
	c-0.9-1.8-1.7-3.6-2.8-5.3c-1.3-2.1-3.4-1.7-5.4-1.6c-2.8,0.2-2.8,2.4-2.8,4.4c-0.1,6.6-0.2,13.3,0,19.9c0.1,3.8-1.5,5.1-5.3,5.3
	c-11.9,0.8-12.2,0.7-12.2-11.3c0-19.3-0.1-38.5,0-57.8c0-7.1,0.2-7.2,7.2-7.3c8.3-0.1,16.6-0.2,24.9,0c11.6,0.3,20.1,6.2,23.2,15.6
	c3.4,9.8,0.8,18.6-8.7,26.2c-3.2,2.6-3,4.4-1.4,7.4C5020,1266.8,5024.2,1275.4,5029.1,1285.4L5029.1,1285.4z M4987.8,1232.5
	c0,6.6,2.5,9.9,7.5,10c9.5,0.1,14.6-3.4,14.5-9.8c-0.1-6.2-4.9-9.4-13.8-9.4C4990.6,1223.3,4987.8,1226.3,4987.8,1232.5
	L4987.8,1232.5z"/>
</svg>
