
<svg id="Componente_9_1" data-name="Componente 9 – 1" xmlns="http://www.w3.org/2000/svg" xmlns:xlink="http://www.w3.org/1999/xlink" width="337.189" height="156.878" viewBox="0 0 337.189 156.878">
  <defs>
    <clipPath id="clip-path">
      <rect id="Rectángulo_46" data-name="Rectángulo 46" width="337.189" height="156.878" fill="#fff"/>
    </clipPath>
  </defs>
  <g id="Grupo_70" data-name="Grupo 70" clip-path="url(#clip-path)">
    <path id="Trazado_68" data-name="Trazado 68" d="M197.736,113.908c-86.929,0-157.4-23.676-157.4-52.886s70.468-52.886,157.4-52.886c54.867,0,103.165,9.437,131.339,23.738C300.256,12.95,241.65,0,174.044,0,77.924,0,0,26.182,0,58.48s77.924,58.481,174.044,58.481a470.928,470.928,0,0,0,80.138-6.559,442.772,442.772,0,0,1-56.446,3.506" transform="translate(0)" fill="#fff" fill-rule="evenodd"/>
    <path id="Trazado_69" data-name="Trazado 69" d="M95.879,66.068A3.25,3.25,0,0,0,92.657,68.6c-.45,1.631.331,2.534,1.7,2.534h11.895c5.094,0,7.848,4.29,6.419,9.486-1.581,5.756-6.545,9.49-11.637,9.49H80.068l1.876-6.826h19.77a3.84,3.84,0,0,0,3.439-2.7,2.055,2.055,0,0,0-2.026-2.749H91.4c-5.476,0-8.053-4.163-6.65-9.273,1.394-5.066,5.673-9.274,11.665-9.274H117.04l-1.865,6.784Z" transform="translate(-19.622 -14.528)" fill="#fff" fill-rule="evenodd"/>
    <path id="Trazado_70" data-name="Trazado 70" d="M149.27,59.285c8.815,0,10.928,4.294,9.216,10.518-1.687,6.139-6.068,10.088-14.625,10.088H132.608L129.8,90.111h-7.444l8.473-30.826ZM136.3,66.455l-1.827,6.655h11.295a4.511,4.511,0,0,0,4.117-3.307c.544-1.974-.706-3.347-2.673-3.347Z" transform="translate(-29.984 -14.528)" fill="#fff" fill-rule="evenodd"/>
    <path id="Trazado_71" data-name="Trazado 71" d="M190.6,58.489c10.441,0,15.218,4.251,11.973,16.055-3.153,11.464-10.352,16.015-20.792,16.015-10.569,0-15.137-4.551-11.986-16.015,3.246-11.8,10.491-16.055,20.8-16.055M178.144,74.544c-2.066,7.515-.3,9.318,5.482,9.318,5.69,0,8.621-2.1,10.617-9.36s.207-9.315-5.483-9.315c-5.563,0-8.694,2.361-10.617,9.357" transform="translate(-41.371 -14.333)" fill="#fff" fill-rule="evenodd"/>
    <path id="Trazado_72" data-name="Trazado 72" d="M238.855,59.285c7.276,0,9.9,3.049,8.122,9.531-1.739,6.31-6.36,8.028-6.36,8.028s3.076,1.416,1.022,8.886c-.461,1.675-.861,4.38-.861,4.38h-8.043a19.827,19.827,0,0,1,.456-3.993c1.426-5.2.194-7.558-4.941-7.558H221.1l-3.175,11.551h-7.444l8.474-30.826Zm-14.422,7.17-1.488,5.41h10.913a4.1,4.1,0,0,0,4.167-2.706c.565-2.062-1.013-2.7-2.68-2.7Z" transform="translate(-51.582 -14.528)" fill="#fff" fill-rule="evenodd"/>
    <path id="Trazado_73" data-name="Trazado 73" d="M260.648,65.994l1.829-6.654h29.1l-1.829,6.654H278.917l-6.634,24.131h-7.446l6.636-24.131Z" transform="translate(-63.875 -14.542)" fill="#fff" fill-rule="evenodd"/>
    <path id="Trazado_74" data-name="Trazado 74" d="M296.362,77.617,301.4,59.285h7.444L304.031,76.8c-1.406,5.109-.82,6.868,5.128,6.868h10.4l-1.772,6.441H305.85c-8.432,0-11.813-4.037-9.487-12.494" transform="translate(-72.451 -14.528)" fill="#fff" fill-rule="evenodd"/>
    <path id="Trazado_75" data-name="Trazado 75" d="M326.674,90.111l8.476-30.826h7.444l-8.476,30.826Z" transform="translate(-80.055 -14.528)" fill="#fff" fill-rule="evenodd"/>
    <path id="Trazado_76" data-name="Trazado 76" d="M359.965,59.285H376.61l-1.959,7.127H359.119c-4.621,0-5.174-.172-6.532,4.766h20.754l-1.844,6.7h-20.75l-3.365,12.237h-7.446l4.96-18.032c2.006-7.3,4.627-12.794,15.069-12.794" transform="translate(-83.305 -14.528)" fill="#fff" fill-rule="evenodd"/>
    <path id="Trazado_77" data-name="Trazado 77" d="M393.276,71.178h19.514l-1.832,6.653H391.446c-1.416,5.152-1.344,5.2,2.638,5.2h15.448l-1.95,7.083H389.141c-8.6,0-8.2-4.423-5.177-15.414,2.68-9.745,5.478-15.412,13.824-15.412h18.27l-1.973,7.171H398.639c-3.893,0-4.065,0-5.363,4.722" transform="translate(-93.614 -14.528)" fill="#fff" fill-rule="evenodd"/>
    <path id="Trazado_78" data-name="Trazado 78" d="M437.571,70.069a5.52,5.52,0,1,1,5.5-5.519,5.509,5.509,0,0,1-5.5,5.519m0-9.8a4.286,4.286,0,1,0,4.2,4.285,4.152,4.152,0,0,0-4.2-4.285" transform="translate(-105.884 -14.466)" fill="#fff" fill-rule="evenodd"/>
    <path id="Trazado_79" data-name="Trazado 79" d="M439.693,68.314l-1.063-2.272h-.624v2.272H436.7V62.443h2.386a1.855,1.855,0,0,1,1.945,1.845,1.652,1.652,0,0,1-1.079,1.556l1.232,2.47Zm-.776-4.789h-.91v1.526h.91a.764.764,0,1,0,0-1.526" transform="translate(-107.018 -15.302)" fill="#fff" fill-rule="evenodd"/>
    <path id="Trazado_80" data-name="Trazado 80" d="M112.774,174.449h7.437v2.432H115.7v8.511h4.27v2.432H115.7V196.9h4.567v2.432h-7.493Z" transform="translate(-27.637 -42.751)" fill="#fff"/>
    <path id="Trazado_81" data-name="Trazado 81" d="M126.756,182.054a7.828,7.828,0,0,1-.254-2.134,8.021,8.021,0,0,1,1-4.291q1-1.591,3.81-1.591a3.889,3.889,0,0,1,4.27,3.478,20.881,20.881,0,0,1,.283,3.775v1.47h-2.8v-1.668a13.659,13.659,0,0,0-.24-3.2,2.1,2.1,0,0,0-.594-1.088,1.474,1.474,0,0,0-.919-.27,1.641,1.641,0,0,0-1.526.778,4.553,4.553,0,0,0-.467,2.3,4.5,4.5,0,0,0,.424,2.234,7.491,7.491,0,0,0,1.046,1.35q.622.644.693.729l1.7,1.8a10.113,10.113,0,0,1,3.054,7.155,9.886,9.886,0,0,1-1,4.927q-1,1.7-3.8,1.7a4.007,4.007,0,0,1-4.284-2.969,14.974,14.974,0,0,1-.523-4.369v-2.559h2.842v2.531a12.361,12.361,0,0,0,.4,3.8,1.463,1.463,0,0,0,1.47,1.067,1.833,1.833,0,0,0,1.485-.5,2.665,2.665,0,0,0,.473-1.534q.063-1.032.064-2.318a6.823,6.823,0,0,0-2.277-4.863l-1.625-1.626a10.184,10.184,0,0,1-2.7-4.114" transform="translate(-31.001 -42.65)" fill="#fff"/>
    <path id="Trazado_82" data-name="Trazado 82" d="M143.544,174.449h5q3.308,0,4.157,2.743a13.58,13.58,0,0,1,.538,4.03,34.613,34.613,0,0,1-.128,3.464,6.538,6.538,0,0,1-1.343,3.711,4.144,4.144,0,0,1-3.224,1.166H146.47v9.769h-2.926Zm6.772,7.027a11.471,11.471,0,0,0-.4-3.634,1.551,1.551,0,0,0-1.591-1.074H146.47v10.363h1.782a1.6,1.6,0,0,0,1.654-1.089,13.451,13.451,0,0,0,.41-4.086Z" transform="translate(-35.177 -42.751)" fill="#fff"/>
    <path id="Trazado_83" data-name="Trazado 83" d="M161.889,174.45h3.52l4.114,24.883h-2.757l-.707-4.751h-4.511l-.65,4.751h-2.785Zm-.014,17.757h3.818l-1.965-13.148h-.042Z" transform="translate(-38.748 -42.751)" fill="#fff"/>
    <path id="Trazado_84" data-name="Trazado 84" d="M176.391,181.535a13.544,13.544,0,0,1,.467-4.157,5.97,5.97,0,0,1,1.018-1.952,4.476,4.476,0,0,1,3.507-1.371,3.956,3.956,0,0,1,4.157,2.842,14.189,14.189,0,0,1,.537,4.327v2.756h-2.87V181.21a12.927,12.927,0,0,0-.261-3.23,2.2,2.2,0,0,0-.629-1.117,1.511,1.511,0,0,0-.933-.276,1.619,1.619,0,0,0-1.619,1.11,10.094,10.094,0,0,0-.445,3.5v10.772a13.233,13.233,0,0,0,.4,3.952,1.532,1.532,0,0,0,1.555,1.124,1.511,1.511,0,0,0,1.542-1.131,13.79,13.79,0,0,0,.388-3.959V189.2h2.9v2.729a11.919,11.919,0,0,1-1.067,5.76,3.941,3.941,0,0,1-3.726,1.846,4.056,4.056,0,0,1-3.789-1.9,11.467,11.467,0,0,1-1.131-5.733Z" transform="translate(-43.227 -42.654)" fill="#fff"/>
    <rect id="Rectángulo_45" data-name="Rectángulo 45" width="2.926" height="24.883" transform="translate(146.652 131.698)" fill="#fff"/>
    <path id="Trazado_85" data-name="Trazado 85" d="M203.452,181.107q0-4.242,1.527-5.825a4.633,4.633,0,0,1,3.492-1.245q3.337,0,4.27,2.743a13.84,13.84,0,0,1,.552,4.327v10.971a11.221,11.221,0,0,1-1.089,5.662,4.107,4.107,0,0,1-3.811,1.774,4.153,4.153,0,0,1-3.831-1.781,11.034,11.034,0,0,1-1.111-5.655Zm6.914-.171a10.472,10.472,0,0,0-.382-3.385,1.493,1.493,0,0,0-1.541-1,1.622,1.622,0,0,0-1.612,1.018,8.94,8.94,0,0,0-.452,3.35v11.184a12.472,12.472,0,0,0,.4,3.867,1.753,1.753,0,0,0,3.2-.014,12.49,12.49,0,0,0,.4-3.852Z" transform="translate(-49.858 -42.65)" fill="#fff"/>
    <path id="Trazado_86" data-name="Trazado 86" d="M237.651,174.449h2.913v18.492a9.194,9.194,0,0,1-1.1,5.09,4.273,4.273,0,0,1-3.8,1.6,4.329,4.329,0,0,1-3.817-1.6,9.044,9.044,0,0,1-1.117-5.09V174.449h2.927V192.87a11.624,11.624,0,0,0,.205,2.977,3.234,3.234,0,0,0,.431.77,1.593,1.593,0,0,0,1.371.538,1.723,1.723,0,0,0,1.443-.593,2.976,2.976,0,0,0,.5-1.768q.035-1.173.035-1.908Z" transform="translate(-56.545 -42.751)" fill="#fff"/>
    <path id="Trazado_87" data-name="Trazado 87" d="M248.96,174.45h5.217a4.574,4.574,0,0,1,3.195.919,4.78,4.78,0,0,1,1.174,3.125q.085.9.085,2.82a8.969,8.969,0,0,1-.5,3.217,2.645,2.645,0,0,1-1.774,1.683,1.932,1.932,0,0,1,1.414.982,7.025,7.025,0,0,1,.679,2.63,53.539,53.539,0,0,1,.2,5.359,19.547,19.547,0,0,0,.227,4.149h-2.913q-.227-.453-.226-8.384,0-2.671-.523-3.1a2.45,2.45,0,0,0-1.583-.431l-1.739-.1v12.017H248.96Zm6.772,6.093q0-2.87-.516-3.322a2.192,2.192,0,0,0-1.491-.453h-1.838v8.4h1.866a1.946,1.946,0,0,0,1.244-.325,2.074,2.074,0,0,0,.565-1.244,17.5,17.5,0,0,0,.17-2.884Z" transform="translate(-61.011 -42.751)" fill="#fff"/>
    <path id="Trazado_88" data-name="Trazado 88" d="M267.107,174.449h4.5q2.814,0,3.825,1.28a7.2,7.2,0,0,1,1.04,4.318v.538a11.547,11.547,0,0,1-.411,3.45,3.031,3.031,0,0,1-1.47,1.824q2.29.933,2.29,5.98v.523q-.043,3.732-1.132,5.352a4.213,4.213,0,0,1-3.775,1.618h-4.863Zm6.461,5.642v-.085q0-2.489-.862-2.941a2.669,2.669,0,0,0-1.23-.226h-1.442v8h1.653a2.036,2.036,0,0,0,1.209-.276,1.764,1.764,0,0,0,.516-1.1,16.208,16.208,0,0,0,.156-2.686Zm.368,11.324a9.885,9.885,0,0,0-.4-3.365,1.522,1.522,0,0,0-1.555-.961h-1.951v9.882h1.8A1.653,1.653,0,0,0,273.5,196a10.6,10.6,0,0,0,.431-3.718Z" transform="translate(-65.458 -42.751)" fill="#fff"/>
    <path id="Trazado_89" data-name="Trazado 89" d="M286.95,174.45h3.52l4.114,24.883h-2.757l-.707-4.751H286.61l-.65,4.751h-2.785Zm-.014,17.757h3.818l-1.965-13.148h-.043Z" transform="translate(-69.395 -42.751)" fill="#fff"/>
    <path id="Trazado_90" data-name="Trazado 90" d="M309.9,174.449h2.587v24.883h-2.149l-5.585-17.078.17,6.277v10.8h-2.7V174.449h2.206l5.768,16.938-.3-7.2Z" transform="translate(-74.063 -42.751)" fill="#fff"/>
    <path id="Trazado_91" data-name="Trazado 91" d="M320.835,181.107q0-4.242,1.527-5.825a4.633,4.633,0,0,1,3.492-1.245q3.337,0,4.27,2.743a13.844,13.844,0,0,1,.551,4.327v10.971a11.222,11.222,0,0,1-1.088,5.662,4.107,4.107,0,0,1-3.811,1.774,4.152,4.152,0,0,1-3.831-1.781,11.034,11.034,0,0,1-1.111-5.655Zm6.914-.171a10.471,10.471,0,0,0-.382-3.385,1.493,1.493,0,0,0-1.541-1,1.622,1.622,0,0,0-1.612,1.018,8.925,8.925,0,0,0-.452,3.35v11.184a12.472,12.472,0,0,0,.4,3.867,1.753,1.753,0,0,0,3.2-.014,12.491,12.491,0,0,0,.4-3.852Z" transform="translate(-78.624 -42.65)" fill="#fff"/>
  </g>
</svg>
