<svg xmlns="http://www.w3.org/2000/svg" xmlns:xlink="http://www.w3.org/1999/xlink" width="815.108" height="527.941" viewBox="0 0 815.108 527.941">
  <defs>
    <clipPath id="clip-path">
      <rect id="Rectángulo_29" data-name="Rectángulo 29" width="169.167" height="169.167" fill="none"/>
    </clipPath>
    <clipPath id="clip-path-2">
      <rect id="Rectángulo_39" data-name="Rectángulo 39" width="117.908" height="3.801" transform="translate(0 262.07)" fill="none"/>
    </clipPath>
    <linearGradient id="linear-gradient" y1="69.948" x2="0.008" y2="69.948" gradientUnits="objectBoundingBox">
      <stop offset="0" stop-color="#00a7e7"/>
      <stop offset="0.231" stop-color="#007ec6"/>
      <stop offset="0.284" stop-color="#0074be"/>
      <stop offset="0.614" stop-color="#0074be"/>
      <stop offset="0.867" stop-color="#005288"/>
      <stop offset="0.9" stop-color="#004e81"/>
      <stop offset="1" stop-color="#004e81"/>
    </linearGradient>
    <clipPath id="clip-path-3">
      <path id="Rectángulo_41" data-name="Rectángulo 41" d="M14.546,0H513.395a14.546,14.546,0,0,1,14.546,14.546V513.394a14.547,14.547,0,0,1-14.547,14.547H14.547A14.547,14.547,0,0,1,0,513.394V14.546A14.546,14.546,0,0,1,14.546,0Z" transform="translate(117.908)" fill="none"/>
    </clipPath>
    <linearGradient id="linear-gradient-2" x1="-0.223" y1="1" x2="-0.221" y2="1" xlink:href="#linear-gradient"/>
    <clipPath id="clip-path-4">
      <rect id="Rectángulo_44" data-name="Rectángulo 44" width="460.859" height="460.859" transform="translate(151.448 30.721)" fill="none"/>
    </clipPath>
    <clipPath id="clip-path-5">
      <rect id="Rectángulo_43" data-name="Rectángulo 43" width="460.86" height="460.86" transform="translate(151.448 30.72)" fill="none"/>
    </clipPath>
  </defs>
  <g id="Grupo_105" data-name="Grupo 105" transform="translate(-468.833 -277)">
    <g id="Grupo_103" data-name="Grupo 103">
      <g id="Grupo_49" data-name="Grupo 49" transform="translate(468.833 455.417)">
        <g id="Grupo_48" data-name="Grupo 48" clip-path="url(#clip-path)">
          <path id="Trazado_59" data-name="Trazado 59" d="M169.167,84.583A84.584,84.584,0,1,1,84.583,0a84.584,84.584,0,0,1,84.584,84.583" fill="#1d0"/>
          <path id="Trazado_60" data-name="Trazado 60" d="M30.47,33.949c-2.74-.655-4.029-2.45-3.567-4.826.51-2.626,2.3-3.888,5.24-3.235,5.186,1.152-2.169-.659,2.965.71,2.433.648,3.229,2.68,3.547,4.953.412,2.947.911,2.766,1.213,5.723.2,1.946,1.1,2.7,3.036,2.922q33.487,3.8,66.962,7.718,13.848,1.606,27.692,3.254c4.028.477,5.489,2.607,4.5,6.56-5.141,20.529-10.328,41.046-15.4,61.592-.711,2.881-2.264,4.072-5.122,4.07q-36.056-.035-72.109-.026c-3.027,0-4.719-1.557-4.671-4.046s1.719-3.894,4.814-3.9q33.208-.03,66.416-.013h3.453l1.975-7.958H48.775c-5.142,0-6.056-.886-6.843-5.889q-4.707-29.916-9.514-59.816a34.744,34.744,0,0,0-1.3-5.708ZM74.254,99.21c-.795-15.953-1.583-31.763-2.381-47.788l-12.316-1.07c2.162,16.61,4.26,32.732,6.358,48.858Zm16.432.021c.66-15.22,1.308-30.16,1.965-45.322L80.339,52.647c.671,15.742,1.326,31.115,1.985,46.584Zm16.406.006c1.995-14.214,3.97-28.285,5.976-42.584l-12.351-1.534c-.662,14.916-1.307,29.457-1.958,44.118Zm8.041.1c2.367,0,4.433-.071,6.492.025,1.435.067,1.994-.431,2.335-1.881,1.9-8.06,3.937-16.086,5.929-24.124,1.161-4.683,2.324-9.366,3.553-14.315l-12.311-1.558c-2.007,14-3.972,27.717-6,41.853M43.144,48.3c2.3,17.26,4.538,34.089,6.767,50.826h7.732a7.2,7.2,0,0,0,.045-1.022Q54.7,74.255,51.649,50.418a1.985,1.985,0,0,0-1.2-1.4c-2.3-.343-4.624-.48-7.3-.723" fill="#1e1c1c"/>
          <path id="Trazado_61" data-name="Trazado 61" d="M106.284,147.73a10.46,10.46,0,0,1-10.725-10.489,10.735,10.735,0,0,1,10.626-10.727,10.938,10.938,0,0,1,10.946,10.769,10.614,10.614,0,0,1-10.847,10.447m.065-13.834a3.076,3.076,0,0,0-3.1,3.241,2.945,2.945,0,0,0,3.089,3.325c1.943.073,2.986-1.166,3.031-3.048.045-1.91-.707-3.331-3.019-3.518" fill="#1e1c1c"/>
          <path id="Trazado_62" data-name="Trazado 62" d="M58.721,147.727a10.558,10.558,0,0,1-10.793-10.214,10.587,10.587,0,1,1,21.166-.375,10.453,10.453,0,0,1-10.373,10.589m-.884-7.028c2.846-.5,4.11-1.644,3.972-3.61a3.064,3.064,0,0,0-3.336-3.17c-1.869.046-3.821,1.887-3.244,3.51.485,1.366,1.884,2.408,2.608,3.27" fill="#1e1c1c"/>
        </g>
      </g>
      <g id="Grupo_69" data-name="Grupo 69" transform="translate(638 277)">
        <g id="Grupo_61" data-name="Grupo 61" clip-path="url(#clip-path-2)">
          <rect id="Rectángulo_38" data-name="Rectángulo 38" width="117.908" height="3.801" transform="translate(0 262.07)" fill="url(#linear-gradient)"/>
        </g>
        <g id="Grupo_63" data-name="Grupo 63" transform="translate(0.092)" clip-path="url(#clip-path-3)">
          <rect id="Rectángulo_40" data-name="Rectángulo 40" width="527.941" height="527.941" transform="translate(117.908 0)" fill="url(#linear-gradient-2)"/>
        </g>
        <g id="Capa_1-2" transform="translate(154 36)">
          <path id="Trazado_93" data-name="Trazado 93" d="M0,0H455V455H0ZM41.177,165.355q.011,7.166.028,14.331H27.91v54.288H41.184c0-3.585.114-6.885-.035-10.172-.106-2.3.681-3.159,3.024-3.052,3.592.156,7.2.043,11.073.043V207.249H68.9v13.685h27.7v13.423H55.629v14.026H83.093v13.522h41.241q.085,7.219.156,14.424h-27.9v13.245q-6.612.309-13.238.61V303.3c4.6.241,8.894.476,13.189.7v13.054h4.8c11,0,22,.092,32.993-.057,2.967-.043,3.812.9,3.79,3.826-.078,11.237.078,22.473.17,33.7.007,1.242.135,2.484.213,3.833,3.372,0,6.346.213,9.277-.057,3.393-.312,4.444.845,4.387,4.294-.177,9.98-.028,9.931,9.98,9.554,2.243-.085,3.18-.738,3.074-3.1-.163-3.478-.043-6.978-.043-10.853h27.442V345.211h-4.06c-11.116,0-22.232-.121-33.348.078-3.223.057-4-1.036-3.954-4.06.185-11.237.135-22.473.2-33.7.007-1.235.2-2.477.341-4.067h26.981v-13.48H165.291V276.464H151.91v13.48c-3.833,0-7.247.128-10.64-.043-2.435-.121-3.421.646-3.287,3.194.185,3.492.043,7,.043,11.017-14.2,0-27.882,0-41.56-.007q.011-7.325.028-14.644h27.25c.234-4.585.447-8.887.667-13.2,8.007-.114,16.007-.319,24.013-.277,2.492.014,3.343-.767,3.23-3.23-.163-3.485-.043-6.978-.043-10.882h13.756V248.426h14.175V275.7h13.423V248.191h27.754V234.229h13.494V220.721h14.36v41.241h13.508v55.1c4.046,0,7.446.114,10.832-.035,2.492-.114,3.365.873,3.272,3.294-.128,3.365-.035,6.736-.035,10.534h13.622c.021,1.065.035,2.122.071,3.187.114,3.287-.98,7.716.717,9.519,1.633,1.746,6.161,1.008,9.405.937,2.9-.064,3.9.887,3.876,3.854-.106,11.116.014,22.239.078,33.355.007,1.363.177,2.719.291,4.3,3.826,0,7.247.071,10.662-.028,1.952-.057,2.79.639,2.719,2.655-.1,2.953-.149,5.92.035,8.866.156,2.527-.838,3.258-3.272,3.216-6.857-.128-13.728-.241-20.578.043-3.549.142-4.656-.8-4.557-4.479.263-10.371-.114-10.584-10.541-9.235a3.312,3.312,0,0,0-2.236,2.243q-.245,10.637.035,21.288a3.54,3.54,0,0,0,2.385,2.435,47.48,47.48,0,0,0,7.787.128c2.364-.078,3.471.781,3.322,3.308-.163,2.712.021,5.437-.05,8.156-.05,1.76.539,2.591,2.435,2.57q10.818-.1,21.643,0c1.838.014,2.57-.71,2.541-2.5-.043-2.719.071-5.444,0-8.163-.064-2.428,1.036-3.457,3.421-3.372,1.888.071,3.783,0,5.679,0q4.912-.007,4.919-4.749c.014-10.882.128-21.763-.021-32.645-.035-2.854.937-3.705,3.641-3.663,7.212.114,14.431.085,21.643.021,2.3-.021,3.109.88,3,3.173-.156,3.492-.043,6.992-.043,10.569h26.761v-12.9c-3.578,0-6.885-.128-10.179.043-2.534.135-3.748-.568-3.542-3.336a61.312,61.312,0,0,0,.021-8.156c-.156-2.57.965-3.272,3.35-3.166,3.4.149,6.807.035,10.775.035V330.993H400.3c0,6.282-.014,12.294,0,18.3q.028,9.739-9.533,9.8a5.917,5.917,0,0,1-.71,0c-3.031-.426-4,.987-3.684,3.854a24.65,24.65,0,0,1,0,5.317c-.305,2.868.66,4,3.7,3.911q9.572-.3,19.158,0c3.159.1,4.06-1.022,4.032-4.089-.106-10.882.021-21.763.1-32.645.007-1.491.206-2.974.341-4.855h13.359V317.875c-1.384-.071-2.655-.2-3.918-.2-6.623-.021-13.252-.149-19.868.05-3.017.092-3.8-1-3.755-3.883.156-11.237.085-22.473.1-33.71v-4.2c3.847,0,7.262-.163,10.647.05,2.74.177,3.393-.9,3.365-3.471-.1-11.357-.021-22.714,0-34.065,0-1.263.106-2.527.177-4.209h13.316V207.3H399.733V193.371c-9.654,0-18.846,0-28.024-.014a12.767,12.767,0,0,0,.454-2.378q.085-18.314.078-36.627a12.891,12.891,0,0,0-.575-2.648h14.147v-13.1h-13.3c-.263,4.536-.511,8.852-.76,13.16H344.678V138.679H331.1V165.56h13.785v27.7H371.8c.284,4.536.561,9.079.859,13.941h13.586V234.35H399.7v27.6H385.856V248.383H372.028V220.9H358.272V207.568H317.393v13.281H303.012v-13.3H289.638v13.494H276.166v13.189h41.241c-.021,3.187-.057,6.374-.064,9.561q-.014,4.749-4.77,4.756H289.922v13.43h13.309c.078,1.555.177,2.7.192,3.854.092,10.548.085,10.491,10.811,10.158,2.151-.064,2.932-.731,2.853-2.882-.128-3.606-.035-7.219-.035-11.251h13.686V234.215c3.656.021,7.311.17,10.96.021,2.406-.1,3.414.618,3.279,3.166-.185,3.492-.05,7-.05,10.9H358.47v13.728l.071-.071H344.984c0,3.982-.185,7.176.057,10.335.227,3.038-.632,4.316-3.89,4.032s-6.523-.064-10.186-.064V290.05H317.421c0,3.5-.22,6.58.057,9.618.305,3.343-.7,4.713-4.223,4.38-3.116-.3-6.282-.064-9.647-.064v4.365c.021,6.495-.043,13,.106,19.492.064,2.626-.838,3.585-3.478,3.4-3.528-.241-7.07-.192-10.612-.263V303.984c-4.046,0-7.368-.185-10.655.057-2.917.213-3.6-.944-3.563-3.663.149-11.237.114-22.48.121-33.717,0-1.37-.128-2.747-.22-4.564H261.92q-.021-20.688-.035-41.369h13.558V193.187H261.877V179.608h27.7V165.354H303.3v27.477h27.279V179.494H317.13V151.811H303.239V138.353H276.081V124.305h13.487v-13.43l-.092.114h13.969v13.047H317v-27.5H303.075V68.917l-.114.121h14V28.017h-82.78V41.908H220.544V55.4H206.574V68.683H193.336V41.688H206.6V27.967H179.154V82.681c-4.962.263-9.512.5-14.055.738q.181-15.567.348-31.133c.036-3.393,0-6.786,0-10.562H151.733V28.017H137.976V55.551H151.47V69.08H138.062V83.014c2.257,0,4.252-.028,6.239,0q10.424.16,20.841.341l.3,13.245H152.01v14.253H137.742V138.53H96.458v13.146H82.716V138.665H55.43v26.817H41.071V138.629H27.9v26.753H41.17Zm372.759,14.2v13.38h13.416V179.658H413.83q.021-7.155.035-14.317h13.245v-26.7h-27.03v13.3h13.884v13.5H386.487v14.111h27.456ZM123.872,124.206V27.974H27.91v96.231h95.962Zm303.26-.092V27.981H331.05v96.132ZM28.06,331.4c-.078,1.058-.2,1.86-.2,2.662.028,29.919.114,59.839.028,89.758-.007,3.152,1.363,3.365,3.826,3.357,29.209-.05,58.412-.085,87.621.043,3.279.014,4.209-.916,4.216-4.16q.043-43.814.433-87.621c.035-3.45-.958-4.337-4.358-4.316-29.2.135-58.412.071-87.621.085-1.278,0-2.548.128-3.947.2Zm220.515-13.487c0,8.035-.128,15.822.064,23.6.078,3.017-.944,3.932-3.84,3.741-3.251-.22-6.523-.05-10.037-.05,0,2.69.007,4.912,0,7.134-.043,7.538.838,6.651-6.509,6.743-2.328.028-4.656,0-7.276,0v4.287q.021,16.323.05,32.638,0,4.649-4.564,4.664c-9.434.021-9.356.021-9.064,9.419.071,2.328.894,3.1,3.152,3.074,6.736-.085,13.48-.1,20.216.007,2.413.035,3.336-.731,3.286-3.258-.135-6.857.078-13.721-.078-20.571-.064-2.69.859-3.45,3.464-3.393,6.736.156,13.48.064,20.216.043,1.249,0,2.5-.114,3.783-.177V372.944c-3.67,0-7.091-.128-10.491.043-2.541.128-3.365-.923-3.251-3.315.128-2.712.149-5.444.028-8.156-.114-2.506.944-3.308,3.365-3.194,3.485.163,6.978.043,10.505.043V317.925H248.575Zm-55.814,67.973h13.4V359.116c-3.556,0-6.857.064-10.158-.021-2.243-.064-2.79,1.015-2.719,3.059.121,3.485.035,6.985.035,10.91H165.887c-.071,1.484-.156,2.527-.163,3.578-.071,10.832-.064,10.768-11.116,10.321-2.57-.107-3.606-1.015-3.492-3.606.149-3.365.035-6.743.035-10.4-3.762,0-6.935.092-10.1-.035-2.044-.085-2.7.774-2.676,2.7.078,7.091.128,14.182.078,21.274-.014,2.215,1,2.875,3.031,2.825a52.662,52.662,0,0,1,8.135.142,3.686,3.686,0,0,1,2.413,2.477,52.89,52.89,0,0,1,.128,7.432c0,4.9-.007,4.834-4.869,4.947-10.285.234-8.575-2.087-8.8,9.455-.05,2.321.823,3.074,3.116,3.031,6.616-.121,13.238-.192,19.854.028,3.052.1,3.783-.994,3.719-3.854-.17-7.659-.057-15.325-.057-23.282,1.718-.149,3.095-.355,4.479-.362,6.381-.035,12.77-.149,19.144.043,3.017.092,4.351-.71,4.082-3.947-.256-3.038-.057-6.112-.057-9.916Zm27.719-41.539V330.581h13.494V317.662c-3.542,0-6.949-.128-10.335.043-2.52.128-3.315-.852-3.2-3.286.163-3.386.043-6.779.043-10.151H207.128c0,3.223-.213,6.19.057,9.107.319,3.478-1.008,4.422-4.394,4.365-11.229-.192-22.459-.128-33.688.014-1.157.014-3.223,1.072-3.294,1.8-.341,3.592-.156,7.233-.156,11.166h4.28c11.229,0,22.466.092,33.7-.064,2.875-.043,3.748.944,3.606,3.656-.163,3.272-.035,6.552-.035,10.044H220.48ZM41.553,304.161c0,3.727-.149,7.247.114,10.747a3.29,3.29,0,0,0,2.392,2.051c3.762.227,7.553.1,11.329.1H68.506v-12.9H41.553Zm385.529,69.031H414.114c0,8.248-.064,16.255.106,24.255.014.76,1.427,2.044,2.286,2.129a39.3,39.3,0,0,0,8.12,0c.88-.092,2.328-1.342,2.35-2.094.17-8.007.107-16.014.107-24.3ZM358.2,400.13h.014V396.6c.014-10.3.014-10.25-10.193-9.7-2.087.114-2.91.767-2.853,2.932.135,4.593.057,9.185.064,13.778.021,10.371.014,10.328,10.335,9.568,1.952-.142,2.719-.838,2.662-2.79C358.137,406.966,358.2,403.552,358.2,400.13Zm14.693.838c0,8.227-.057,16.12.092,24.013a2.939,2.939,0,0,0,1.966,2.066c3.379.22,6.786.1,10.307.1V400.691c-3.57,0-6.864-.007-10.158.007a21.984,21.984,0,0,0-2.208.27Zm40.141,13.04h.014v-3.9c0-9.838,0-9.774-9.725-9.476-2.186.064-2.9.8-2.854,2.9.092,4.841.028,9.682.028,14.523q0,9.32,9.356,9.093a5.923,5.923,0,0,1,.71,0c1.881.192,2.506-.767,2.477-2.52-.05-3.542-.014-7.084-.014-10.626Zm-205.9-138.083c4.067,0,7.709.092,11.329-.078a2.692,2.692,0,0,0,1.945-1.718c.185-3.833.092-7.673.092-11.6H207.128v13.394ZM55.054,269.188q.014-6.963-6.779-6.963t-6.836,6.892q-.043,6.892,6.942,6.807,6.658,0,6.672-6.743Zm138.431,21v13.1h12.834v-13.1Zm54.2-.717v-12.94H234.769v12.94ZM69.2,289.354h13V276.5h-13v12.855Zm-28.386.085v-12.9H28.045v12.9Zm235.72,55.913v12.756h12.514V345.353Zm-1.242,13.92c-1.441-.071-2.484-.156-3.528-.163-10.576-.071-10.782.121-9.455,10.711A3.349,3.349,0,0,0,264.631,372a36.606,36.606,0,0,0,8.128-.007,3.561,3.561,0,0,0,2.421-2.392C275.47,366.328,275.293,363.013,275.293,359.272ZM392.89,399.7c7.737-.078,6.5.7,6.509-6.239,0-7.191,1.356-6.5-6.58-6.516-7.616-.014-6.36-.561-6.353,6.41s-1.221,6.289,6.424,6.353ZM248.7,400.7c0,3.769-.135,7.063.1,10.335a3.083,3.083,0,0,0,2.115,2.016c10.009,1.441,11.393.128,10.733-9.831-.007-.121.05-.284-.014-.348-.681-.731-1.334-2.023-2.066-2.073-3.4-.22-6.829-.1-10.867-.1Zm-62.5,26.462c7.148-.107,6.545,1.086,6.53-5.877-.014-7.29.916-6.566-6.637-6.566-7.347,0-6.225-.561-6.289,6.147-.057,6.3-.014,6.3,6.388,6.3Zm54.976,0c7.084-.121,6.41,1.051,6.388-5.672-.021-7.616,1.072-6.722-6.793-6.779-5.75-.043-5.75,0-5.757,5.771v.355C235.067,428.311,234.5,427.033,241.178,427.161Zm102.946-6.254c-.1-6.488.93-6.225-5.537-6.2-7.418.043-7.049-.944-7.034,5.821.007,7.695-.518,6.559,5.785,6.609,6.786.057,6.786.014,6.786-6.239Z" fill="#fff"/>
          <path id="Trazado_94" data-name="Trazado 94" d="M227.594,108l-.3-13.245-.057.064,14.062-.745V39.36h27.442V53.081h-13.26V80.076h13.238V66.795h13.969V53.3h13.643V39.41h82.78V80.431h-14V53.436H351.7V80.154H338.313V94.081h13.281V80.026q6.8.138,13.607.284v27.619h13.927v27.5H365.571V122.382H351.608V108.362H338.171v13.913h13.522v13.43H338.207v14.048h27.158v13.458h13.891v27.683H392.7v13.338H365.422V176.754H351.7l.106.128V163.459H268.778v13.522H255.37v27.591h13.366l-.114-.106V218.84H282.84v13.423l.106-.106H241.308V218.783H227.481v-14.36H214.15V176.648h13.529v14.161h13.373V176.747H227.594q-.011-6.719-.028-13.444l-.106.106h27.492V149.632H241.273V135.6H227.459l.1.106V122.126l-.1.1h13.593V107.908H227.466l.092.078Zm27.79,14.331h13.678v13.125H282.9V107.873h13.685v27.584h13.969V122.325c4.735,0,9.072,0,13.416-.014v13.231h13.678V122.424h-13.8q.149-15.6.291-31.2c.028-3.514,0-7.027,0-10.91h13.437V53.528H310.388V80.48H269.211V94.428H283v13.536H268.686V94.6H241.734v13.444H255.5c0,5.04,0,9.71-.007,14.367H241.705V135.52H255.4v-13.2Z" transform="translate(-62.14 -11.421)"/>
          <path id="Trazado_95" data-name="Trazado 95" d="M484.671,272.354H512.71V286.28H540.1v26.938H526.785c-.071,1.682-.17,2.946-.177,4.209-.028,11.357-.107,22.715,0,34.065.021,2.577-.625,3.648-3.365,3.471-3.386-.213-6.793-.05-10.647-.05v4.2c-.014,11.237.05,22.473-.1,33.71-.043,2.875.738,3.968,3.755,3.883,6.616-.2,13.245-.071,19.868-.05,1.271,0,2.534.128,3.918.2V409.57H526.679c-.135,1.881-.334,3.365-.341,4.855-.071,10.882-.206,21.763-.1,32.645.028,3.066-.873,4.188-4.032,4.089q-9.572-.309-19.158,0c-3.038.092-4-1.043-3.7-3.911a25.594,25.594,0,0,0,0-5.317c-.312-2.868.653-4.287,3.684-3.854a4.735,4.735,0,0,0,.71,0q9.568-.057,9.533-9.8c-.014-6.005,0-12.017,0-18.3H498.946v27.371c-3.968,0-7.382.114-10.775-.036-2.378-.106-3.507.6-3.35,3.166a61.317,61.317,0,0,1-.021,8.156c-.206,2.768,1,3.471,3.542,3.336,3.294-.17,6.6-.043,10.179-.043v12.9H471.76c0-3.578-.114-7.084.043-10.569.1-2.293-.71-3.194-3-3.173-7.212.064-14.431.092-21.643-.021-2.7-.043-3.677.809-3.641,3.663.149,10.882.035,21.763.021,32.645q0,4.735-4.919,4.749c-1.9,0-3.783.064-5.679,0-2.385-.085-3.485.944-3.421,3.372.071,2.719-.043,5.444,0,8.163.028,1.789-.7,2.513-2.541,2.5q-10.818-.1-21.643,0c-1.9.014-2.484-.809-2.435-2.57.071-2.719-.114-5.451.05-8.156.156-2.527-.951-3.379-3.322-3.308A46.7,46.7,0,0,1,391.84,492a3.539,3.539,0,0,1-2.385-2.435q-.309-10.637-.035-21.288a3.3,3.3,0,0,1,2.236-2.243c10.427-1.349,10.8-1.129,10.541,9.235-.092,3.677,1.015,4.628,4.557,4.479,6.85-.277,13.721-.163,20.578-.043,2.428.043,3.428-.681,3.272-3.216-.185-2.946-.135-5.913-.035-8.866.071-2.016-.767-2.712-2.719-2.655-3.414.092-6.836.028-10.662.028-.114-1.576-.284-2.939-.291-4.3-.064-11.116-.185-22.239-.078-33.355.028-2.96-.965-3.911-3.876-3.854-3.244.071-7.773.8-9.405-.937-1.7-1.81-.6-6.239-.717-9.519-.035-1.065-.05-2.122-.078-3.187l-.121.121c3.535.071,7.084.021,10.6.263,2.641.185,3.542-.774,3.478-3.4-.156-6.495-.085-13-.106-19.492v-4.365c3.365,0,6.53-.234,9.647.064,3.528.334,4.529-1.036,4.223-4.38-.277-3.038-.057-6.119-.057-9.618h13.544V355.24c3.663,0,6.942-.22,10.186.064s4.124-.994,3.89-4.032c-.241-3.159-.057-6.353-.057-10.335h13.558V368.67H457.741v14.055H499.1V354.914H485.445V341.008H471.454V327.28H457.911c0-3.9-.142-7.411.05-10.9.135-2.555-.873-3.265-3.279-3.166-3.649.149-7.3,0-10.96-.021l.114.142V299.746H430.256l.128.085V286.55h40.879v13.331h13.756v27.485h13.827V340.93H512.7v-27.6H499.237V286.181H485.651c-.3-4.862-.582-9.4-.859-13.941l-.107.114ZM471.483,396.077H432.016c-2.449,0-2.044,1.8-2.059,3.265-.092,11.591-.064,23.19-.3,34.782-.064,3.166,1.036,4.053,4.082,4.018,11.357-.142,22.715-.043,34.072-.071a33.125,33.125,0,0,0,3.67-.383Z" transform="translate(-112.963 -78.996)"/>
          <path id="Trazado_96" data-name="Trazado 96" d="M135.282,135.649H39.32V39.41h95.962v96.231Zm-81.573-81.6v67.2h67.015v-67.2Z" transform="translate(-11.41 -11.436)"/>
          <path id="Trazado_97" data-name="Trazado 97" d="M562.462,135.552H466.38V39.42h96.082v96.132ZM481.13,54.035v67.207h67.008v-67.2H481.13Z" transform="translate(-135.33 -11.439)"/>
          <path id="Trazado_98" data-name="Trazado 98" d="M39.449,466.764c1.4-.071,2.676-.2,3.947-.2,29.209-.014,58.412.05,87.621-.085,3.4-.014,4.387.873,4.358,4.316q-.4,43.814-.433,87.621c0,3.244-.937,4.174-4.216,4.16-29.2-.128-58.412-.092-87.621-.043-2.463,0-3.84-.206-3.826-3.357.085-29.919,0-59.839-.028-89.758,0-.8.114-1.6.2-2.662ZM121.6,514.848h-.163c0-10.172-.078-20.344.05-30.516.035-2.882-.873-3.954-3.854-3.94q-30.335.149-60.669,0c-2.818-.014-3.947.717-3.932,3.769q.128,30.516-.085,61.031c-.014,2.662.6,3.727,3.528,3.705q30.686-.181,61.379,0c3.024.014,3.833-1.051,3.8-3.9-.128-10.051-.05-20.109-.05-30.161Z" transform="translate(-11.389 -135.359)"/>
          <path id="Trazado_99" data-name="Trazado 99" d="M78.054,222.029V195.211h27.286v13.011h13.742V195.076h41.284l-.085-.106q.011,33.625.014,67.242a7.8,7.8,0,0,1-.454,1.626H132.59l.1.092V249.691h13.962V236.005H132.888c0-1.824.064-3.216-.014-4.607-.17-3.258-.4-6.516-.61-9.774,4.756.22,9.5.433,14.339.653V208.606H133.165c-.3,4.515-.575,8.795-.852,13.075-4.309.192-8.624.383-13.331.6v13.508H91.42V221.936H77.94l.106.085Z" transform="translate(-22.616 -56.575)"/>
          <path id="Trazado_100" data-name="Trazado 100" d="M135.877,417.128h41.568c0-4.018.135-7.524-.043-11.017-.135-2.548.845-3.315,3.287-3.194,3.4.163,6.807.043,10.64.043V389.48h13.38V403H218.2v13.48H191.222c-.135,1.6-.334,2.832-.341,4.067-.064,11.237-.014,22.473-.2,33.7-.05,3.017.731,4.117,3.954,4.06,11.116-.2,22.232-.078,33.348-.078h4.06V471.21H204.6c0,3.876-.121,7.375.043,10.853.114,2.364-.823,3.017-3.074,3.1-10.009.369-10.151.426-9.98-9.554.064-3.45-.994-4.607-4.387-4.294-2.924.27-5.9.057-9.277.057-.078-1.349-.206-2.591-.213-3.833-.085-11.237-.248-22.473-.17-33.7.021-2.917-.823-3.862-3.79-3.826-11,.156-22,.064-32.993.057h-4.8V417.014l-.092.114Z" transform="translate(-39.426 -113.016)"/>
          <path id="Trazado_101" data-name="Trazado 101" d="M333.331,447.877H346.35v40.439c-3.528,0-7.02.121-10.505-.043-2.421-.114-3.478.7-3.365,3.194.121,2.712.1,5.444-.028,8.156-.114,2.392.71,3.443,3.251,3.315,3.4-.17,6.821-.043,10.491-.043v12.876c-1.285.064-2.534.177-3.783.177-6.736.021-13.48.114-20.216-.043-2.605-.057-3.528.7-3.464,3.393.156,6.857-.057,13.721.078,20.571.05,2.527-.866,3.3-3.286,3.258-6.736-.107-13.48-.092-20.216-.007-2.25.028-3.074-.745-3.152-3.074-.3-9.4-.369-9.4,9.064-9.419q4.564-.007,4.564-4.664-.021-16.323-.05-32.638V489.04c2.619,0,4.948.021,7.276,0,7.347-.092,6.474.8,6.509-6.743.014-2.222,0-4.444,0-7.134,3.514,0,6.786-.17,10.037.05,2.9.192,3.918-.724,3.84-3.741-.2-7.78-.064-15.567-.064-23.6Z" transform="translate(-84.749 -129.959)"/>
          <path id="Trazado_102" data-name="Trazado 102" d="M249.334,532.667c0,3.8-.2,6.878.057,9.916.277,3.237-1.058,4.039-4.082,3.947-6.374-.192-12.763-.078-19.144-.043-1.384.007-2.761.22-4.479.362,0,7.957-.114,15.623.057,23.282.064,2.861-.667,3.961-3.72,3.854-6.608-.22-13.238-.142-19.854-.028-2.293.043-3.166-.71-3.116-3.031.227-11.542-1.484-9.221,8.8-9.455,4.862-.114,4.862-.043,4.869-4.948a52.892,52.892,0,0,0-.128-7.432,3.657,3.657,0,0,0-2.413-2.477,52.7,52.7,0,0,0-8.135-.142c-2.03.05-3.045-.61-3.031-2.825.043-7.091,0-14.182-.078-21.274-.021-1.924.632-2.783,2.676-2.7,3.166.128,6.339.035,10.1.035,0,3.656.114,7.034-.035,10.4-.114,2.6.923,3.507,3.492,3.606,11.052.447,11.045.5,11.116-10.321,0-1.043.092-2.087.163-3.578h27.435c0-3.925.092-7.425-.035-10.91-.071-2.037.476-3.116,2.719-3.059,3.3.092,6.6.021,10.158.021v26.775h-13.4Z" transform="translate(-56.566 -146.782)"/>
          <path id="Trazado_103" data-name="Trazado 103" d="M332.973,288.479h-14.36l.121.142v-27.8h-27.8l.114.106V247.174h14.331V233.56h13.444v13.9h27.605l-.121-.092v13.572h13.565v27.541H346.311l.114.142V275.135H332.838v13.494l.135-.142Z" transform="translate(-84.42 -67.772)"/>
          <path id="Trazado_104" data-name="Trazado 104" d="M507.172,249.939H480.255v-27.7H466.47V195.36h13.579v13.089h27.073l-.106-.078a12.825,12.825,0,0,1,.6,2.662q.021,18.314-.078,36.627a12.4,12.4,0,0,1-.461,2.385Z" transform="translate(-135.356 -56.688)"/>
          <path id="Trazado_105" data-name="Trazado 105" d="M288.292,324.458v13.962H260.538v27.513H247.115V338.655H232.94l.106.135q-.053-13.895-.1-27.79h13.87v13.579h41.6l-.135-.121Z" transform="translate(-67.593 -90.243)"/>
          <path id="Trazado_106" data-name="Trazado 106" d="M80.3,280.656H66.645V294.2c-3.883,0-7.482.114-11.073-.043-2.342-.106-3.13.752-3.024,3.052.149,3.294.035,6.594.035,10.172H39.31V253.094h13.3l-.085-.114v13.707H80.2V280.77l.092-.121Z" transform="translate(-11.407 -73.408)"/>
          <path id="Trazado_107" data-name="Trazado 107" d="M288.177,468.721H274.9c0-3.492-.128-6.779.035-10.044.135-2.712-.731-3.7-3.606-3.656-11.229.163-22.459.064-33.7.064h-4.28c0-3.932-.185-7.574.156-11.166.071-.724,2.137-1.789,3.294-1.8,11.229-.135,22.466-.2,33.688-.014,3.386.057,4.713-.887,4.394-4.365-.27-2.917-.057-5.884-.057-9.107h13.352c0,3.372.121,6.772-.043,10.151-.114,2.435.681,3.407,3.2,3.287,3.386-.17,6.786-.043,10.335-.043v12.919H288.177v13.771Z" transform="translate(-67.697 -124.376)"/>
          <path id="Trazado_108" data-name="Trazado 108" d="M175.255,366.577l-.163-14.431-.142.114h13.863V310.99h13.941v27.79h13.473l-.106-.135V352.1H202.364c0,3.9-.121,7.4.043,10.882.114,2.47-.738,3.244-3.23,3.23-8-.043-16.007.17-24.014.277l.1.085Z" transform="translate(-50.766 -90.24)"/>
          <path id="Trazado_109" data-name="Trazado 109" d="M221.555,94.778c-6.949-.114-13.891-.241-20.841-.341-1.995-.028-3.982,0-6.239,0V80.5h13.409V66.974H194.39V39.44h13.756V53.147H221.86c0,3.776.028,7.169,0,10.562q-.16,15.567-.355,31.14l.057-.057Z" transform="translate(-56.406 -11.444)"/>
          <path id="Trazado_110" data-name="Trazado 110" d="M147.064,357.653H105.823V344.131H78.36V330.1h40.978l-.106-.135v14.388h27.69v13.409Z" transform="translate(-22.738 -95.748)"/>
          <path id="Trazado_111" data-name="Trazado 111" d="M124.727,313.488V300.065h-27.7V286.38l-.092.121h14.126V272.68h13.714v13.813H138.2l-.1-.092v13.82H152V313.36H124.62l.106.135Z" transform="translate(-28.126 -79.124)"/>
          <path id="Trazado_112" data-name="Trazado 112" d="M369.01,369.155H382.4c.092,1.824.22,3.194.22,4.564-.007,11.237.028,22.48-.121,33.717-.035,2.719.646,3.883,3.563,3.663,3.286-.241,6.6-.057,10.655-.057v26.995l.121-.121H383.214c0-3.79-.1-7.169.035-10.534.092-2.428-.781-3.407-3.272-3.294-3.386.156-6.793.036-10.832.036v-55.1l-.128.128Z" transform="translate(-107.076 -107.079)"/>
          <path id="Trazado_113" data-name="Trazado 113" d="M449.265,329.93v27.648H435.58c0,4.032-.092,7.645.035,11.251.078,2.151-.7,2.818-2.854,2.882-10.725.334-10.718.39-10.811-10.158-.007-1.15-.114-2.3-.192-3.854H408.45v-13.43H431.1q4.77,0,4.77-4.756c.007-3.187.043-6.374.064-9.561l-.142.121h13.586l-.114-.142Z" transform="translate(-118.521 -95.736)"/>
          <path id="Trazado_114" data-name="Trazado 114" d="M194.041,183.757V156.081h14.268l-.142-.121v13.579h13.579l-.1-.106v27.811l.106-.106H208.046V183.65H193.97l.085.106Z" transform="translate(-56.285 -45.255)"/>
          <path id="Trazado_115" data-name="Trazado 115" d="M430.321,319.052H389.08V305.864h13.473V292.37h13.373v13.3h14.381l-.128-.085v13.593l.142-.121Z" transform="translate(-112.9 -84.837)"/>
          <path id="Trazado_116" data-name="Trazado 116" d="M363.445,310.93q.021,20.688.043,41.369l.128-.128h-13.5V310.93l-.135.142h13.586l-.114-.142Z" transform="translate(-101.554 -90.223)"/>
          <path id="Trazado_117" data-name="Trazado 117" d="M577.5,222.116v-13.5H563.62v-13.3h27.03v26.7H577.4l.092.092Z" transform="translate(-163.547 -56.676)"/>
          <path id="Trazado_118" data-name="Trazado 118" d="M396.647,232.93v14.253h-27.7l.121.092V233.058h27.683l-.106-.128Z" transform="translate(-107.059 -67.59)"/>
          <path id="Trazado_119" data-name="Trazado 119" d="M571.845,232.94q-.021,7.155-.035,14.317l.114-.114H544.46V233.032h27.484l-.092-.092Z" transform="translate(-157.987 -67.593)"/>
          <path id="Trazado_120" data-name="Trazado 120" d="M136.016,402.5V389.265h27.9a1.236,1.236,0,0,1-.1-.085c-.213,4.316-.433,8.617-.66,13.2H135.91l.106.114Z" transform="translate(-39.437 -112.929)"/>
          <path id="Trazado_121" data-name="Trazado 121" d="M58.533,428.49H85.485v12.9H72.367c-3.776,0-7.567.128-11.329-.1a3.261,3.261,0,0,1-2.392-2.051c-.263-3.5-.114-7.027-.114-10.747Z" transform="translate(-16.972 -124.336)"/>
          <path id="Trazado_122" data-name="Trazado 122" d="M596.374,525.74c0,8.284.064,16.3-.107,24.3-.014.745-1.469,2-2.349,2.094a39.8,39.8,0,0,1-8.12,0c-.859-.092-2.271-1.37-2.286-2.13-.17-8-.107-16.007-.107-24.255h12.969Z" transform="translate(-169.284 -152.555)"/>
          <path id="Trazado_123" data-name="Trazado 123" d="M52.587,222.013H39.32V195.26H52.494v26.853l.092-.092Z" transform="translate(-11.41 -56.659)"/>
          <path id="Trazado_124" data-name="Trazado 124" d="M499.311,558.2c0,3.414-.071,6.836.028,10.25.057,1.952-.71,2.648-2.662,2.79-10.321.76-10.314.8-10.335-9.568-.007-4.593.071-9.192-.064-13.778-.064-2.158.76-2.818,2.854-2.932,10.214-.547,10.207-.6,10.193,9.7V558.2Z" transform="translate(-141.103 -158.077)"/>
          <path id="Trazado_125" data-name="Trazado 125" d="M525.337,564.755c1.072-.135,1.64-.263,2.208-.27,3.294-.021,6.587-.007,10.158-.007v26.455c-3.528,0-6.928.121-10.307-.1a2.913,2.913,0,0,1-1.966-2.066C525.287,580.875,525.337,572.975,525.337,564.755Z" transform="translate(-152.435 -163.794)"/>
          <path id="Trazado_126" data-name="Trazado 126" d="M576.756,577.738c0,3.542-.035,7.084.014,10.626.021,1.746-.6,2.712-2.477,2.52-.234-.021-.476,0-.71,0q-9.356.234-9.356-9.093c0-4.841.064-9.682-.028-14.523-.043-2.1.667-2.839,2.854-2.9,9.725-.3,9.725-.362,9.725,9.476v3.9h-.014Z" transform="translate(-163.714 -163.738)"/>
          <path id="Trazado_127" data-name="Trazado 127" d="M57.87,233.052H72.23l-.106-.085v14.211H57.913l.085.114q-.011-7.166-.028-14.331Z" transform="translate(-16.792 -67.598)"/>
          <path id="Trazado_128" data-name="Trazado 128" d="M291.83,383.234V369.84H305.2c0,3.918.092,7.766-.092,11.6-.028.632-1.242,1.682-1.945,1.718-3.627.177-7.262.078-11.329.078Z" transform="translate(-84.681 -107.317)"/>
          <path id="Trazado_129" data-name="Trazado 129" d="M72.014,376.376q-.014,6.743-6.672,6.743-6.928,0-6.942-6.807t6.836-6.892q6.85-.085,6.779,6.963Z" transform="translate(-16.946 -107.195)"/>
          <path id="Trazado_130" data-name="Trazado 130" d="M523.689,208.42c.248-4.309.5-8.617.76-13.16h13.3v13.1H523.59a1.036,1.036,0,0,0,.092.071Z" transform="translate(-151.931 -56.659)"/>
          <path id="Trazado_131" data-name="Trazado 131" d="M214.115,150.281V136.028h13.43l-.092-.078v14.317l.1-.1H213.98l.142.121Z" transform="translate(-62.091 -39.449)"/>
          <path id="Trazado_132" data-name="Trazado 132" d="M130.552,407.78q-.011,7.325-.028,14.651s.092-.114.092-.106c-4.3-.227-8.6-.454-13.2-.7V408.518q6.633-.309,13.231-.61l-.106-.121Z" transform="translate(-34.072 -118.326)"/>
          <path id="Trazado_133" data-name="Trazado 133" d="M272.6,408.79h12.834v13.1H272.6Z" transform="translate(-79.101 -118.619)"/>
          <path id="Trazado_134" data-name="Trazado 134" d="M343.679,402.49H330.76V389.55h12.919Z" transform="translate(-95.977 -113.036)"/>
          <path id="Trazado_135" data-name="Trazado 135" d="M97.52,402.365V389.51h13v12.855Z" transform="translate(-28.298 -113.025)"/>
          <path id="Trazado_136" data-name="Trazado 136" d="M52.31,402.468H39.54v-12.9H52.31Z" transform="translate(-11.473 -113.042)"/>
          <path id="Trazado_137" data-name="Trazado 137" d="M389.6,486.51h12.514v12.756H389.6Z" transform="translate(-113.051 -141.171)"/>
          <path id="Trazado_138" data-name="Trazado 138" d="M324.414,310.93v13.508H310.92l.135.121V310.965l-.107.106h13.586Z" transform="translate(-90.22 -90.223)"/>
          <path id="Trazado_139" data-name="Trazado 139" d="M582.987,253.066h13.522V266.34H583.094V252.96l-.114.106Z" transform="translate(-169.164 -73.402)"/>
          <path id="Trazado_140" data-name="Trazado 140" d="M382.31,506.05c0,3.741.177,7.056-.114,10.328a3.547,3.547,0,0,1-2.421,2.392,36.183,36.183,0,0,1-8.128.007,3.349,3.349,0,0,1-2.321-2.179c-1.327-10.591-1.122-10.782,9.455-10.711C379.825,505.887,380.862,505.979,382.31,506.05Z" transform="translate(-107.003 -146.792)"/>
          <path id="Trazado_141" data-name="Trazado 141" d="M550.872,557.858c-7.645-.064-6.417.61-6.424-6.353s-1.264-6.417,6.353-6.41c7.929.014,6.587-.682,6.58,6.516,0,6.942,1.228,6.161-6.509,6.239Z" transform="translate(-157.961 -158.167)"/>
          <path id="Trazado_142" data-name="Trazado 142" d="M350.374,564.466c4.039,0,7.46-.121,10.867.1.731.05,1.391,1.342,2.066,2.073.057.064,0,.227.014.348.66,9.959-.724,11.265-10.733,9.831a3.1,3.1,0,0,1-2.115-2.016c-.234-3.265-.1-6.559-.1-10.335Z" transform="translate(-101.657 -163.783)"/>
          <path id="Trazado_143" data-name="Trazado 143" d="M259.717,596.665c-6.4,0-6.452,0-6.388-6.3.064-6.708-1.058-6.147,6.289-6.147,7.553,0,6.623-.724,6.637,6.566.014,6.963.618,5.771-6.53,5.877Z" transform="translate(-73.501 -169.519)"/>
          <path id="Trazado_144" data-name="Trazado 144" d="M337.271,596.667c-6.68-.128-6.112,1.15-6.161-6.325v-.355c0-5.778,0-5.806,5.757-5.771,7.872.057,6.772-.838,6.793,6.779C343.681,597.718,344.355,596.54,337.271,596.667Z" transform="translate(-96.079 -169.521)"/>
          <path id="Trazado_145" data-name="Trazado 145" d="M479.678,590.407c0,6.254,0,6.3-6.786,6.239-6.3-.05-5.778,1.079-5.785-6.609-.007-6.765-.376-5.785,7.034-5.821,6.467-.036,5.437-.3,5.537,6.2Z" transform="translate(-135.539 -169.514)"/>
          <path id="Trazado_146" data-name="Trazado 146" d="M177.12,194.977H191.2v13.487H204.9q.011,6.719.028,13.444l.092-.106H191.494v27.776h13.331v14.36l.078-.092H191.338v13.565l.106-.085H177.5v41.269H163.64V305.185H135.95V290.8h27.378V277.658h-13.9v-13.82h27.25a7.576,7.576,0,0,0,.454-1.626q.011-33.625-.014-67.242Z" transform="translate(-39.449 -56.575)" fill="#fff"/>
          <path id="Trazado_147" data-name="Trazado 147" d="M305.492,113.767V100.23H291.7V86.282h41.177V59.33h27.194V86.119H346.634c0,3.89.021,7.4,0,10.91q-.128,15.6-.291,31.2l.114-.1h-13.4v13.132H319.085V113.674H305.4l.092.1Z" transform="translate(-84.643 -17.216)" fill="#fff"/>
          <path id="Trazado_148" data-name="Trazado 148" d="M368.7,227.623H341.017v14.218H313.412v-13.9H299.967v13.615H285.636v13.756H272.27V227.722h13.409V214.2h83.029v13.423Z" transform="translate(-79.005 -62.155)" fill="#fff"/>
          <path id="Trazado_149" data-name="Trazado 149" d="M294.157,130.457v27.584H280.315V144.916H266.637l.114.1V130.634H252.98V117.19h26.952v13.366h14.317l-.092-.1Z" transform="translate(-73.408 -34.005)" fill="#fff"/>
          <path id="Trazado_150" data-name="Trazado 150" d="M288.443,305.465v13.593h-41.6V305.48H232.97l.085.078V292l-.078.092H246.8v13.373h41.639Z" transform="translate(-67.601 -84.73)" fill="#fff"/>
          <path id="Trazado_151" data-name="Trazado 151" d="M318.734,299.767H305.148V286.344H290.93V271.97h27.8v27.8Z" transform="translate(-84.42 -78.918)" fill="#fff"/>
          <path id="Trazado_152" data-name="Trazado 152" d="M232.95,202.761V174.95h13.813v14.033h13.678v13.778Z" transform="translate(-67.595 -50.766)" fill="#fff"/>
          <path id="Trazado_153" data-name="Trazado 153" d="M421.407,86.071q-6.8-.138-13.607-.284l.092.114V59.19H421.3V86.185l.114-.121Z" transform="translate(-118.332 -17.175)" fill="#fff"/>
          <path id="Trazado_154" data-name="Trazado 154" d="M233.13,232.869h13.458v14.062H233.215V232.77Z" transform="translate(-67.648 -67.543)" fill="#fff"/>
          <path id="Trazado_155" data-name="Trazado 155" d="M402.432,150.483H388.91V136.57h13.437v14.019l.092-.106Z" transform="translate(-112.851 -39.629)" fill="#fff"/>
          <path id="Trazado_156" data-name="Trazado 156" d="M232.947,150.257V135.94h13.586v14.317H232.94Z" transform="translate(-67.593 -39.446)" fill="#fff"/>
          <path id="Trazado_157" data-name="Trazado 157" d="M402.371,96.66v14.055H389.09V96.788h13.387l-.1-.121Z" transform="translate(-112.903 -28.048)" fill="#fff"/>
          <path id="Trazado_158" data-name="Trazado 158" d="M368.68,156.346h13.8v13.118H368.8V156.24Z" transform="translate(-106.98 -45.336)" fill="#fff"/>
          <path id="Trazado_159" data-name="Trazado 159" d="M266.633,156.247v13.2H252.94V156.339h13.8l-.106-.1Z" transform="translate(-73.396 -45.336)" fill="#fff"/>
          <path id="Trazado_160" data-name="Trazado 160" d="M213.957,155.97h13.572v13.579H213.95V155.97Z" transform="translate(-62.082 -45.258)" fill="#fff"/>
          <path id="Trazado_161" data-name="Trazado 161" d="M487.982,446.7v41.61c-1.207.128-2.442.376-3.67.383-11.357.028-22.715-.064-34.072.071-3.045.036-4.145-.852-4.082-4.018.234-11.591.206-23.19.3-34.782.014-1.469-.4-3.272,2.059-3.265C461.52,446.707,474.517,446.7,487.982,446.7Zm-14.374,14.573c-12.074-2.122-13.622-.859-13,10.25.014.234-.092.561.028.7.6.681,1.235,1.846,1.909,1.881,3.613.185,7.24.085,11.059.085Z" transform="translate(-129.462 -129.62)" fill="#fff"/>
          <path id="Trazado_162" data-name="Trazado 162" d="M499.414,369.091H513.4V383h13.657v27.811H485.7V396.753h13.792V369.02l-.071.071Z" transform="translate(-140.936 -107.079)" fill="#fff"/>
          <path id="Trazado_163" data-name="Trazado 163" d="M446.977,324.573V310.98h13.579v13.593H446.97Z" transform="translate(-129.698 -90.238)" fill="#fff"/>
          <path id="Trazado_164" data-name="Trazado 164" d="M59.59,60.03H126.6v67.2H59.59Zm13.1,12.862v40.971h40.893V72.892H72.693Z" transform="translate(-17.291 -17.419)" fill="#fff"/>
          <path id="Trazado_165" data-name="Trazado 165" d="M487.17,60.02h67.008v67.207H487.17Zm12.876,53.848H541V72.96h-40.95Z" transform="translate(-141.363 -17.416)" fill="#fff"/>
          <path id="Trazado_166" data-name="Trazado 166" d="M127.215,520.538c0,10.051-.078,20.109.05,30.161.035,2.854-.774,3.918-3.8,3.9q-30.686-.17-61.379,0c-2.924.014-3.542-1.043-3.528-3.705q.17-30.515.085-61.031c-.014-3.052,1.114-3.783,3.932-3.769q30.335.128,60.669,0c2.981-.014,3.89,1.058,3.854,3.94-.121,10.172-.05,20.344-.05,30.516h.163ZM72.6,500.35c0,12.827.043,25.241-.043,37.656-.014,2.321,1.051,2.754,3.017,2.747,11.471-.043,22.949-.064,34.42.021,2.428.014,3.3-.767,3.287-3.272-.092-11.357-.1-22.714.064-34.072.043-2.846-1.185-3.329-3.585-3.315-11.357.064-22.715.021-34.072.035-.923,0-1.846.121-3.095.206Z" transform="translate(-16.992 -141.049)" fill="#fff"/>
          <path id="Trazado_167" data-name="Trazado 167" d="M57.93,247.05H72.141V232.839H85.62v13.849h27.563V233.18c4.706-.213,9.015-.4,13.331-.6l-.057-.064c.206,3.258.447,6.516.618,9.781.071,1.384.014,2.775.014,4.607h13.764v13.686H126.89v14.239H113.46V261.02H99.746v13.82H85.62V260.757H57.937V247.05Z" transform="translate(-16.81 -67.471)" fill="#fff"/>
          <path id="Trazado_168" data-name="Trazado 168" d="M154.529,227.275c.277-4.28.561-8.561.852-13.075h13.437v13.671c-4.841-.22-9.59-.433-14.339-.653C154.473,227.218,154.529,227.275,154.529,227.275Z" transform="translate(-44.825 -62.155)" fill="#fff"/>
          <path id="Trazado_169" data-name="Trazado 169" d="M363.556,305.614H349.97V292.12h13.586v13.487Z" transform="translate(-101.551 -84.765)" fill="#fff"/>
          <path id="Trazado_170" data-name="Trazado 170" d="M227.549,338.79H214.076V311l-.106.085q6.782,0,13.565-.007L227.45,311q.053,13.895.1,27.79Z" transform="translate(-62.088 -90.243)" fill="#fff"/>
          <path id="Trazado_171" data-name="Trazado 171" d="M227.535,305.568q-6.782,0-13.565.007V292.01h13.565v13.558Z" transform="translate(-62.088 -84.733)"/>
          <path id="Trazado_172" data-name="Trazado 172" d="M479.469,466.882v12.912c-3.819,0-7.446.1-11.059-.085-.674-.036-1.306-1.2-1.909-1.881-.121-.135-.014-.461-.028-.7C465.848,466.03,467.4,464.766,479.469,466.882Z" transform="translate(-135.323 -135.229)"/>
          <path id="Trazado_173" data-name="Trazado 173" d="M78.06,78.15h40.893v40.971H78.06Z" transform="translate(-22.651 -22.677)"/>
          <path id="Trazado_174" data-name="Trazado 174" d="M505.31,119.147V78.24h40.95v40.907Z" transform="translate(-146.627 -22.703)"/>
          <path id="Trazado_175" data-name="Trazado 175" d="M78.325,506.081c1.249-.085,2.172-.206,3.095-.206,11.357-.014,22.715.035,34.072-.035,2.406-.014,3.627.469,3.585,3.315-.163,11.357-.156,22.715-.064,34.072.021,2.506-.852,3.294-3.287,3.272-11.471-.085-22.949-.064-34.42-.021-1.966.007-3.038-.426-3.017-2.747.085-12.415.043-24.83.043-37.656Z" transform="translate(-22.717 -146.78)"/>
        </g>
      </g>
    </g>
  </g>
</svg>
