<?xml version="1.0" encoding="utf-8"?>
<!-- Generator: Adobe Illustrator 27.4.0, SVG Export Plug-In . SVG Version: 6.00 Build 0)  -->
<svg version="1.1" id="Mesa_de_trabajo_1" xmlns="http://www.w3.org/2000/svg" xmlns:xlink="http://www.w3.org/1999/xlink" x="0px"
	 y="0px" viewBox="0 0 271.4 88.8" style="enable-background:new 0 0 271.4 88.8;" xml:space="preserve">
<style type="text/css">
	.st0{fill:#EFF2F4;}
</style>
<path id="Trazado_23" class="st0" d="M254.4,45.9c1.2,0.6,1.9,2,1.8,3.4c-0.1,1.4-1.1,2.7-2.4,3.2c-0.6,0.1-1.3,0.2-2,0.2
	c-0.5-0.2-1-0.4-1.4-0.7c-0.3-0.3-0.6-0.6-0.9-1c-0.1-0.1-0.2-0.3-0.3-0.5c0-0.1-0.1-0.3-0.1-0.4c-0.1-0.5-0.2-1-0.2-1.4
	c0-0.7,0.3-1.3,0.7-1.9c0.3-0.5,0.7-0.8,1.2-1.1c0.9-0.5,2-0.6,2.9-0.2c0.2,0.1,0.3,0.1,0.5,0.2C254.2,45.9,254.3,45.9,254.4,45.9
	L254.4,45.9z M252.5,51.8c1.6,0,2.8-1.2,2.9-2.8c0-1.6-1.2-2.8-2.8-2.9s-2.8,1.2-2.9,2.8c0,0,0,0,0,0c-0.1,1.5,1.1,2.8,2.6,2.8
	C252.4,51.8,252.4,51.8,252.5,51.8L252.5,51.8z"/>
<path id="Trazado_30" class="st0" d="M209.5,64.6c-0.2,0.1-0.4,0.1-0.6,0.1c-0.3,0-0.7,0.1-1,0.2c-0.9,0.1-1.7,0.1-2.6,0.3
	c0,0.1,0,0.1,0,0.2c0.2,0,0.3,0,0.5,0c0.7-0.1,1.4-0.2,2-0.3c0.2,0,0.4,0,0.6,0c0.3-0.1,0.7-0.1,1-0.2c0.1,0,0.2,0,0.2-0.1
	C209.7,64.6,209.6,64.6,209.5,64.6L209.5,64.6z"/>
<path id="Trazado_31" class="st0" d="M151.7,42.7c0.1,0,0.1,0.1,0.1,0.1c-0.1,0-0.2,0.1-0.2,0C151.6,42.8,151.6,42.7,151.7,42.7z"/>
<path id="Trazado_32" class="st0" d="M134,41.7c0,0.1,0,0.2-0.2,0.3C133.7,41.8,133.9,41.7,134,41.7z"/>
<path id="Trazado_33" class="st0" d="M134.5,39.8c0,0.1,0,0.2-0.2,0.3C134.2,39.9,134.4,39.9,134.5,39.8z"/>
<path id="Trazado_34" class="st0" d="M134.8,38.7c0,0.1,0,0.2-0.1,0.3C134.6,38.8,134.7,38.8,134.8,38.7z"/>
<g>
	<path id="Trazado_1" class="st0" d="M134.8,54.8c0-0.5,0.3-1,0.4-1.6c0.2,0,0.2-0.1,0.2-0.3c0.1-0.3,0.1-0.6,0.2-0.9
		c0.2,0,0.2-0.1,0.2-0.3c0.1-0.5,0.3-1,0.4-1.6c0.2,0,0.2-0.1,0.1-0.3c0.1-0.3,0.1-0.6,0.2-0.9c0.1,0,0.2,0,0.1-0.2
		c0-0.1,0-0.1,0-0.2c0.2-0.1,0.2-0.4,0.2-0.6c0.1-0.4,0.2-0.9,0.3-1.3c0.1-0.3,0.2-0.6,0.2-1c0.3-1,0.5-2.1,0.8-3.1
		c0.3-1,0.5-2,0.8-2.9s0.5-2,0.8-2.9c0.1-0.2,0.2-0.5,0.3-0.7c0.1-0.3,0.2-0.7,0.2-1c0.1-0.4,0.3-0.7,0.3-1.1c0-0.2,0.1-0.2,0.2-0.2
		s0.2,0,0.4,0c5.1,0,10.2,0,15.4,0c1,0,2,0,3,0.2c1,0.2,1.9,0.5,2.7,1.1c0.9,0.7,1.5,1.7,1.6,2.9c0.1,1.8-0.2,3.7-1,5.3
		c-0.6,1.5-1.7,2.8-2.9,3.8c-0.5,0.3-0.9,0.6-1.4,0.9c0,0.1,0,0.1,0,0.1c0.8,0.8,1.2,1.8,1.2,2.9c0.1,1.1,0,2.2-0.3,3.3
		c-0.4,1.4-0.7,2.8-0.9,4.2c0,0.2-0.1,0.3-0.3,0.3c-2.1,0-4.1,0-6.1,0c0-0.1-0.1-0.1-0.1-0.1c0.1-1,0.2-2.1,0.3-3.1
		c0.1-0.4,0.3-0.8,0.4-1.2c0.2-0.9,0.2-1.8,0-2.6c-0.1-0.6-0.5-1.2-1-1.5c-0.7-0.4-1.4-0.7-2.2-0.7c-0.9-0.1-1.8-0.1-2.7-0.1
		c-1.3,0-2.5,0-3.8,0c-0.4,0-0.4,0-0.5,0.4c-0.5,1.9-1,3.8-1.6,5.7c-0.3,0.9-0.5,1.9-0.8,2.8c-0.1,0.4-0.1,0.4-0.6,0.4
		c-1.7,0-3.3,0-5,0c-0.2,0-0.4,0-0.6-0.1c0-0.3,0.2-0.6,0.2-0.9c0.2,0,0.2-0.1,0.2-0.3c0-0.5,0.3-1,0.4-1.6c0.2,0,0.2-0.1,0.2-0.3
		c0.1-0.3,0.1-0.6,0.2-0.9C134.8,55.1,134.8,55,134.8,54.8L134.8,54.8z M143.8,44.2h4.1c1.5,0,3,0,4.6,0c0.8,0,1.7-0.2,2.4-0.7
		c0.7-0.5,1.2-1.3,1.2-2.2c0-0.5-0.3-1-0.7-1.2c-0.4-0.2-0.9-0.3-1.3-0.3c-2.9,0-5.8,0-8.7,0c-0.2,0-0.4,0.1-0.4,0.3c0,0,0,0,0,0
		c-0.3,1.2-0.7,2.4-1,3.6C143.8,43.9,143.8,44.1,143.8,44.2L143.8,44.2z"/>
	<path id="Trazado_2" class="st0" d="M241.5,42.9c0.1,0,0.1-0.1,0.1-0.2c0,0,0,0,0,0l0.1-0.1c0.1,0,0.1-0.2,0.2-0.3
		c0.2-0.6,0.5-1.2,0.7-1.8c0.5-1.1,1.1-2.2,1.8-3.2c0.4-0.6,0.8-1.1,1.4-1.4c0.1,0,0.2-0.1,0.2-0.2c0.7-0.5,1.6-0.9,2.4-1.2
		c1.1-0.3,2.3-0.5,3.4-0.4h14.4c0.1,0,0.2,0,0.3,0.1c-0.1,0.4-0.2,0.9-0.3,1.3c-0.3,1.3-0.7,2.7-1.1,4c-0.1,0.3-0.3,0.5-0.6,0.5
		h-12.7c-0.6,0-1.2,0-1.8,0.2c-0.4,0.1-0.7,0.3-1,0.7c-0.5,0.9-0.8,1.9-1,2.9h15.7c0,0.1,0.1,0.1,0,0.2c-0.5,1.7-0.9,3.3-1.4,5
		c-0.1,0.2-0.2,0.3-0.3,0.3c-0.1,0-0.2,0-0.4,0h-14.5c-0.1,0-0.2,0-0.3,0c-0.4,0-0.4,0-0.5,0.4c-0.2,0.7-0.3,1.4-0.5,2.1
		c0,0.2-0.1,0.4-0.1,0.7c-0.1,0.5,0.3,0.9,0.7,1c0,0,0.1,0,0.1,0c0.3,0.1,0.6,0.1,1,0.1c1,0,2.1,0,3.1,0c3.3,0,6.6,0,9.9,0h0.6
		c-0.1,0.5-0.2,1-0.4,1.5c-0.3,1.3-0.7,2.5-1,3.8c-0.1,0.4-0.1,0.4-0.5,0.4c-0.6,0-1.2,0-1.8,0c-4.3,0-8.5,0-12.8,0
		c-0.9,0-1.8-0.1-2.6-0.2c-0.3-0.1-0.7-0.2-1-0.3c-0.4-0.2-0.8-0.5-1.1-0.8c-0.7-0.7-1-1.6-1-2.5c0-1.2,0.1-2.5,0.3-3.7
		c0.2-1.1,0.4-2.1,0.7-3.2c0.2-0.5,0.2-1.1,0.4-1.6c0.1-0.3,0.1-0.7,0.3-1.1c0-0.2,0.1-0.4,0.2-0.6c0.3-0.7,0.5-1.4,0.6-2.1
		L241.5,42.9L241.5,42.9z"/>
	<path id="Trazado_3" class="st0" d="M60.7,36.1c0.1,0,0.2-0.1,0.2-0.1c1.7-1.3,3.8-2,6-2c5.4,0,10.8,0,16.2,0c0.1,0,0.3,0,0.4,0
		c0,0.2,0,0.4-0.1,0.5c-0.4,1.5-0.9,3.1-1.3,4.6c-0.1,0.3-0.2,0.3-0.5,0.3c-2.5,0-5,0-7.5,0c-2.6,0-5.2,0-7.7,0
		c-1.5,0-2.7,1.1-2.7,2.6c0,0,0,0,0,0c-0.1,0.7,0.4,1.3,1.1,1.4c0.1,0,0.2,0,0.3,0c0.5,0,0.9,0,1.4,0c2.8,0,5.6,0,8.4,0
		c1.1,0,2.3,0.3,3.2,0.9c1.1,0.7,1.9,1.9,2.1,3.1c0.4,2.1,0,4.3-1.2,6.2c-0.8,1.5-2,2.7-3.4,3.7c-0.7,0.5-1.5,0.8-2.3,1.1
		c-0.9,0.3-1.9,0.4-2.8,0.4c-5.4,0-10.7,0-16.1,0c-0.2,0-0.6,0.1-0.7-0.1c-0.2-0.2,0-0.6,0.1-0.8c0.2-0.4,0.3-0.8,0.4-1.2
		c0.1-0.6,0.3-1.1,0.4-1.7c0.1-0.5,0.3-1,0.5-1.6c0-0.1,0.1-0.2,0.3-0.2c0.1,0,0.3,0,0.4,0c5.1,0,10.2,0,15.3,0
		c0.6,0,1.1-0.1,1.6-0.4c0.6-0.4,1.1-0.9,1.4-1.6c0.4-0.8,0-1.9-0.8-2.3c-0.3-0.1-0.6-0.2-0.9-0.2c-2.8,0-5.6,0-8.3,0
		c-1.2,0.1-2.4-0.1-3.5-0.4c-0.6-0.2-1.1-0.5-1.5-0.9c-0.4-0.3-0.7-0.7-1-1.1c-0.4-0.5-0.6-1.1-0.7-1.7c-0.1-0.7-0.1-1.4-0.1-2.1
		c0.2-1.8,0.9-3.5,2-4.9c0.4-0.5,0.8-1,1.3-1.5C60.5,36.4,60.6,36.3,60.7,36.1L60.7,36.1L60.7,36.1z"/>
	<path id="Trazado_4" class="st0" d="M109.3,44.6c0.2-0.1,0.2-0.3,0.2-0.4c0.3-0.7,0.5-1.4,0.8-2.1c0.6-1.2,1.3-2.3,2.2-3.3
		c0.3-0.4,0.5-0.7,0.8-1c0.7-0.7,1.5-1.3,2.3-1.8c1.8-1.1,3.8-1.9,5.9-2.2c1.8-0.3,3.6-0.4,5.5-0.3c1.4,0,2.9,0.3,4.2,0.7
		c1.3,0.4,2.4,1.1,3.4,2.1c0.9,1,1.4,2.3,1.5,3.6c0.2,1.7,0,3.4-0.4,5.1c-0.4,1.7-0.9,3.3-1.5,4.9c-1,2.4-2.5,4.5-4.4,6.1
		c-1.9,1.5-4.1,2.5-6.4,3c-2.9,0.6-6,0.6-8.9,0.2c-0.6-0.1-1.3-0.3-1.9-0.5c-0.8-0.3-1.5-0.7-2.2-1.2c-0.6-0.4-1.1-1-1.4-1.6
		c-0.5-0.7-0.8-1.6-0.8-2.5c-0.1-0.2-0.1-0.4-0.2-0.7c0-1.7,0.1-3.3,0.5-5c0.2-0.6,0.3-1.2,0.5-1.8c0.1-0.4,0.2-0.8,0.3-1.2
		L109.3,44.6L109.3,44.6z M120.1,54.1c0.6,0,1.3,0,1.9-0.1c2-0.2,3.8-1.3,4.8-2.9c0.3-0.5,0.6-0.9,0.8-1.4c0.6-1.4,1.1-2.9,1.4-4.4
		c0.2-1,0.3-2,0.3-3c0-1.4-0.9-2.6-2.3-2.9c-0.1,0-0.2-0.1-0.2-0.1c-1.9-0.4-3.8-0.4-5.7,0.2c-1.2,0.4-2.3,1.1-3.1,2
		c-0.5,0.6-0.9,1.2-1.2,1.9c-0.7,1.5-1.2,3-1.5,4.6c-0.2,1-0.3,2-0.3,3c0,1.4,0.9,2.6,2.2,2.8C118.1,54,119.1,54.1,120.1,54.1
		L120.1,54.1z"/>
	<path id="Trazado_5" class="st0" d="M94.8,34h7.1c1.4,0,2.7,0.2,4,0.7c0.7,0.2,1.3,0.6,1.9,1.1c1,0.9,1.6,2.3,1.6,3.7
		c0,1.6-0.3,3.2-1,4.6c-0.4,1.1-1,2.1-1.8,2.9c-1.4,1.6-3.2,2.7-5.2,3.2c-1.3,0.3-2.7,0.5-4.1,0.5c-3,0-6,0-8.9,0
		c-0.5,0-0.5,0-0.7,0.5c-0.5,1.7-0.9,3.4-1.4,5.1c-0.2,0.8-0.4,1.6-0.6,2.3c0,0.2-0.2,0.4-0.5,0.4c0,0,0,0,0,0c-1.8,0-3.5,0-5.3,0
		c-0.3,0-0.5-0.1-0.3-0.4c0.2-0.5,0.4-1.1,0.5-1.7c0.2-0.8,0.4-1.5,0.6-2.3c0.2-0.7,0.4-1.3,0.6-2c0.2-0.7,0.4-1.3,0.5-2
		c0-0.2,0.2-0.5,0.3-0.7c0.1-0.4,0.2-0.8,0.3-1.2c0.1-0.4,0.2-0.7,0.3-1.1c0.1-0.3,0.2-0.6,0.3-0.8c0.1-0.7,0.4-1.4,0.5-2.1
		c0-0.2,0.2-0.4,0.3-0.7c0.1-0.4,0.2-0.8,0.3-1.2c0.1-0.4,0.2-0.7,0.3-1.1c0.1-0.3,0.2-0.5,0.3-0.8c0.1-0.4,0.1-0.7,0.2-1.1
		c0.1-0.3,0.2-0.7,0.3-1.1c0.1-0.3,0.2-0.5,0.3-0.7c0.1-0.3,0.1-0.7,0.2-1c0.3-0.7,0.4-1.4,0.7-2.1c0-0.1,0.1-0.3,0.1-0.4
		c0-0.4,0.1-0.4,0.4-0.4c0.3,0,0.5,0,0.8,0L94.8,34L94.8,34L94.8,34z M89.4,45.2c0.1,0.1,0.3,0.1,0.5,0c2.8,0,5.7,0,8.5,0
		c1.7,0,3.2-1.2,3.6-2.9c0.3-1-0.3-2.1-1.4-2.3c0,0-0.1,0-0.1,0c-0.3-0.1-0.5-0.1-0.8-0.1h-5.7c-0.9,0-1.8,0-2.7,0
		c-0.3,0-0.4,0.1-0.4,0.3c-0.4,1.5-0.8,3-1.2,4.5C89.4,44.8,89.4,45,89.4,45.2L89.4,45.2z"/>
	<path id="Trazado_6" class="st0" d="M221.9,35.9c0.4-0.3,0.9-0.6,1.4-0.8c0.9-0.4,1.9-0.6,2.9-0.8c1.1-0.2,2.2-0.3,3.3-0.2h12.8
		c0.1,0,0.3,0,0.4,0c0.1,0.2,0,0.3,0,0.4c-0.1,0.3-0.1,0.7-0.2,1c-0.2,0.3-0.2,0.7-0.2,1c-0.3,0.7-0.5,1.5-0.7,2.2
		c-0.1,0.2-0.1,0.4-0.2,0.7c0,0.4-0.2,0.5-0.5,0.5c-0.1,0-0.2,0-0.3,0c-4.4,0-8.7,0-13.1,0c-0.6,0-1.2,0-1.7,0.1
		c-0.9,0.2-1.5,0.8-1.8,1.7c-0.2,0.5-0.4,1-0.5,1.5c-0.1,0.2-0.1,0.3,0,0.5h16.7c-0.1,0.5-0.2,0.9-0.4,1.4c-0.3,1.2-0.7,2.4-1,3.7
		c-0.1,0.4-0.1,0.4-0.6,0.4h-15.8c-0.6,0-0.6,0-0.8,0.6c-0.3,1.2-0.7,2.5-1,3.7c-0.3,1.1-0.6,2.2-0.9,3.3c-0.2,0.7-0.4,1.4-0.6,2
		c-0.1,0.3-0.2,0.3-0.5,0.3c-1.1,0-2.1,0-3.2,0c-0.7,0-1.4,0-2,0c-0.2,0-0.3,0-0.5,0c0.1-0.6,0.3-1.1,0.5-1.6
		c0.2-0.7,0.4-1.4,0.5-2.1c0-0.3,0.2-0.5,0.3-0.8c0.1-0.6,0.4-1.2,0.5-1.8c0-0.3,0.1-0.7,0.3-1c0.1-0.4,0.2-0.8,0.3-1.2
		c0.1-0.6,0.3-1.2,0.5-1.8c0.1-0.4,0.2-0.7,0.3-1.1c0.1-0.6,0.3-1.3,0.6-1.9c0.1-0.3,0.2-0.6,0.2-0.9c0.3-1,0.6-2,1-3
		c0.2-0.7,0.5-1.4,0.8-2.1c0.3-0.7,0.8-1.3,1.2-1.9c0.4-0.4,0.8-0.8,1.2-1.3c0.1-0.2,0.4-0.2,0.5-0.4C221.7,36,221.8,36,221.9,35.9
		L221.9,35.9z"/>
	<path id="Trazado_7" class="st0" d="M189.5,34.1c-0.2,1.1-0.6,2.1-0.8,3.2c-0.1,0.6-0.3,1.1-0.5,1.7c-0.1,0.4-0.1,0.4-0.5,0.4
		c-2.6,0-5.2,0-7.7,0c-0.7,0-0.6,0-0.8,0.6c-0.5,1.9-1,3.7-1.6,5.6c-0.6,2.1-1.2,4.3-1.7,6.4c-0.5,1.8-1,3.6-1.5,5.4
		c-0.1,0.4-0.2,0.8-0.3,1.2c-0.1,0.3-0.2,0.4-0.5,0.4c-1.4,0-2.7,0-4.1,0c-0.5,0-0.9,0-1.4,0c-0.2,0-0.3,0-0.2-0.3
		c0.1-0.5,0.2-0.9,0.4-1.4c0.1-0.3,0.2-0.6,0.2-0.9c0.1-0.5,0.3-0.9,0.4-1.4c0-0.3,0.2-0.5,0.3-0.7c0.2-0.7,0.4-1.4,0.5-2.1
		c0-0.3,0.2-0.5,0.3-0.8c0.1-0.7,0.4-1.4,0.5-2.1c0-0.3,0.2-0.5,0.3-0.8c0.1-0.7,0.4-1.4,0.5-2.1c0-0.2,0.2-0.4,0.2-0.6
		c0.1-0.7,0.4-1.2,0.5-1.9c0.1-0.8,0.3-1.5,0.6-2.2c0.1-0.3,0.2-0.7,0.2-1c0.1-0.4,0.2-0.8,0.3-1.2c-0.2,0-0.4-0.1-0.6,0
		c-2.5,0-5.1,0-7.6,0c-0.6,0-0.7-0.1-0.4-0.6c0.1-0.3,0.2-0.6,0.3-1c0-0.2,0.1-0.5,0.3-0.7c0.1-0.3,0.2-0.6,0.2-0.9
		c0.1-0.4,0.3-0.7,0.4-1.1c0-0.3,0.1-0.5,0.2-0.8c0.2,0,0.2-0.2,0.2-0.3c0.1,0,0.3,0,0.4,0c7.6,0,15.2,0,22.7,0
		C189.2,34,189.3,34,189.5,34.1L189.5,34.1L189.5,34.1z"/>
	<path id="Trazado_8" class="st0" d="M196.6,34.1c-0.2,1-0.5,2-0.8,3c-0.3,1.1-0.6,2.2-0.9,3.3c-0.1,0.5-0.3,0.9-0.4,1.4
		s-0.3,0.9-0.4,1.4c-0.2,0.7-0.4,1.4-0.6,2s-0.4,1.4-0.6,2c-0.2,0.9-0.5,1.8-0.7,2.8c-0.1,0.5-0.1,0.9-0.1,1.4c0,1,0.7,1.9,1.7,2.1
		c0.9,0.2,1.8,0.3,2.7,0.3c2.7,0,5.4,0,8.1,0c0.2,0,0.4,0,0.6,0c-0.2,0.5-0.3,1.1-0.5,1.6c-0.3,1.1-0.6,2.1-0.9,3.2
		c0,0.2-0.2,0.4-0.5,0.4c0,0,0,0,0,0c-3.5,0-7,0.1-10.6-0.1c-1.1,0-2.1-0.2-3.1-0.5c-0.7-0.3-1.4-0.6-2.1-1.1
		c-0.3-0.2-0.6-0.5-0.8-0.9c-0.3-0.4-0.6-0.9-0.8-1.4c-0.2-0.8-0.3-1.6-0.3-2.4c0-0.9,0.1-1.8,0.3-2.7c0.2-1.2,0.6-2.3,0.9-3.5
		c0.4-0.5,0.2-1.1,0.5-1.5c0.1-0.3,0.2-0.5,0.2-0.8c0.1-0.6,0.5-1.1,0.4-1.7c0.4-0.7,0.3-1.5,0.7-2.2c0.1-0.2,0-0.4,0.1-0.6
		c0.4-0.9,0.4-2,0.8-2.9c0.2-0.6,0.3-1.2,0.6-1.7c0.1-0.2,0.1-0.4,0.1-0.5c0-0.3,0.1-0.4,0.4-0.4c1.9,0,3.8,0,5.6,0
		C196.5,34,196.5,34,196.6,34.1L196.6,34.1z"/>
	<path id="Trazado_9" class="st0" d="M204.9,59c0.1-0.6,0.2-1.3,0.5-1.8c0-0.1,0-0.1,0.1-0.2c0.1-0.7,0.4-1.3,0.5-2
		c0-0.3,0.2-0.6,0.3-0.9c0.1-0.7,0.4-1.4,0.5-2.1c0-0.2,0.1-0.4,0.2-0.6c0.1-0.4,0.3-0.8,0.3-1.3c0.1-0.6,0.3-1.2,0.5-1.8
		c0.1-0.4,0.2-0.7,0.3-1.1c0.1-0.6,0.3-1.3,0.6-1.9c0.1-0.4,0.2-0.7,0.3-1.1c0.1-0.6,0.3-1.2,0.5-1.8c0.1-0.4,0.2-0.7,0.3-1.1
		c0.1-0.6,0.3-1.2,0.5-1.8c0.1-0.4,0.2-0.8,0.3-1.2c0-0.2,0.2-0.4,0.2-0.6c0.1-0.7,0.4-1.2,0.5-1.9c0-0.4,0.1-0.7,0.3-1.1
		c0.1-0.1,0.1-0.3,0.1-0.4c0-0.3,0.1-0.4,0.4-0.4c1.9,0,3.8,0,5.6,0c0,0,0.1,0,0.1,0.1c-0.1,0.5-0.3,1.1-0.4,1.6
		c-0.3,1.1-0.6,2.2-0.9,3.4c-0.2,0.6-0.3,1.2-0.5,1.8c-0.2,0.9-0.5,1.7-0.7,2.6c-0.3,1.1-0.6,2.1-0.9,3.2c-0.3,1.1-0.6,2.3-0.9,3.4
		c-0.4,1.5-0.8,3-1.2,4.4c-0.4,1.4-0.8,2.8-1.2,4.2c-0.1,0.2-0.2,0.3-0.4,0.3c-1.8,0-3.7,0-5.5,0C205.1,59,205,59,204.9,59L204.9,59
		z"/>
	<path id="Trazado_27" class="st0" d="M266,22.8c-1.6-0.7-3.2-1.4-4.8-2.1c-1-0.4-2.1-0.8-3.1-1.2c-3.6-1.4-7.3-2.5-11-3.6
		c-2.6-0.8-5.3-1.5-7.9-2.2c-1.9-0.5-3.8-0.9-5.7-1.4c-2.5-0.6-5-1.1-7.5-1.6c-2.7-0.5-5.4-1-8.1-1.5c-2.4-0.4-4.8-0.8-7.3-1.2
		c-2-0.3-4.1-0.6-6.1-0.9c-1.7-0.2-3.4-0.4-5-0.6c-1.6-0.2-3.3-0.4-4.9-0.5c-1.9-0.2-3.7-0.4-5.6-0.6c-1.7-0.2-3.4-0.3-5.1-0.4
		c-2-0.2-4-0.3-6-0.5c-1.9-0.1-3.8-0.2-5.7-0.3c-3.4-0.2-6.8-0.3-10.2-0.5c-1.8-0.1-3.6-0.1-5.4-0.2c-3.1-0.1-6.3-0.1-9.4-0.1
		c-3.3,0-6.7,0-10,0c-3.6,0.1-7.1,0.1-10.7,0.3c-0.1,0.1-0.2,0.1-0.3,0c0,0,0,0,0,0l-4.8,0.2c-0.1,0.1-0.2,0.1-0.3,0c0,0,0,0,0,0
		L119,4c-0.1,0.1-0.2,0.1-0.3,0c0,0,0,0,0,0L117,4.1c0,0.1-0.1,0.1-0.2,0c0,0,0,0,0,0l-1.6,0.1c0,0.1-0.1,0.1-0.2,0c0,0,0,0,0,0
		l-6.1,0.4c0,0.1-0.1,0.1-0.2,0c0,0,0,0,0,0c-1,0.1-2,0.1-3,0.2c-3.2,0.3-6.4,0.5-9.7,0.9c-2.9,0.3-5.8,0.6-8.7,1
		c-3.4,0.4-6.8,0.9-10.1,1.4c-3.4,0.5-6.8,1.1-10.2,1.7c-4.7,0.9-9.5,1.8-14.2,2.9c-7.5,1.7-14.8,3.8-22.1,6.4
		c-5.2,1.8-10.2,4.1-15.1,6.7c-3.3,1.8-6.5,4-9.3,6.5c-1.7,1.6-3.2,3.4-4.4,5.4c-1,1.7-1.6,3.6-1.8,5.6c-0.2,2.3,0.2,4.6,1.3,6.7
		c1,2.1,2.4,4,4.1,5.6c3.1,3,6.6,5.5,10.3,7.5c0.6,0.3,1.2,0.7,1.8,0.9c0.9,0.4,1.7,0.8,2.5,1.3c0.3,0.2,0.6,0.4,1,0.5
		c0.6,0.2,1.1,0.4,1.6,0.7c0.4,0.1,0.9,0.3,1.2,0.6c0.9,0.2,1.6,0.7,2.5,0.9c0.6,0.3,1.3,0.5,1.9,0.7c0.1,0,0.1,0,0.2,0.1
		c0.5,0.3,1,0.5,1.6,0.7c0.3,0.1,0.7,0.1,1,0.4l0.1,0.1c0.3,0.1,0.6,0.2,0.9,0.3c0.3,0.1,0.7,0.2,1,0.4l0.1,0.1
		c1.2,0.3,2.3,0.8,3.5,1.1c0.4,0.1,0.8,0.3,1.2,0.4c0.6,0.1,1.1,0.3,1.7,0.5c0.5,0.1,1,0.3,1.5,0.5c0.9,0.3,1.9,0.4,2.8,0.8
		c0.7,0.3,1.5,0.3,2.2,0.6c0.5,0.2,1.1,0.3,1.6,0.4c0.3,0,0.5,0.2,0.7,0.3c0.6,0.1,1.1,0.3,1.7,0.4c0.8,0.1,1.5,0.4,2.2,0.6
		c0.2,0,0.5,0.1,0.7,0.1c0.3,0.1,0.7,0.2,1,0.3c0.4,0.1,0.8,0.1,1.2,0.3c0.4,0.2,0.9,0.1,1.2,0.3c0.7,0,1.3,0.1,2,0.4
		c2.5,0.5,4.9,1,7.4,1.4c2.7,0.5,5.4,1,8.1,1.4c1.9,0.3,3.8,0.6,5.7,0.9c1.8,0.3,3.7,0.5,5.5,0.7c1.8,0.2,3.7,0.4,5.5,0.7
		c2.1,0.2,4.1,0.5,6.2,0.7c2.1,0.2,4.1,0.4,6.2,0.5c2.4,0.2,4.8,0.4,7.2,0.6c2,0.1,3.9,0.2,5.9,0.3c3.3,0.2,6.7,0.3,10.1,0.5
		c2.1,0.1,4.2,0.1,6.4,0.2c3.4,0.1,6.8,0.1,10.2,0.1c4.3,0,8.6,0,12.9-0.2c2.1-0.1,4.1-0.1,6.2-0.2c3.4-0.1,6.8-0.3,10.2-0.5
		c1.3-0.1,2.6-0.1,3.9-0.2c2.1-0.1,4.3-0.3,6.4-0.5c1.4-0.1,2.8-0.2,4.2-0.3c2-0.2,4-0.4,6-0.6c1.4-0.1,2.8-0.3,4.1-0.4
		c1.6-0.2,3.2-0.4,4.8-0.6c1-0.1,2-0.2,3-0.4c0.3,0,0.6,0,0.9-0.1c0-0.1,0-0.1,0-0.2l-0.9,0.1l-2.7,0.2c-2.3,0.2-4.7,0.4-7,0.6
		c-1.8,0.1-3.7,0.2-5.5,0.3c-3.2,0.2-6.5,0.3-9.7,0.5c-2.1,0.1-4.2,0.1-6.2,0.2c-4.6,0.1-9.1,0.1-13.7,0.1c-4.1,0-8.2-0.1-12.3-0.3
		c-1.1,0-2.2-0.1-3.3-0.1c-2.9-0.2-5.9-0.3-8.8-0.5c-1.7-0.1-3.4-0.2-5.1-0.3c-2.2-0.2-4.4-0.4-6.6-0.6c-1.9-0.2-3.8-0.3-5.7-0.6
		c-2.5-0.3-4.9-0.6-7.4-0.9c-2.4-0.3-4.7-0.6-7.1-1c-3.2-0.5-6.4-1-9.6-1.6c-4.7-0.8-9.3-1.8-13.9-2.9c-2.6-0.6-5.2-1.3-7.7-2
		c-5.3-1.5-10.6-3.2-15.7-5.3c-1.5-0.6-2.9-1.2-4.3-1.9c-1.4-0.7-2.9-1.4-4.3-2.2c-2.1-1.1-4.1-2.4-6-3.8c-2.2-1.6-4.1-3.4-5.7-5.6
		c-1.2-1.5-2-3.3-2.5-5.2c-0.6-2.7-0.2-5.5,1.1-7.9c0.6-1.1,1.2-2,2-3c1.9-2.3,4.1-4.2,6.6-5.8c3.2-2.1,6.6-4,10.1-5.5
		c2-0.9,4-1.7,6-2.5c1.2-0.4,2.3-0.9,3.5-1.3c1.8-0.6,3.6-1.2,5.5-1.8s3.7-1.1,5.5-1.6c0.7-0.2,1.5-0.4,2.2-0.6
		c2.8-0.7,5.6-1.4,8.4-2c0.9-0.2,1.9-0.4,2.8-0.6c0.8-0.2,1.6-0.3,2.4-0.5c3.3-0.7,6.7-1.3,10-1.8c1.3-0.2,2.7-0.4,4-0.6
		s2.7-0.4,4-0.6c0.8-0.1,1.6-0.2,2.4-0.3c2.8-0.3,5.5-0.7,8.3-1c2.6-0.3,5.3-0.5,7.9-0.8c2.7-0.2,5.4-0.4,8.1-0.6
		c3.1-0.2,6.3-0.4,9.4-0.5c3-0.1,6-0.2,9-0.3c2.2-0.1,4.4-0.1,6.6-0.1c5.1-0.1,10.3,0,15.4,0.1c3.9,0.1,7.7,0.2,11.6,0.4
		c2.6,0.1,5.2,0.3,7.8,0.5c3.1,0.2,6.3,0.5,9.4,0.8c2.2,0.2,4.4,0.4,6.6,0.7c0.8,0.1,1.5,0.2,2.3,0.3s1.5,0.2,2.3,0.3
		c0.8,0.1,1.6,0.2,2.4,0.3c0.8,0.1,1.5,0.2,2.3,0.3c2.2,0.3,4.3,0.6,6.5,0.9c4.5,0.7,9,1.5,13.5,2.4c0.3,0.1,0.7,0.2,1,0.3
		c0.3,0.1,0.7,0.1,1,0.1c0.2,0,0.4,0.2,0.6,0.2c0.8,0.1,1.6,0.2,2.4,0.5c0.6,0.1,1.2,0.2,1.8,0.4c0.4,0.2,0.9,0.1,1.3,0.3
		c0.1,0,0.2,0.1,0.2,0.2c0.1,0,0.2,0,0.3,0c1.2,0.4,2.4,0.6,3.7,0.9c0.2,0,0.4,0.2,0.6,0.2c0.7,0.2,1.5,0.4,2.2,0.6
		c0.9,0.2,1.9,0.5,2.8,0.7c0.7,0.2,1.5,0.4,2.2,0.7c0.4,0.1,0.8,0.2,1.2,0.4c1.2,0.4,2.4,0.9,3.6,1.2c0.3,0,0.5,0.1,0.7,0.3l0.1,0.1
		c0.3,0.1,0.7,0.1,1,0.3l0.1,0.1c0.7,0.2,1.4,0.4,2.1,0.7c0.1,0,0.2,0,0.2,0.2l0.1,0.1c0.6,0.3,1.3,0.5,1.9,0.7c0,0,0-0.1,0-0.2
		C269,24.2,267.5,23.5,266,22.8L266,22.8z"/>
	<path id="Trazado_28" class="st0" d="M136.6,48.2c0,0.2,0,0.4-0.2,0.6C136.4,48.6,136.4,48.3,136.6,48.2z"/>
	<path id="Trazado_29" class="st0" d="M165.9,34.1c0,0.1,0,0.3-0.2,0.3C165.7,34.2,165.8,34.1,165.9,34.1z"/>
	<path id="Trazado_35" class="st0" d="M135.3,53c0,0.1,0,0.2-0.2,0.3C135,53.1,135.2,53.1,135.3,53z"/>
	<path id="Trazado_36" class="st0" d="M135.6,51.9c0,0.1,0,0.2-0.2,0.3C135.4,52,135.5,51.9,135.6,51.9z"/>
	<path id="Trazado_37" class="st0" d="M136.1,50c0,0.1,0,0.2-0.2,0.3C135.9,50.2,136,50.1,136.1,50z"/>
	<path id="Trazado_38" class="st0" d="M136.3,49c0.1,0.1,0,0.2-0.1,0.2C136.2,49.1,136.2,49,136.3,49z"/>
	<g id="Grupo_3" transform="translate(270.452 21.572)">
		<path id="Trazado_39" class="st0" d="M0,3.6c0.2,0.1,0.4,0.2,0.7,0.3c0,0,0,0,0.1-0.1C0.5,3.6,0.3,3.5,0,3.4C0,3.5,0,3.5,0,3.6
			L0,3.6z"/>
		<path id="Trazado_40" class="st0" d="M0.7,3.8C0.7,3.8,0.7,3.8,0.7,3.8c0,0.1,0,0.2,0.1,0.2c0,0,0.1,0,0.1-0.1
			C0.9,3.8,0.8,3.8,0.7,3.8L0.7,3.8z"/>
	</g>
	<path id="Trazado_42" class="st0" d="M189.5,34.1l-0.1-0.1C189.5,34,189.5,34.1,189.5,34.1z"/>
	<path id="Trazado_43" class="st0" d="M60.7,36.1L60.7,36.1L60.7,36.1z"/>
	<path id="Trazado_45" class="st0" d="M241.5,42.9l0,0.1L241.5,42.9z"/>
	<path id="Trazado_46" class="st0" d="M109.3,44.6l-0.1,0.1C109.2,44.7,109.3,44.6,109.3,44.6z"/>
</g>
<path id="Trazado_47" class="st0" d="M33,54.5l0.1,0.1C33.1,54.5,33,54.5,33,54.5z"/>
<path id="Trazado_48" class="st0" d="M31,53.7l0.1,0.1C31,53.8,31,53.8,31,53.7z"/>
<path id="Trazado_49" class="st0" d="M254.1,51c-0.3,0-0.6,0-0.8,0c-0.2,0-0.2-0.1-0.3-0.2c-0.1-0.3-0.3-0.6-0.4-0.9
	c0-0.1-0.1-0.2-0.1-0.3c-0.1-0.1-0.2-0.1-0.3-0.1c-0.1,0-0.1,0.1-0.1,0.2c0,0.3,0,0.7,0,1c0,0.2-0.1,0.3-0.3,0.3
	c-0.6,0-0.6,0-0.6-0.6c0-1,0-2,0-2.9c0-0.4,0-0.4,0.4-0.4c0.4,0,0.8,0,1.3,0c0.5,0,1,0.3,1.2,0.8c0.2,0.5,0,1-0.4,1.3
	c-0.2,0.1-0.2,0.2-0.1,0.4C253.7,50,253.9,50.4,254.1,51L254.1,51z M252,48.3c0,0.3,0.1,0.5,0.4,0.5c0.5,0,0.7-0.2,0.7-0.5
	s-0.2-0.5-0.7-0.5C252.2,47.8,252,48,252,48.3L252,48.3z"/>
</svg>
