<?xml version="1.0" encoding="UTF-8"?><svg id="Capa_1" xmlns="http://www.w3.org/2000/svg" width="271" height="113" viewBox="0 0 5402.57 2303.1"><defs><style>.cls-1{fill:#edf4f9;}.cls-2{fill:#e0ecf6;}.cls-3{fill:#207bbd;}.cls-4{fill:#1776bb;}.cls-5{fill:#1676ba;}.cls-6{fill:#1675ba;}.cls-7{fill:#4491c8;}.cls-8{fill:#6ca8d3;}</style></defs><path class="cls-5" d="m2682.59,1044.58c.96-10.6,6.28-20.21,7-30.86,3.08-.54,3.46-2.63,2.97-5.21,1.03-5.59,2.05-11.19,3.08-16.78,3.02-.53,3.41-2.57,2.96-5.11.98-10.6,6.28-20.22,7.01-30.88,3.07-.54,3.44-2.62,2.96-5.19,1.03-5.6,2.07-11.2,3.1-16.8,2.16-.47,4.22-.99,1.97-3.76.07-1.41.14-2.82.21-4.23,4.56-2.5,4.47-6.95,4.69-11.26,2.13-8.51,1.96-17.57,6.33-25.55,3.22-5.87,2.43-12.7,4.33-19.03,6.02-20.03,9.61-40.84,16.41-60.56,6.56-19.03,8.9-39.11,15.89-57.82,7.05-18.87,9.84-38.74,15.72-57.84,1.43-4.66,2.97-9.16,5.28-13.47,3.3-6.17,3.37-13.4,4.41-19.99,1.21-7.67,5.96-13.78,6.81-21.26.34-3.02,2.31-3.7,4.9-3.68,2.33.02,4.66-.02,7-.02,100.61,0,201.22-.02,301.82.02,19.99,0,39.98.23,59.66,4.39,18.87,4,37.27,9.31,52.99,21.17,18.95,14.3,28.84,33.7,30.83,57.06,3.14,36.78-5.84,71.36-20.62,104.6-13.04,29.34-32.15,54.17-57.5,74.06-8.85,6.94-18.69,12.38-28.06,18.12.19,1.18.06,2.06.43,2.39,16.85,15.03,21.98,35.05,23.55,56.34,1.61,21.76-.89,43.33-6.24,64.37-6.96,27.37-13.22,54.84-17.41,82.76-.68,4.51-2.15,6.3-6.84,6.27-40.3-.26-80.6-.34-120.9-.48-.51-1.29-1.27-2.34-2.69-2.74,1.49-20.21,3.57-40.37,6.45-60.43,1.19-8.35,5.58-15.88,7-24.27,2.91-17.16,4.87-34.31.71-51.52-3.01-12.42-9.33-22.98-20.25-29.84-13.29-8.35-27.96-12.81-43.74-14.07-17.63-1.41-35.26-1.19-52.9-1.22-24.97-.04-49.95-.05-74.92.01-7.69.02-8.08.56-10.08,7.89-10.28,37.61-20.63,75.21-30.94,112.82-5.06,18.46-10.03,36.95-15.19,55.39-2.34,8.38-2.51,8.37-11.37,8.37-32.63-.02-65.26,0-97.89-.17-3.52-.02-7.32.89-10.88-1.49-.42-6.03,3.26-11.42,3.02-17.44,3.03-.53,3.42-2.58,2.96-5.13.96-10.6,6.24-20.22,7-30.86,3.08-.54,3.46-2.63,2.97-5.21,1.03-5.59,2.05-11.19,3.08-16.78,3.03-.53,3.41-2.58,2.95-5.12Zm178.34-208.82c3.47,0,6.77,0,10.07,0,23.63,0,47.26,0,70.9,0,29.96,0,59.91.04,89.87-.03,16.65-.04,32.42-3.56,46.28-13.22,14.87-10.37,23-24.59,23.31-42.94.18-10.73-4.85-18.49-14.1-23.47-8.05-4.33-16.83-6.24-25.94-6.25-57.25-.05-114.5.02-171.75-.13-5.18-.01-7.54,1.48-8.91,6.76-6.21,23.79-12.96,47.45-19.43,71.18-.59,2.18-1.54,4.43-.29,8.11Z"/><path class="cls-6" d="m4781.05,809.95c1.69-.79,1.91-2.13,1.37-3.74.38-.86.76-1.71,1.14-2.56,2.7-.97,2.78-3.64,3.36-5.73,3.43-12.41,10.03-23.54,14.28-35.6,8.09-23,22.02-42.73,36.02-62.15,7.51-10.42,15.55-21.2,27.03-28.23,2.14-.56,3.68-1.88,4.8-3.75,14.9-10.34,30.69-18.8,48.15-24.1,21.88-6.64,44.27-8.8,66.99-8.8,94.28.02,188.56,0,282.84.02,1.95,0,4.01-.44,6.49,1.15,0,8.68-4.06,16.81-6.23,25.24-6.76,26.27-14.25,52.34-21.47,78.49q-2.65,9.59-12.57,9.62c-82.95,0-165.9,0-248.86,0-11.88,0-23.78-.3-35.25,3.65-7.66,2.64-14.79,6.43-18.73,13.63-9.59,17.49-14.76,36.53-19.14,56.93h309.36c.45,1.69,1.07,2.68.86,3.44-9.09,32.85-18.39,65.65-27.25,98.57-1.15,4.29-3.02,5.37-6.81,5.17-2.33-.12-4.66-.02-6.99-.02-95.28,0-190.56,0-285.83,0-2,0-4-.02-6,0-8.13.12-8.33.08-10.15,7.59-3.29,13.54-6.46,27.12-9.37,40.74-.9,4.19-1.1,8.6-1.09,12.91.03,11.55,4.68,17.16,16.16,19.1,6.22,1.05,12.57,1.71,18.87,1.79,20.32.26,40.64.2,60.96.2,64.63.02,129.26,0,193.89,0,3.63,0,7.26,0,11.38,0-1.1,10.85-4.73,20.35-7.36,30.08-6.74,24.94-13.53,49.88-20.51,74.75-2.29,8.14-2.59,8.09-10.66,8.17-11.99.11-23.98.25-35.98.25-83.95.02-167.9.1-251.85-.06-17.31-.03-34.59-1.05-51.6-4.9-6.77-1.53-13.54-3.31-20.13-5.22-8.57-2.47-14.48-9.96-21.35-15.56-15.81-12.91-18.32-31.01-19.5-49.57-1.55-24.46,2.11-48.49,6.64-72.41,3.95-20.89,6.9-42.06,13.97-62.17,3.55-10.09,4.73-20.71,8.61-30.72,2.64-6.82,2.89-14.51,5.06-21.68,1.11-3.66,1.82-7.42,3.38-11,5.79-13.3,8.26-27.61,12.39-41.42.23-.7.46-1.41.69-2.11Z"/><path class="cls-6" d="m1227.37,675.8c1.89.31,3.09-1,4.36-1.99,34.59-26.93,74.04-38.68,117.62-38.6,105.94.21,211.88.06,317.82.09,2.6,0,5.34-.62,7.78.99,1.09,3.81-.75,7.19-1.69,10.63-8.22,30.06-16.73,60.04-24.72,90.16-1.58,5.96-4.81,6.66-10.01,6.65-49.31-.15-98.61-.09-147.92-.09-50.64,0-101.28-.07-151.91.03-30.21.06-52.56,21.62-53.86,51.61-.75,17.32,8.66,27.8,26.06,28.51,9.31.38,18.65.11,27.98.11,54.97,0,109.94-.14,164.91.07,22.64.09,43.98,5,63.31,17.79,22.6,14.95,36.09,35.88,42.02,61.83,10,43.8-2.44,83.58-23.19,121.51-16.29,29.78-39.39,53.46-67.61,72.16-14.13,9.36-29.53,16.16-45.55,21.58-18.08,6.12-36.8,7.65-55.72,7.67-105.27.09-210.54.19-315.82.22-4.91,0-11.74,2.06-14.24-1.5-2.97-4.23-.3-11.49,1.6-15.9,3.3-7.69,6.08-15.55,7.28-23.52,1.71-11.39,6.28-21.91,8.64-33.11,2.18-10.34,6.5-20.61,9.06-31.16.66-2.72,2.47-3.77,5.07-3.81,2.66-.04,5.33-.05,7.99-.05,99.94,0,199.89-.06,299.83.07,11.31.01,22.23-1.71,31.37-8.23,11.26-8.03,21.87-17.05,26.9-30.81,10.17-27.82-8-48.11-32.75-47.76-54.63.76-109.27.17-163.9.27-23.35.04-46.62-.11-69.12-7.77-11.09-3.78-20.85-9.76-29.93-16.96-7.6-6.02-14.54-13.22-19.29-21.29-6.09-10.35-12.91-20.71-13.82-33.69-.98-13.94-2.79-27.68-1.17-41.78,4.15-36.08,18.17-67.98,39.19-97.18,7.58-10.53,16.57-19.72,25.85-28.7,2.06-1.99,5.24-3.15,5.61-6.61.66-.48,1.32-.97,1.99-1.45Z"/><path class="cls-5" d="m2182.47,843.63c3.25-1.49,3.07-4.97,4.15-7.59,5.59-13.6,9.81-27.89,16.61-40.84,12.16-23.14,25.96-45.42,42.99-65.42,5.58-6.56,9.79-14.16,16.33-19.99,14.54-12.97,29.9-24.82,46.18-35.5,35.2-23.09,74.36-35.4,115.45-42.43,35.61-6.1,71.52-7.25,107.52-5.68,28.31,1.23,56.36,4.81,83.37,13.83,25.15,8.4,48.27,20.42,65.98,40.94,17.79,20.62,26.64,45,29.91,71.69,4.15,33.83-.35,66.92-7.57,99.98-7.19,32.89-16.94,64.86-30.31,95.7-20.13,46.43-47.73,87.53-87.09,120.04-36.96,30.53-79.47,49.49-126.14,59.04-58.31,11.93-116.82,12.54-175.71,3.05-13.04-2.1-25.17-6.45-37.49-9.99-15.95-4.58-29.22-15.53-43.33-24.41-12.77-8.04-20.01-20.21-27.62-31.65-9.44-14.19-14.2-31.07-16.58-48.23-.64-4.59-3.27-9.05-3.18-13.3.69-32.82,1.6-65.67,10.09-97.71,3.15-11.9,6.29-23.8,9.39-35.71,2.02-7.75,3.96-15.52,5.93-23.28.38-.86.76-1.71,1.14-2.56Zm211.08,186.17c11.65.23,24.25-.47,36.83-2.12,40.12-5.26,72.43-23.26,95-57.5,5.87-8.92,11.09-18.18,15.58-27.86,12.95-27.9,21.52-57.22,28.27-87.14,4.34-19.24,6.98-38.62,5.89-58.4-1.65-29.9-16.36-48.79-45.07-57.75-1.58-.49-3.18-1-4.8-1.34-37.44-7.82-74.72-7.54-111.57,3.21-23.95,6.99-43.84,20.57-60.02,39.55-9.77,11.46-17.71,24.14-24.37,37.62-14.24,28.83-23.09,59.46-30.18,90.66-4.44,19.54-7.23,39.25-6.2,59.38,1.5,29.3,16.06,47.71,44.24,55.73,18.12,5.16,36.69,6.2,56.41,5.97Z"/><path class="cls-5" d="m1896.17,635.52c46.63,0,93.25,0,139.88,0,26.77,0,53,3.68,78.21,12.77,13.42,4.84,26.1,11.39,36.95,21.07,21.87,19.52,30.39,44.58,30.8,73.1.46,31.83-7.33,61.96-18.97,91.26-8.41,21.17-19.79,40.62-34.68,57.94-27.38,31.86-62.27,51.38-102.49,61.96-26.2,6.9-52.91,10.07-79.98,10.09-58.62.05-117.24.01-175.86.02-10.11,0-10.31-.04-13.14,10.1-9.25,33.19-18.35,66.41-27.51,99.63-4.22,15.32-8.56,30.61-12.58,45.98-1.39,5.34-3.97,7.27-9.72,7.23-34.63-.21-69.27.03-103.91.09-6.85.01-9.55-2.69-6.58-8.48,5.47-10.67,7.39-22.45,9.85-33.64,3.3-14.98,8.38-29.49,11.93-44.37,3.16-13.24,8.43-26.41,11.51-39.86,3.06-13.37,8.85-25.99,10.12-39.93.4-4.34,3.94-8.85,5-13.64,1.71-7.74,3.38-15.61,5.3-23.16,1.82-7.17,4.09-14.26,5.82-21.6,1.28-5.45,4.63-10.83,5.62-16.65,2.37-13.89,8.8-26.7,10.21-40.93.44-4.4,4-8.83,5.05-13.65,1.69-7.75,3.31-15.63,5.28-23.17,1.88-7.18,4.17-14.23,5.79-21.62,1.12-5.11,4.07-10.24,5.51-15.65,1.88-7.03,2.73-14.45,4.81-21.2,2.12-6.88,4.26-13.53,5.58-20.7.89-4.83,3.6-9.7,5.38-14.62,2.38-6.58,1.33-13.84,4.16-20.15,6.06-13.49,7.56-28.32,12.79-42.04,1.04-2.73,1.29-5.82,1.59-8.77.7-7.05,1.25-7.73,8.41-7.82,5.33-.07,10.66.15,15.98.15,47.96.01,95.92,0,143.88,0,0,.08,0,.16,0,.24Zm-105.03,219.2c2.89,1.43,5.93.84,8.87.84,55.62.04,111.24-.36,166.86.18,31.06.3,62.57-22.95,69.81-57.57,4.78-22.87-6.95-41.01-29.59-46.78-5.24-1.34-10.49-1.61-15.83-1.6-37.3.02-74.6.01-111.9.01-17.98,0-35.97.11-53.95-.07-5.03-.05-7.35,1.17-8.8,6.75-7.66,29.62-16.02,59.06-24.15,88.56-.87,3.17-2.3,6.26-1.31,9.68Z"/><path class="cls-5" d="m4395.39,672.35c9.12-6.07,18.09-12.45,28.37-16.47,18.49-7.25,37.51-12.63,57.1-16,21.74-3.74,43.68-4.59,65.67-4.59,83.94-.01,167.89,0,251.83.01,2.95,0,5.9.24,8.59.36,1.86,3.2.15,5.72-.72,7.98-2.42,6.33-2.6,13.16-4.74,19.5-2.17,6.41-5.6,12.5-4.38,19.66-7.14,13.68-8.85,29.05-13.46,43.51-1.39,4.35-2.75,8.64-3.13,13.29-.58,6.97-3.58,9.51-10.24,9.66-2,.04-4,0-6,0-85.94,0-171.88-.04-257.83.05-11.3.01-22.61-.15-33.82,2.19-18.62,3.88-28.66,16.2-34.87,33.21-3.62,9.91-7.46,19.72-10.2,29.93-.76,2.86-2.16,5.6-.92,9.5h329.03c-.8,10.15-4.57,18.62-6.91,27.4-6.38,23.95-13,47.83-19.46,71.76-2.26,8.38-2.18,8.45-11.44,8.45-103.6.01-207.19,0-310.79,0-12.35,0-12.04.08-15.34,12.32-6.55,24.3-13.52,48.49-20.22,72.74-5.9,21.34-11.65,42.72-17.5,64.07-3.67,13.4-7.74,26.7-10.99,40.19-1.34,5.56-4.74,5.47-8.89,5.48-20.98.04-41.97.17-62.95.23-13.32.04-26.65.03-39.97-.01-3.25-.01-6.56.39-9.73-.69,2.09-10.99,6.06-21.06,9.02-31.4,3.83-13.36,8.69-26.57,10.32-40.48.67-5.69,4.64-10.16,5.3-15.44,1.56-12.42,7.54-23.56,9.15-36.09.78-6.07,2.52-12.97,5.93-19.07,3.98-7.13,3.16-15.93,5.67-23.7,3.75-11.59,4.64-24,10.74-34.95,3.7-6.64,2.91-14.65,5.14-21.91,3.75-12.23,5.25-25.1,11.12-36.77,2.82-5.62,2.04-12.33,3.91-18.26,6.31-20.03,12.63-40.07,19.46-59.92,4.78-13.89,8.91-28.34,16.08-40.97,7.34-12.92,14.11-26.28,23.79-38.13,7.31-8.95,16.88-15.7,23.07-25.56,2.34-3.73,7.91-3.46,10.26-7.44,2.2-.46,3.76-1.79,4.96-3.62Z"/><path class="cls-5" d="m3758.64,637.83c-4.1,21.22-11.45,41.58-16.69,62.5-2.81,11.22-6.12,22.31-9.23,33.45-2.26,8.09-2.28,8.17-10.66,8.17-50.63.03-101.26.01-151.89.01-12.83,0-12.78.02-16.28,12.51-10.23,36.6-20.62,73.15-30.72,109.78-11.52,41.77-22.71,83.63-34.21,125.41-9.74,35.36-19.84,70.63-29.53,106-2.19,7.99-4.68,15.94-6.4,23.98-1.32,6.19-4.11,7.24-9.49,7.21-26.65-.17-53.29-.08-79.94-.08-9.33,0-18.65.02-27.98-.03-3.56-.02-5.04-.38-3.72-5.2,2.48-9.02,4.41-18.13,8.67-26.57,2.73-5.41,2.23-11.57,3.5-17.34,2.05-9.36,5.81-18.22,7.32-27.76.79-4.98,4.39-9.48,5.42-14.47,2.89-13.99,8.81-27.25,10.27-41.52.62-6.09,4.84-10.62,5.85-16.4,2.46-14.09,8.7-27.27,10.14-41.55.62-6.1,4.81-10.63,5.83-16.4,2.5-14.08,8.33-27.33,10.32-41.55.58-4.14,3.4-8.16,3.78-11.74,1.37-12.92,8.14-24.07,10.36-36.69,2.6-14.76,5.64-29.55,12.11-43.31,2.99-6.37,2.89-13.48,4.56-20.16,1.92-7.71,4.31-15.3,6.63-23.39-3.77-1.29-7.41-.7-10.93-.71-49.96-.05-99.93-.03-149.89-.04-11.87,0-12.86-1.11-8.84-12.26,2.22-6.14,4.41-12.03,4.95-18.72.37-4.61,3.02-9.17,5.19-13.48,2.92-5.8,1.82-12.24,3.49-18.34,2.09-7.59,6.27-14.3,7.82-22.02,1.01-5.06.19-10.5,3.1-15.17,3.37-.6,3.35-3.17,3.34-5.74,2.65-.14,5.31-.41,7.96-.41,148.92-.02,297.83-.02,446.75,0,2.33,0,4.65.17,6.98.26.69.58,1.39,1.16,2.08,1.73Z"/><path class="cls-5" d="m3897.95,636.33c-3.82,20.02-10.54,39.14-15.67,58.68-5.64,21.47-12.25,42.69-17.68,64.22-2.36,9.36-5.41,18.48-7.98,27.75-2.56,9.24-5.45,18.48-7.47,27.76-2.98,13.64-7.89,26.66-11.07,40.21-3.18,13.54-8.18,26.65-11.27,40.2-4.15,18.18-10.31,35.86-13.14,54.36-1.36,8.92-2.3,17.84-1.74,26.85,1.35,21.83,12.65,35.73,33.94,41.4,17.13,4.56,34.68,5.93,52.36,5.93,53.29-.01,106.58-.02,159.88.03,3.62,0,7.32-.61,11.77.94-2.97,10.78-5.96,21.58-8.93,32.38-5.7,20.73-11.54,41.42-16.97,62.21-1.41,5.4-3.74,7.47-9.56,7.42-69.27-.58-138.56,1.07-207.81-1.03-20.85-.63-41.72-3.02-61.75-10.29-14.66-5.32-28.48-12.25-40.46-21.88-5.85-4.71-11.54-10.47-15.61-17.45-5.43-9.3-12.95-17.55-15.64-28.22-3.96-15.71-5.97-31.77-5.62-47.99.39-18,2.96-35.74,6.6-53.41,4.75-23.03,11.57-45.51,16.76-68.41,6.89-8.97,4.48-21,9.99-30.42,2.93-5.02,2.43-10.92,3.26-16.26,1.76-11.34,10.15-20.79,8.74-32.81,8.33-12.9,5.14-29.33,13.1-42.49,1.86-3.08.38-8.03,1.89-11.5,7.93-18.26,8.59-38.54,15.65-56.82,4.36-11.27,5.88-23.24,10.81-34.22,1.47-3.28,2.81-7.15,2.49-10.6-.56-6.03,1.99-7.6,7.27-7.59,36.97.09,73.94.09,110.91.16.92,0,1.84.55,2.98.91Z"/><path class="cls-4" d="m4062.35,1125.9c3.47-12.7,3.04-25.36,9.77-36.23.67-1.08.74-2.55.99-3.85,2.61-13.36,8.22-26.03,9.71-39.59.7-6.44,4.88-11.29,5.99-17.35,2.57-14.03,8.57-27.19,10.2-41.5.42-3.65,1.79-7.33,3.81-10.83,4.32-7.49,3.46-16.53,6.09-24.6,3.78-11.57,4.7-23.96,10.73-34.94,3.65-6.65,2.98-14.63,5.17-21.89,3.7-12.26,5.61-24.97,10.95-36.87,3.01-6.7,3.34-14.56,5.24-21.81,3.17-12.08,5.34-24.38,10.68-35.94,3.07-6.66,3.56-14.51,5.36-21.78,3-12.12,5.35-24.33,10.54-35.93,3.12-6.98,3.63-15.13,5.32-22.76.9-4.08,3.45-8.16,3.83-11.73,1.37-12.92,8.7-23.96,10.24-36.7.88-7.26,2.12-14.51,5.96-21.06,1.3-2.21,2.21-5.08,2.1-7.6-.24-5.79,2.57-7.67,7.79-7.66,36.96.08,73.91.12,110.87.21.61,0,1.22.46,2.62,1.02-2.74,10.35-5.45,20.82-8.3,31.26-6.04,22.07-12.17,44.12-18.26,66.18-3.27,11.86-6.51,23.74-9.82,35.59-4.82,17.22-10.03,34.34-14.45,51.67-5.32,20.84-11.99,41.31-17.12,62.19-5.54,22.55-12.62,44.66-18.58,67.09-7.72,29.06-15.79,58.03-23.82,87.01-7.69,27.74-15.66,55.4-23.15,83.19-1.19,4.43-3.01,5.93-7.38,5.92-35.96-.08-71.91,0-107.87,0-1.31,0-2.62-.33-5.17-.68Z"/><path class="cls-5" d="m2211.75,2055.59c2.96-3.98,5.97-7.91,8.15-12.42,1.93-3.98,5.14-7.05,8.52-9.68,26.8-20.83,56.63-27.49,89.42-17.85,22.51,6.61,35.23,22.76,40.89,44.89,2.72,10.65,4.04,21.53,4.03,32.55-.02,52.63-.01,105.26-.01,157.89,0,1.67-.07,3.33,0,5,.12,3.24-1.15,4.92-4.63,4.91-17.99-.06-35.98-.06-53.96,0-3.39.01-4.86-1.47-4.74-4.81.08-2.33,0-4.66,0-6.99,0-45.63.03-91.27-.03-136.9-.01-10.2.26-20.34-3.51-30.27-2.73-7.19-11.67-16.01-19.48-17.14-13.94-2-25.41,3.5-35.38,12.37-11.25,10-17.95,22.98-22.06,37.29-3.15,10.95-4.07,22.19-4.03,33.59.13,33.64.04,67.28.04,100.93,0,2.33-.08,4.66,0,6.99.09,3.21-1.11,4.95-4.6,4.94-17.65-.06-35.31-.04-52.96-.02-2.8,0-4.37-1.16-4.37-4.09,0-2.66-.05-5.33-.05-7.99,0-46.97-.24-93.93.17-140.9.1-11.11-3.08-21.23-6.17-31.46-1.47-4.85-5.25-8-10.75-9.24-23.91-5.4-42.95,3.9-55.94,27.49-8.37,15.19-11.7,31.51-11.67,48.7.06,35.31.02,70.62.01,105.92,0,2.33-.08,4.66-.02,6.99.09,3.46-1.75,4.64-4.97,4.6-6.66-.07-13.32,0-19.99,0-10.66,0-21.32-.17-31.98.07-4.71.11-6.84-1.5-6.34-6.3.17-1.65.02-3.33.02-4.99,0-73.95-.02-147.89.01-221.84,0-11.46-1.45-10.84,10.62-10.85,13.99-.02,27.98-.08,41.97.03,6.97.06,7.15.22,6.93,7.39-.23,7.64-.86,15.27-1.31,22.91-.64,3.45-1.29,6.9-1.99,10.68,3.9-1.11,4.47-4.08,5.43-6.76,2.95-3.99,6.6-7.47,8.73-12.04,2.15-4.61,7.01-5.88,10.63-8.65,25.56-19.57,54.03-23.72,84.41-14.48,13.08,3.98,23.58,12.16,30.42,24.37,2.74,4.89,5.23,9.91,7.83,14.87.23.88.29,2.4.73,2.51,1.68.44,1.65-1.14,1.98-2.21Z"/><path class="cls-5" d="m2505.32,2043.42c5.47-4.6,9.03-10.76,15.01-15.29,17.63-13.38,37.55-17.29,58.55-16.04,48.29,2.86,70.13,34.41,78.29,68.53,7.36,30.79,7.41,61.29-.31,91.77-7.81,30.84-24.36,55.87-51.36,73.45-18.21,11.86-38.46,17.68-59.86,19.14-18.26,1.25-36.6,1.11-54.83-1.33-.99-.13-2-.33-2.98-.25-15.59,1.29-29.57-6.12-44.53-8.15-3.2-.43-3.7-2.15-3.68-4.71.02-2.33-.01-4.66-.01-6.99,0-109.55-.01-219.09.01-328.64,0-13.32-1.41-12.08,12.49-12.12,14.65-.04,29.3.14,43.95-.08,5.07-.08,6.96,1.49,6.92,6.82-.29,37.29-.22,74.58-.45,111.87-.05,7.3-.93,14.6-1.43,21.9-1.12,2.58-2.09,5.18-1.08,8.27,2.73-2.3,4.37-4.99,5.3-8.14Zm-2.44,122.23c0,14.35-.07,26.33.02,38.31.06,7.44.21,7.55,7.48,9.13,7.83,1.71,15.77,2.3,23.78,2.28,29.43-.05,48.35-13.79,57-41.95,5.74-18.7,6.67-37.89,4.77-57.27-1.08-10.96-2.87-21.75-7.91-31.74-6.61-13.11-17.14-19.81-31.91-20.04-12.8-.19-23.27,4.68-31.88,13.92-10.8,11.59-16.05,25.78-19.27,40.97-3.43,16.15-1.5,32.5-2.09,46.38Z"/><path class="cls-4" d="m4314.45,2227.24c-18.19,27.95-44.47,39.88-77.22,38.75-8.57-.29-16.99-.37-25.58-2.95-22.15-6.64-36.13-21.45-46.66-41.13-8.82-16.5-10.28-34.51-12.09-52.36-1.54-15.2-1.16-30.57,1.2-45.84,1.57-10.19,1.83-20.53,6.66-30.04,6.63-13.06,12.15-26.5,21.6-38.23,22.57-28,52.57-39.68,87.1-42.4,11.63-.91,23.3-.29,34.95.39,7.49.43,7.63.25,7.65-7.5.06-30.32.02-60.64.03-90.96,0-2.33.14-4.67,0-6.99-.25-3.86,1.47-5.26,5.27-5.24,17.32.11,34.65.1,51.98,0,3.82-.02,5.49,1.46,5.24,5.3-.15,2.32-.01,4.66-.01,6.99,0,111.28.01,222.56-.01,333.84,0,13.37,1.26,11.94-11.51,12-12.99.06-25.99.07-38.98,0-7.78-.04-7.81-.13-7.82-7.53,0-8.67.39-17.31,1.69-25.9.33-1.73,1.95-4.08-.67-4.79-1.44-.39-2.18,2.06-2.71,3.61-.1.3-.05.66-.07.99Zm-2.38-117.2c0-14.22-.01-26.2,0-38.19,0-3.11-.03-5.8-4.2-6.6-14.5-2.77-29.19-4.51-43.64-1.43-22.95,4.88-35.52,20.91-41.47,42.61-5.53,20.18-5.6,40.77-3.19,61.41,1.05,8.98,3.09,17.71,7.21,25.82,6.61,13.02,17.07,19.91,31.91,20.1,14.91.19,26.21-6.51,35.03-17.9,9.62-12.42,14.18-26.92,16.76-42.21,2.56-15.23,1.17-30.56,1.58-43.61Z"/><path class="cls-4" d="m2990.38,2231.04c-11.72,15.09-26.46,25.96-44.94,31.18-18.7,5.28-38.01,5.14-56.27-.13-20.25-5.84-35.2-19.87-39.5-41.15-2.17-10.75-1.75-22.44-.13-33.77,3.1-21.69,15.53-36.88,32.82-48.91,24.2-16.82,51.95-22.34,80.52-25.09,7.29-.7,14.61-1.07,21.93-1.39,2.85-.13,4.36-1.13,4.3-4.1-.2-9.5.57-18.82-4.38-27.97-5.95-11-14.58-16.96-26.47-18.21-17.59-1.84-34.77-1.08-52.09,4.5-12.01,3.87-24.09,7.56-36.51,12.97-1.65-15.74-3-30.55-4.85-45.29-.73-5.85,1.56-8.29,6.89-9.86,15.65-4.63,31.52-8.15,47.68-10.24,20.55-2.66,41.16-3.27,61.75-.26,13.83,2.02,27.02,5.88,39.36,12.75,14.95,8.33,23.26,21.5,27.77,37.26,2.92,10.2,4.23,20.78,4.27,31.49.2,52.96-.67,105.92.75,158.87.18,6.89.03,7.11-6.21,7.16-15.66.13-31.31-.05-46.97.1-4.21.04-6.04-1.24-5.84-5.7.37-7.98.34-15.98.47-23.97.88-2.75,1.95-5.49.88-8.94-2.74,2.87-4.36,5.57-5.26,8.69Zm-52.69-13.7c3.38-.15,7.31-.38,11.25-1.39,25.9-6.65,40.98-34.52,40.28-58-.12-4.14-2.09-4.9-5.61-4.9-16.4,0-32.58,1.61-48.23,6.77-5.06,1.67-9.86,4-14.19,7.2-10.54,7.78-15.02,20.66-11.32,32.68,3.44,11.18,13.23,17.52,27.82,17.64Z"/><path class="cls-4" d="m3512.5,2109.24c.04-8.82.86-17.4-2.82-26.2-4.14-9.92-10.04-16.79-20.26-19.76-14.39-4.18-29.06-3.55-43.58-1.35-15.76,2.39-31.09,6.68-45.32,14.22-2,1.06-4.02,2.19-7.35,2.07-1.57-15.68-3.09-31.44-4.78-47.18-.56-5.18,3.27-5.99,6.65-7.06,15.22-4.8,30.8-8.15,46.59-10.25,24.88-3.3,49.76-3.56,74.51,1.55,10.51,2.17,20.4,5.95,29.46,11.57,18.05,11.21,26.02,28.65,28.91,48.85,1.23,8.56,1.63,17.2,1.64,25.88.07,50.27-.56,100.54.68,150.8.21,8.35.1,8.44-7.82,8.48-14.32.07-28.63.08-42.95,0-7.78-.04-7.89-.15-7.95-7.57-.06-7.32.15-14.64.24-21.95.7-2.74,1.38-5.48.9-8.65-2.87,2.38-4.18,5.28-5.27,8.32-11.4,14.42-25.43,25.08-43.17,30.58-19.35,6-39.08,5.3-58.13.39-7.81-2.01-15.81-7.01-22.34-13.45-7.4-7.3-13.59-14.95-16.02-25.15-1.76-7.39-1.57-14.97-1.99-22.5-.8-14.53,2.81-27.88,10.38-40.14,2.02-3.27,5.14-5.86,7.74-8.77,11.83-13.25,26.34-22.18,43.07-28.15,22.12-7.9,45.07-10.2,68.21-11.74,2.99-.2,5.97-.47,8.95-.7,1.56.09,2.05-.71,1.82-2.14Zm-14.51,44.02c-7.04-.3-14.96,1.12-22.81,2.45-11.19,1.9-22.15,4.87-31.38,12.03-9.92,7.69-13.99,20.51-10.35,32.2,3.31,10.62,13.16,17.14,26.44,17.37,4.33.08,8.61-.2,12.83-1.51,23.36-7.21,34.81-24.47,39.37-47.17,3.02-15.02,1.97-15.89-14.11-15.38Z"/><path class="cls-4" d="m1868.49,2225.37c-5.62,5.57-8.72,12.34-14.46,17.9-11.64,11.27-26.06,18.57-41.08,21.13-18.48,3.15-37.79,2.53-55.85-5.59-12.94-5.82-21.85-15.08-27.93-27.87-5.68-11.94-5.37-24.36-5.69-37.01-.46-17.92,8.8-31.92,19.35-44.13,9.67-11.19,23.05-19.05,37.41-24.22,23.66-8.52,48.1-12.66,73.22-13.39,10.36-.3,10.4-.72,10.31-11.52-.03-3.99,0-8.02-.58-11.95-1.86-12.61-9.27-19.9-21.32-24.21-20.38-7.3-40.1-3.71-60.09,1.14-12.46,3.03-24.41,7.33-35.78,12.69-2.71-1.86-2.17-4.41-2.41-6.62-1.39-12.9-2.49-25.83-4.11-38.7-.62-4.95,1.16-7.52,5.66-8.83,36.78-10.73,74.1-16.1,112.37-10.66,9.13,1.3,18.16,3.57,26.84,6.87,24.51,9.31,36.78,28.11,41.12,53.12,1.49,8.58,1.77,17.19,1.78,25.85.09,45.28.16,90.55.34,135.83.03,6.65.44,13.31.99,19.93.37,4.46-1.46,5.84-5.71,5.81-15.98-.14-31.96-.15-47.94,0-4.24.04-6.11-1.37-5.86-5.74.56-9.95.93-19.92,1.38-29.88,0-.81.01-1.61.02-2.42-1.32.76-2.07,1.48-1.98,2.46Zm-19.93-72.15c-11.48.63-24.33,2.12-36.78,6.09-6.7,2.14-13,5.09-18.34,9.81-9.08,8.03-12.38,20.68-8.31,31.78,3.71,10.11,12.47,15.81,25.02,16.41,10.72.52,20.45-2.39,29.08-8.61,13.99-10.08,22.09-24.05,23.98-40.96,2.06-18.57.74-14.35-14.66-14.52Z"/><path class="cls-4" d="m4580.09,2229.1c-12.91,18.56-31.32,29.08-52.43,35.39-4.01,1.2-8.55.71-12.85.82-12.5.33-24.93.19-37.27-2.63-10.16-2.32-17.44-9.18-24.11-15.89-7.13-7.18-13.61-15.39-15.36-26.55-.7-4.45-.48-8.86-.66-13.12-.64-14.77-.14-29.53,8.08-42.86,7.7-12.48,17.75-22.2,30.46-29.55,24.76-14.33,51.78-19.94,79.88-21.79,2.33-.15,4.66-.28,6.98-.44q16.17-1.06,14.88-17.32c-.64-8-4.52-14.9-7.73-21.99-.64-1.41-2.07-2.98-3.48-3.45-9.24-3.05-17.36-8.79-27.76-9.21-22.69-.92-44.14,3.49-65.07,11.86-15.92,6.37-15.68,9.71-17.38-10.35-.84-9.95-1.81-19.9-3.11-29.8-.54-4.1.59-6.01,4.56-7.29,32.98-10.62,66.64-15.49,101.3-12.77,10.94.86,21.71,2.8,32.13,6.01,32.29,9.94,45.1,30.56,48.82,62.2.77,6.59.61,13.3.63,19.96.13,41.31.11,82.62.32,123.93.05,9.98.69,19.97,1.21,29.94.23,4.29-.49,6.85-5.82,6.76-15.99-.28-31.99-.27-47.98,0-5.28.09-6.12-2.47-5.86-6.77.49-8.31.82-16.62,1.21-24.94.71-2.14,1.43-4.27-.46-6.33-1.32,2-2.86,3.75-3.12,6.16Zm-53.42-11.77c3.3-.18,6.89-.46,10.5-1.38,25.85-6.55,40.61-33.45,40.61-57.85,0-4.04-1.92-5.06-5.55-5.06-16.41,0-32.59,1.61-48.26,6.68-5.06,1.64-9.88,4-14.21,7.19-11.08,8.17-15.37,20.96-11.25,33.58,3.51,10.75,13.7,16.92,28.16,16.84Z"/><path class="cls-4" d="m1189.45,2151.24c-.56,6.68.19,13.22,1.44,19.82,4.36,22.96,20.14,40.29,46.64,43.83,23.65,3.16,46.99,1.8,69.49-7.39,5.97-2.44,12.47-3.6,19.39-5.53,3.19,10.4,2.87,21.39,4.78,32,.53,2.94.6,5.96.92,8.94.77,7.17.56,7.22-6.36,10.01-17.35,6.99-35.71,9.39-54.03,11.5-25.31,2.92-50.96,2.54-75.28-4.54-30.49-8.89-51.31-29.87-62.64-59.98-10.2-27.11-9.1-55.07-7.6-83.23.66-12.3,4.3-23.98,8.24-35.14,3.41-9.66,9.22-18.93,15.52-27.54,20.25-27.7,48.36-40.18,81.67-42.35,20.85-1.36,40.85,2.15,59.8,11.64,20.14,10.08,33.27,26.05,41.46,46.53,9.24,23.12,9.96,47.27,8,71.65-.61,7.55-.94,7.61-9.55,7.62-42.97.03-85.93,0-128.9.03-3.66,0-7.31.23-10.97.35-1.4-.23-2.17.25-2.03,1.77Zm44.02-45.44c13.33,0,26.65,0,39.98,0,3.2,0,5.64-.2,5.93-4.63,1.15-17.6-10.84-35.89-27.43-41.21-21.94-7.04-44.36,2.12-55.04,22.68-2.44,4.69-4.35,9.66-6.3,14.58-2.42,6.11-.87,8.46,5.89,8.54,12.32.14,24.65.04,36.98.03Z"/><path class="cls-6" d="m977.58,1984.97c-3.31-.18-6.63-.5-9.94-.51-21.31-.05-42.63,0-63.94-.03-9.72-.01-9.75-.06-9.77-9.77-.03-12.99.16-25.98-.08-38.96-.09-4.84,1.7-6.69,6.41-6.25,2.31.22,4.66.03,6.99.03,69.61,0,139.21,0,208.82,0,1.67,0,3.33-.02,5,0,8.3.13,8.39.13,8.44,8.05.08,12.99.08,25.98,0,38.96-.05,7.68-.15,7.87-7.69,7.91-21.31.1-42.63-.04-63.94.06-16.51.08-14.1-1.85-14.11,14.47-.08,83.59-.03,167.18-.04,250.77,0,12.5.94,11.13-11.33,11.17-15.32.05-30.64-.17-45.96.11-5.32.1-7.23-1.88-6.73-6.96.23-2.31.04-4.66.04-6.99,0-82.59,0-165.18-.02-247.77,0-3.99-.23-7.98-.35-11.96.24-1.41-.16-2.34-1.78-2.33Z"/><path class="cls-4" d="m3864.34,2173.19c1.44-4.42,3.31-8.8,2.65-13.58-.3-2.2.81-3.74,1.58-5.55,6.69-15.65,10.06-32.47,16.55-48.15,5.49-13.27,8.45-27.4,14.12-40.51,5.7-13.18,8.86-27.11,13.34-40.63,2.52-7.61,2.43-7.76,10-7.79,17.99-.07,35.99-.03,53.98,0,1.93,0,3.96-.34,6.36,1.48-3.23,8.75-6.5,17.66-9.81,26.56-16.33,43.84-32.64,87.68-49.02,131.5-9.83,26.3-19.88,52.52-29.55,78.88-1.54,4.18-3.61,5.62-7.93,5.58-17.99-.18-35.99-.22-53.98.02-4.58.06-6.46-2.16-7.5-5.96-3.43-12.5-8.94-24.28-13.01-36.46-2.55-7.63-5.07-15.63-8.19-22.86-4.5-10.41-8.28-21.25-11.85-31.77-4.49-13.21-11.26-25.4-15.2-38.81-6.28-21.38-16.33-41.53-22.92-62.74-4.72-15.2-12.36-29.24-16.22-45.41,21.78,0,43.42.04,65.05-.04,3.65-.01,4.9,1.69,6.06,5.05,7.58,21.9,15.44,43.7,23.32,65.49,10.25,28.33,19.73,56.92,28.55,85.73.05,1.84-.67,4.69,1.84,4.68,2.51,0,1.78-2.85,1.79-4.69Z"/><path class="cls-4" d="m1673.17,2073.12c-4.47-.74-7.8-1.31-11.27-2.21-20.44-5.33-40.81-9.86-61.41,1.26-12.25,6.62-20.35,16.2-24.75,28.48-7.91,22.06-8.84,44.99-3.27,67.77,7.58,31.01,28.2,43.62,59.75,41.99,12.89-.67,25.7-2.5,37.55-8.38,3.42-1.7,5.51-.84,5.86,3.47,1.17,14.26,2.44,28.5,3.92,42.73.46,4.46-1.13,6.54-5.38,7.86-26.08,8.08-52.66,10.85-79.82,8.09-4.63-.47-9.24-1.14-13.87-1.42-1.96-.12-3.79.43-5.48-1.31-2.18-2.25-5.43-2.72-8.26-3.21-9.42-1.64-16.63-6.67-24.19-12.33-19.79-14.82-31.99-34.57-36.15-58.06-3.56-20.12-4.78-40.91-2.15-61.54,1.07-8.41,1.21-17.09,3.45-25.18,11.85-42.6,42.01-77.79,92.07-86.07,24.27-4.01,48.39-3.08,72.35,2.3,7.3,1.64,7.58,1.91,6.84,8.29-1.79,15.5-3.77,30.97-5.81,47.49Z"/><path class="cls-6" d="m3310.43,2082.27c0,54.97,0,109.95,0,164.92,0,2,.04,4,0,6-.17,7.51-.18,7.63-7.85,7.67-15.99.08-31.99.09-47.98,0-7.26-.04-7.27-.17-7.5-7.02-.06-1.66,0-3.33,0-5,0-111.28-.02-222.55.02-333.83,0-13.38-1.81-12.17,12.33-12.22,12.99-.05,25.99-.03,38.98,0,13.48.03,11.98-.95,11.99,11.58.04,55.97.02,111.94.02,167.92Z"/><path class="cls-6" d="m2786.77,2139.28c0,36.65,0,73.3,0,109.94,0,2.33-.1,4.67-.01,7,.13,3.46-1.61,4.7-4.88,4.66-6.66-.08-13.33,0-19.99,0-10.66,0-21.33-.24-31.98.1-5.39.17-7.22-2-6.66-7.02.15-1.32.02-2.66.02-4,0-73.96-.02-147.93.02-221.89,0-12.1-1.45-11.07,11.38-11.11,14.66-.04,29.32-.06,43.98.01,7.99.04,8.1.14,8.11,8.35.04,37.98.02,75.96.02,113.94Z"/><path class="cls-3" d="m5033.45,1186.92c26.27,14.29,36.31,37.39,34.72,66.05-1.66,29.92-24.71,54.01-47.77,62.6-12.97,4.84-25.7,1.62-38.37,3.65-9.03-4.59-19.07-6.38-27.51-13.19-7.01-5.66-12.45-12.32-18.35-18.76-2.59-2.82-4.94-5.97-5.49-10.14-.34-2.58-1.47-5.08-2.38-7.57-3.38-9.21-2.84-18.81-3.55-28.39-1.1-14.75,7.1-25.37,13.89-36.51,5.69-9.33,14.54-16.2,24.34-20.95,18.69-9.07,37.96-12.44,57.81-3.04,2.92,1.38,6.21,1.99,9.33,2.96.28,1.93,1.96,2.45,3.32,3.29Zm-37.1,115.45c31.2.15,55.23-23.5,54.91-54.9-.34-33.23-23.78-55.25-54.22-55.73-30.8-.48-54.67,23.68-54.82,55-.16,31.66,23.02,55.48,54.13,55.63Z"/><path class="cls-4" d="m4736.16,2265.25c-1.25-.23-2.49-.45-3.74-.68-.65-.5-1.29-1-1.94-1.5-1.86-1.35-3.78-2.64-5.58-4.07-11.02-8.8-17.41-19.05-17.13-34.38.34-18.99,11.12-28.78,26.07-35.65,14.63-6.71,32.04-2.81,42.9,9.14,20.33,22.36,11.81,52.77-10.84,64.74-8.31,4.39-17.76,4.76-27.1,3.07-.88-.22-1.77-.45-2.65-.67Z"/><path class="cls-4" d="m4058.86,1985.6c-25.1,1.48-37.53-19.14-37.79-39.32-.33-26.13,21.87-37.3,39.65-36.54,26.34,1.12,38.73,19.1,38.52,38.2-.26,23.53-20.64,38.9-40.39,37.67Z"/><path class="cls-4" d="m2752.51,1985.55c-21.62.79-37.96-18.54-36.37-39.74.79-10.64,4.28-18.87,11.96-25.73,7.95-7.11,17.09-11.29,27.94-10.56,23.39,1.56,38.89,17.96,38.37,38.91-.5,20.05-17.8,39.22-41.89,37.12Z"/><path class="cls-3" d="m5261.82,414.22c-31.1-14.41-62.6-27.94-94.58-40.31-20.42-7.9-40.69-16.18-61.2-23.85-71.39-26.67-143.88-50.04-216.94-71.62-51.67-15.26-103.73-29.18-155.96-42.37-37.25-9.41-74.72-17.93-112.15-26.6-48.86-11.32-97.93-21.55-147.07-31.49-52.84-10.69-105.88-20.33-159.01-29.42-47.56-8.13-95.18-15.96-142.96-22.76-40.2-5.72-80.36-11.67-120.6-17.12-32.98-4.47-66.02-8.53-99.08-12.45-32.4-3.83-64.83-7.38-97.27-10.82-36.75-3.9-73.5-7.74-110.29-11.22-33.48-3.17-67-5.94-100.51-8.67-39.49-3.21-78.99-6.44-118.52-9.17-37.54-2.59-75.13-4.45-112.69-6.82-66.82-4.22-133.71-6.86-200.6-9.36-35.28-1.32-70.56-2.5-105.86-3.18-61.61-1.19-123.22-2.41-184.84-2.76-65.63-.38-131.27-.37-196.9.59-69.93,1.02-139.87,2.36-209.77,5.18-1.96,1.78-3.96,1.74-6,.13-31.32,1.29-62.64,2.58-93.97,3.87-1.95,1.79-3.95,1.73-6,.17-12,.61-23.99,1.22-35.99,1.83-1.95,1.79-3.95,1.74-6,.17-11.33.62-22.66,1.23-33.99,1.85-1.28,1.47-2.61,1.49-4,.15-10.66.62-21.33,1.24-31.99,1.86-1.28,1.47-2.61,1.49-4,.15-39.99,2.61-79.97,5.22-119.96,7.82-1.27,1.48-2.6,1.53-4,.18-19.59,1.44-39.2,2.69-58.78,4.34-63.37,5.36-126.73,10.74-190.01,17.12-57.31,5.78-114.57,11.96-171.73,18.96-66.4,8.13-132.7,17.12-198.87,27.02-67.15,10.04-134.16,20.91-200.97,32.97-93.33,16.85-186.25,35.78-278.6,57.39-146.89,34.37-292.05,74.72-433.97,126.15-101.85,36.9-201.41,79.02-296.14,131.93-65.32,36.48-127.5,77.51-182.67,128.44-33.96,31.35-64.05,65.93-87.22,106.15-19.51,33.88-32.57,70.02-36.06,109.13-4.09,45.87,4.84,89.44,24.67,130.89,20.09,41.98,48.44,77.93,80.95,110.83,59.66,60.37,130.59,105.4,203.24,147.82,11.12,6.5,22.52,13.16,34.7,18.28,17.15,7.21,33.58,16.17,50.12,24.77,6.37,3.31,11.98,8.97,18.92,10.22,11.64,2.09,20.53,9.79,31.38,13.55,7.95,2.75,17.21,4.43,23.57,11.2,17.19,3.42,31.57,14.08,48.37,18.67,12.96,3.53,23.74,12.9,37.47,14.69,1.28.17,2.62.73,3.71,1.44,9.7,6.29,20.9,8.79,31.47,12.93,6.25,2.45,13.86,1.38,18.85,7.08.88.41,1.76.81,2.64,1.22,6.16,1.63,12.49,2.77,18.41,5.01,6.37,2.42,13.62,2.88,18.93,7.86.87.38,1.73.76,2.6,1.14,23.49,6.42,46.1,15.68,69.77,21.59,8.15,2.03,15.69,6.88,23.88,8.26,11.45,1.94,21.97,6.55,33.08,9.4,10,2.56,19.78,6.26,29.57,9.77,17.84,6.39,37,8.5,54.82,15.39,13.79,5.33,28.73,6.33,42.74,11.22,10.15,3.54,21,5.25,31.64,7.19,5.22.95,9.56,3.79,14.65,5.11,11.21,2.91,22.53,5.11,33.89,7.23,14.77,2.75,28.74,8.5,43.42,11.55,4.78.99,10.05.58,14.41,2.43,6.67,2.83,13.62,3.37,20.46,4.95,7.93,1.83,16.33,2.31,23.76,5.24,7.95,3.14,17.09,1.09,24.24,6.51,13.47-1.21,25.78,4.58,38.55,7.07,48.66,9.49,97.23,19.45,145.99,28.41,52.7,9.68,105.47,18.9,158.44,27,37.5,5.74,74.99,11.6,112.54,16.98,36.24,5.19,72.53,10.07,108.86,14.66,36,4.55,72.04,8.74,108.1,12.79,40.69,4.57,81.39,9.09,122.14,13.09,40.43,3.97,80.9,7.45,121.39,10.8,47.46,3.92,94.92,7.76,142.42,11.09,38.54,2.7,77.13,4.49,115.69,6.89,65.83,4.09,131.72,6.63,197.62,9.11,41.6,1.57,83.23,2.73,124.85,3.45,66.61,1.15,133.23,2.25,199.86,2.51,84.62.33,169.23-.83,253.82-3.04,40.62-1.06,81.26-1.92,121.87-3.39,66.9-2.42,133.78-5.51,200.62-9.29,25.27-1.43,50.55-2.84,75.8-4.6,41.86-2.92,83.7-6.03,125.54-9.21,27.56-2.1,55.12-4.27,82.64-6.79,39.12-3.58,78.22-7.4,117.32-11.31,27.16-2.72,54.32-5.58,81.44-8.68,31.42-3.59,62.82-7.32,94.19-11.33,19.46-2.49,39.05-4.17,58.33-8.01,6.15.68,11.98-1.29,17.96-2.08-.01-1.13-.03-2.27-.04-3.4-5.98.66-11.96,1.32-17.94,1.99-17.57,1.42-35.14,2.83-52.71,4.25-45.8,3.71-91.59,7.69-137.42,11.06-35.87,2.64-71.8,4.43-107.69,6.75-63.82,4.12-127.72,6.69-191.63,9.12-40.94,1.56-81.9,2.73-122.86,3.45-89.59,1.57-179.19,2.39-268.81,1.63-80.62-.68-161.2-2.56-241.78-4.94-21.31-.63-42.62-1.37-63.9-2.46-57.54-2.96-115.08-5.99-172.61-9.28-33.25-1.9-66.49-4.06-99.69-6.66-43.49-3.41-86.94-7.22-130.39-11.13-37.47-3.38-74.95-6.74-112.35-10.85-48.31-5.31-96.55-11.29-144.8-17.09-46.52-5.59-92.96-11.87-139.29-18.9-62.84-9.55-125.57-19.76-188.15-30.99-91.92-16.49-183.37-35.3-274.22-56.82-50.97-12.08-101.71-25.23-152.13-39.55-104.57-29.7-207.89-63.05-308.54-104.33-28.55-11.71-56.92-23.86-84.79-37.07-28.5-13.51-56.73-27.59-84.35-42.86-41.1-22.73-81.01-47.3-118.64-75.46-42.33-31.68-81.24-66.89-112.86-109.62-22.79-30.8-40.44-64.24-48.86-101.69-12.17-54.12-3.31-105.89,21.79-154.85,10.63-20.74,24-39.9,38.8-58.01,37.04-45.32,81.81-81.88,129.74-114.88,62.44-42.98,129.82-76.98,198.44-108.67,38.51-17.78,77.92-33.49,117.59-48.48,22.96-8.67,46.01-17.11,69.19-25.17,35.51-12.35,71.35-23.7,107.27-34.84,35.76-11.09,71.9-20.78,107.89-31.03,14.23-4.05,28.64-7.5,42.95-11.3,54.71-14.53,109.92-26.92,165.18-39.11,18.11-4,36.39-7.5,54.6-11.02,15.5-3,31.03-6.83,46.6-9.97,65.25-13.14,130.81-24.63,196.54-35.12,26.29-4.2,52.67-7.87,78.93-12.21,26.04-4.31,52.31-6.92,78.36-11.13,15.77-2.55,31.65-4.4,47.51-6.34,54.19-6.62,108.4-13.11,162.7-18.85,51.99-5.5,104.02-10.51,156.11-14.94,53.09-4.52,106.23-8.58,159.4-11.94,61.49-3.89,123.02-7.29,184.58-10,58.89-2.59,117.83-4.3,176.76-5.87,42.96-1.14,85.93-1.57,128.9-2.07,100.95-1.17,201.88.05,302.8,2.52,75.92,1.86,151.8,4.71,227.66,8.49,51.23,2.55,102.44,5.46,153.61,9.02,61.79,4.3,123.55,8.97,185.2,15.08,43.07,4.27,86.16,8.42,129.22,12.78,15.23,1.54,30.42,3.54,45.63,5.36,15.2,1.82,30.41,3.64,45.6,5.51,15.53,1.91,31.02,4.2,46.58,5.7,15,1.45,29.82,4.11,44.74,6.09,42.56,5.65,85.01,12.1,127.45,18.59,89.16,13.64,177.92,29.52,266.23,47.9,6.72,1.4,13.33,3.29,19.9,5.3,6.26,1.92,13.62,1.86,20.5,2.86,4.07.59,6.93,3.93,11.06,3.83,16.07-.39,30.77,6.41,46.2,9.37,11.63,2.24,23.64,3.9,34.92,8.37,7.88,3.12,16.81,2.4,24.86,5.35,2.78-.76,3.09,1.77,4.24,3.19,1.99-.08,4.14-.71,5.94-.17,23.71,7.19,47.97,12.1,72.12,17.47,4.29.95,7.56,3.56,11.74,4.61,14.52,3.65,28.79,8.31,43.33,11.87,18.46,4.51,36.54,10.37,55.07,14.73,14.5,3.41,28.95,7.81,43,13.2,7.59,2.91,15.82,4.11,23.44,6.95,23.35,8.72,46.82,17,70.85,23.7,4.92,1.37,10.37,2.18,14.2,6.29.86.39,1.71.77,2.57,1.16,6.5,2.18,14.07,1.27,19.43,6.74.88.41,1.76.82,2.64,1.22,14.13,2.83,27.13,9.01,40.62,13.74,1.82.64,4.01.82,4.71,3.16.77.42,1.54.83,2.31,1.25,12.59,4.16,24.4,10.51,37.5,13.21.07-.99.15-1.98.22-2.97-28.34-16.69-58.35-30.07-88.11-43.86Z"/><path class="cls-3" d="m2718.52,914.5c-.22,4.31-.13,8.76-4.69,11.26.27-4.29.08-8.78,4.69-11.26Z"/><path class="cls-7" d="m3294.86,636.26c.01,2.57.03,5.14-3.34,5.74-1.69-3.54.72-4.7,3.34-5.74Z"/><path class="cls-3" d="m4152.02,1553.74c-3.74,1.15-7.55,1.58-11.47,1.83-6.69.44-13.44.89-19.87,3.17-16.8,1.32-33.61,2.56-50.28,5.14.01,1.13.03,2.27.04,3.4,3.31.46,6.52-.25,9.77-.7,13.32-1.87,26.65-3.63,39.97-5.43,3.89.19,7.63.07,11.6-.74,6.69-1.36,13.38-3.39,20.35-3.13,1.34.04,3.13.04,3.31-1.38.32-2.48-1.83-2.12-3.43-2.16Z"/><path class="cls-8" d="m3014.61,1123.63c1.42.41,2.18,1.45,2.69,2.74-1.49.64-3.09,1.31-3.97-.73-.4-.93.23-1.73,1.28-2.01Z"/><path class="cls-3" d="m2666.59,1102.55c.46,2.54.07,4.59-2.96,5.13-1.39-3.08.96-4,2.96-5.13Z"/><path class="cls-3" d="m2676.55,1066.48c.49,2.58.12,4.67-2.97,5.21-1.35-3.07.96-4.05,2.97-5.21Z"/><path class="cls-3" d="m2682.59,1044.58c.46,2.54.07,4.59-2.95,5.12-1.39-3.08.96-4,2.95-5.12Z"/><path class="cls-3" d="m2692.55,1008.51c.49,2.58.12,4.66-2.97,5.21-1.35-3.07.96-4.05,2.97-5.21Z"/><path class="cls-3" d="m2698.59,986.62c.46,2.54.06,4.58-2.96,5.11-1.39-3.08.97-3.98,2.96-5.11Z"/><path class="cls-3" d="m2708.55,950.55c.48,2.57.11,4.64-2.96,5.19-1.37-3.07.97-4.03,2.96-5.19Z"/><path class="cls-3" d="m2713.62,929.99c2.26,2.78.19,3.29-1.97,3.76-.78-2-.65-3.53,1.97-3.76Z"/><g><path class="cls-3" d="m5349.71,461.05c4.08,2.88,8.69,4.49,13.52,5.53.46-.4.9-.82,1.32-1.26-4.38-3.4-9.01-6.31-14.62-7.25-.07.99-.15,1.98-.22,2.97Z"/><path class="cls-3" d="m5364.55,465.32c-.42.44-.86.86-1.32,1.26.65,1.44.91,3.37,3.2,2.9.5-.1,1.2-.74,1.27-1.21.31-2.34-1.72-2.36-3.15-2.95Z"/></g><path class="cls-1" d="m1189.45,2151.24c-.14-1.52.64-2,2.03-1.77-.68.59-1.35,1.18-2.03,1.77Z"/><path class="cls-7" d="m3758.64,637.83c-.69-.58-1.39-1.16-2.08-1.73,1.38-.24,2.29.08,2.08,1.73Z"/><path class="cls-1" d="m1227.37,675.8c-.66.48-1.33.97-1.99,1.45.66-.49,1.33-.97,1.99-1.45Z"/><path class="cls-4" d="m4091.61,2250.06c-.02-65.54,0-131.08-.02-196.62,0-9.98-.3-19.96-.19-29.94.05-4.37-.89-6.72-6.04-6.62-18.29.35-36.58.32-54.87.44-1.48-.11-2.03.59-1.74,2.01-.09,34.59-.22,69.19-.25,103.78-.04,41.92-.04,83.84,0,125.75.01,13.64-1.36,11.93,12.46,12.01,13.31.08,26.62.06,39.92,0,10.87-.04,10.72,1.59,10.72-10.81Z"/><path class="cls-2" d="m4781.05,809.95c-.23.7-.46,1.41-.69,2.11.23-.7.46-1.41.69-2.11Z"/><path class="cls-2" d="m2182.47,843.63c-.38.85-.76,1.71-1.14,2.56-.22-1.12.15-1.98,1.14-2.56Z"/><path class="cls-2" d="m681.54,1354.2c.87.38,1.73.76,2.6,1.14-1.13.23-2.01-.13-2.6-1.14Z"/><path class="cls-2" d="m641.56,1340.11c.88.41,1.76.81,2.64,1.22-1.17.23-2.06-.16-2.64-1.22Z"/><path class="cls-4" d="m5029.15,1285.38c-6.45,0-11.29-.07-16.13.02-3.32.06-4.51-2.18-5.67-4.68-2.8-6.02-5.66-12.01-8.53-17.99-.86-1.79-1.74-3.58-2.77-5.28-1.26-2.08-3.44-1.68-5.37-1.57-2.79.16-2.78,2.41-2.8,4.36-.08,6.64-.16,13.29-.03,19.93.08,3.81-1.51,5.08-5.29,5.32-11.92.78-12.23.65-12.23-11.31,0-19.26-.06-38.53.03-57.79.03-7.08.19-7.2,7.17-7.3,8.3-.12,16.61-.21,24.91.04,11.56.35,20.06,6.21,23.24,15.55,3.35,9.83.78,18.55-8.66,26.24-3.16,2.57-2.99,4.37-1.4,7.44,4.39,8.45,8.54,17.01,13.52,27.02Zm-41.33-52.91q-.03,9.9,7.49,10c9.49.12,14.64-3.36,14.51-9.8-.12-6.15-4.9-9.39-13.83-9.39q-8.15,0-8.17,9.19Z"/></svg>